<svg width="213" height="231" viewBox="0 0 213 231" fill="none" xmlns="http://www.w3.org/2000/svg">
<g opacity="0.9">
<path d="M127.361 165.052C126.317 164.687 124.363 162.97 124.043 162.31C121.883 157.934 117.315 150.008 118.68 145.03C118.911 144.178 122.928 144.197 123.633 143.518C126.195 142.903 127.118 142.852 129.264 141.077C135.607 135.83 126.682 121.575 140.854 120.223C151.234 119.23 158.749 124.323 160.895 108.985C163.041 93.6469 180.846 68.6407 194.583 82.5565C202.463 90.5459 190.45 101.431 193.16 111.907C195.736 121.863 190.348 128.468 179.635 131.858C168.923 135.241 173.158 140.481 174.125 149.63C175.292 160.618 159.088 159.1 151.669 157.761C145.692 156.678 129.745 157.966 127.361 165.052Z" fill="url(#paint0_linear_1_1768)"/>
<path d="M121.403 154.134L121.345 153.916C139.022 149.496 154.873 139.77 167.174 125.809C178.879 112.521 187.221 95.6713 191.296 77.0784L191.52 77.1297C187.439 95.761 179.078 112.643 167.347 125.963C155.014 139.956 139.125 149.701 121.403 154.134Z" fill="#FCFDFE"/>
<path d="M175.138 154.141C166.553 149.163 151.144 145.825 140.79 146.69L140.771 146.465C151.17 145.594 166.636 148.951 175.253 153.949L175.138 154.141Z" fill="#FCFDFE"/>
<path d="M128.29 152.328L128.175 152.129C132.846 149.419 135.972 144.447 137.452 137.355C138.541 132.159 138.74 125.963 138.042 118.941L138.266 118.922C138.964 125.963 138.766 132.184 137.67 137.406C136.177 144.556 133.019 149.579 128.29 152.328Z" fill="#FCFDFE"/>
<path d="M168.942 123.996L168.821 123.804C177.361 118.243 188.08 118.531 195.563 119.761L195.525 119.986C188.08 118.768 177.419 118.474 168.942 123.996Z" fill="#FCFDFE"/>
<path d="M181.833 104.551L181.615 104.487C182.98 99.7525 184.268 89.8154 177.553 76.489L177.758 76.3865C180.026 80.8842 181.634 85.6509 182.403 90.155C183.281 95.3446 183.095 100.188 181.833 104.551Z" fill="#FCFDFE"/>
<path d="M159.156 156.338C153.387 155.488 147.617 154.505 141.86 153.397C141.767 153.483 139.875 140.934 145.838 134.354C157.623 121.606 149.682 110.166 147.418 103.387C143.832 93.8331 145.718 83.4953 155.438 83.3426C166.221 82.9641 168.173 65.117 166.221 48.8832C164.707 40.9689 172.183 31.3614 179.633 29.1637C187.242 26.7336 194.838 31.7133 197.168 47.4889C200.694 65.761 187.355 76.7827 182.422 85.9386C177.561 94.9286 188.869 102.206 179.766 110.173C172.117 117.251 162.47 122.343 165.995 131.234C169.62 140.038 168.751 147.228 159.156 156.338Z" fill="url(#paint1_linear_1_1768)"/>
<path d="M151.435 157.082L151.202 157.075C151.202 156.962 156.72 130.57 166.228 104.882C167.542 100.725 168.97 96.529 170.351 92.4722C174.049 81.6098 177.867 70.3757 179.679 59.188C181.705 46.6857 180.987 35.425 177.468 24.7619L177.694 24.6888C181.22 35.3852 181.95 46.6857 179.912 59.2212C178.093 70.4222 174.268 81.6696 170.57 92.5386C169.189 96.5953 167.761 100.792 166.447 104.948C156.866 130.849 151.448 156.929 151.435 157.082Z" fill="#FCFDFE"/>
<path d="M177.249 71.4778L177.077 71.3185C183.51 64.1677 191.272 54.0091 195.442 48.5514C198.801 44.156 198.815 44.1626 198.954 44.1826L198.934 44.2954L198.981 44.4017C198.808 44.5212 197.4 46.3603 195.621 48.6908C191.458 54.1618 183.69 64.327 177.249 71.4778Z" fill="#FCFDFE"/>
<path d="M179.195 61.6778C177.867 53.4846 174.487 48.0932 171.891 45.0191C169.023 41.6196 166.38 40.139 166.115 40.1058C166.115 40.1058 166.141 40.1058 166.168 40.0859L166.035 39.8934C166.095 39.8535 166.161 39.8602 166.321 39.9332C167.031 40.2453 169.693 41.9052 172.489 45.3776C176.008 49.7465 178.405 55.3768 179.42 61.6446L179.195 61.6778Z" fill="#FCFDFE"/>
<path d="M160.803 121.693L160.571 121.666C161.48 114.044 159.701 105.844 155.292 97.2924C152.995 92.8306 150.06 88.4684 146.575 84.3121C146.322 84.0133 146.236 83.9071 146.203 83.8539L146.409 83.7344C146.429 83.7676 146.575 83.9403 146.754 84.1594C150.253 88.329 153.194 92.7111 155.505 97.1862C159.927 105.778 161.713 114.017 160.803 121.693Z" fill="#FCFDFE"/>
<path d="M163.399 113.666L163.2 113.539C170.118 102.358 184.712 101.582 184.838 101.621L184.925 101.734L184.845 101.847L184.805 101.734L184.792 101.847C184.566 101.854 170.211 102.664 163.399 113.666ZM184.772 101.628L184.812 101.741L184.772 101.628Z" fill="#FCFDFE"/>
<path d="M152.397 152.779L152.165 152.773C152.284 149.453 151.103 143.796 144.755 135.689C144.41 135.251 144.41 135.251 144.423 135.184L144.656 135.218L144.536 135.204L144.642 135.158C144.662 135.191 144.788 135.357 144.941 135.543C151.328 143.703 152.523 149.42 152.397 152.779Z" fill="#FCFDFE"/>
<path d="M153.865 146.525L153.639 146.458C154.369 143.935 157.251 138.989 168.312 134.221C168.465 134.155 168.565 134.115 168.598 134.095L168.704 134.301C168.664 134.321 168.565 134.368 168.405 134.434C157.43 139.168 154.588 144.041 153.865 146.525Z" fill="#FCFDFE"/>
<path d="M178.331 100.823C178.331 140.364 146.29 173.88 105.416 175.747C62.96 177.687 27.3208 144.99 27.3208 102.642C27.3208 60.2944 62.9532 26.7448 105.409 27.6578C146.29 28.5369 178.331 61.2817 178.331 100.823Z" fill="url(#paint2_linear_1_1768)"/>
<path d="M183.078 100.823C183.078 140.364 151.037 173.88 110.163 175.747C67.7073 177.687 32.0681 144.99 32.0681 102.642C32.0681 60.2943 67.7073 26.738 110.163 27.6577C151.037 28.5369 183.078 61.2817 183.078 100.823Z" fill="url(#paint3_linear_1_1768)"/>
<path d="M178.561 100.877C178.561 138.133 148.338 169.653 109.859 171.337C69.9794 173.082 36.5786 142.326 36.5786 102.595C36.5786 62.8643 69.9794 31.2962 109.859 32.0807C148.338 32.8313 178.561 63.6217 178.561 100.877Z" fill="url(#paint4_linear_1_1768)"/>
<path d="M94.3453 104.448C97.4426 100.431 98.9913 94.4255 98.9913 86.4252C98.9913 78.7767 97.4156 72.8864 94.2709 68.7679C91.1263 64.6495 86.6088 62.5869 80.7321 62.5869C68.7351 62.5869 62.7366 70.533 62.7366 86.4252C62.7366 94.2158 64.2988 100.174 67.4299 104.292C70.561 108.411 74.9973 110.473 80.7321 110.473C86.7103 110.473 91.248 108.465 94.3453 104.448ZM80.8335 99.6733C79.0955 99.6733 77.8309 98.5845 77.0532 96.4137C76.2687 94.2429 75.8765 90.9427 75.8765 86.5267C75.8765 82.1107 76.2687 78.8308 77.0532 76.6938C77.8377 74.5568 79.0955 73.4883 80.8335 73.4883C84.1743 73.4883 85.8447 77.8367 85.8447 86.5267C85.8447 95.2911 84.1743 99.6733 80.8335 99.6733Z" fill="white"/>
<path d="M147.689 99.2272C144.545 95.1087 140.027 93.0461 134.15 93.0461C122.153 93.0461 116.155 100.992 116.155 116.884C116.155 124.641 117.717 130.579 120.848 134.697C123.979 138.816 128.416 140.878 134.15 140.878C140.129 140.878 144.673 138.87 147.764 134.853C150.861 130.836 152.41 124.844 152.41 116.884C152.41 109.236 150.834 103.352 147.689 99.2272ZM134.252 130.139C132.514 130.139 131.249 129.051 130.471 126.88C129.687 124.709 129.295 121.409 129.295 116.993C129.295 112.577 129.687 109.297 130.471 107.16C131.256 105.023 132.514 103.954 134.252 103.954C137.593 103.954 139.263 108.303 139.263 116.993C139.263 125.757 137.593 130.139 134.252 130.139Z" fill="white"/>
<path d="M133.494 64.4738C133.197 63.9666 132.649 63.6352 132.067 63.6352H124.331C123.114 63.6352 121.998 64.3182 121.409 65.38L81.4219 137.477C81.1378 137.991 81.1446 138.633 81.4422 139.14C81.7397 139.648 82.2875 139.972 82.8691 139.972H91.5929C92.1948 139.972 92.7493 139.634 93.0469 139.107L133.515 66.1374C133.799 65.6234 133.792 64.981 133.494 64.4738Z" fill="white"/>
<g opacity="0.3">
<path opacity="0.3" d="M77.2562 69.9176C74.7472 61.7347 74.8622 49.305 87.1026 30.9443C55.521 40.0401 32.0681 68.68 32.0681 102.94C32.0681 145.281 67.7073 177.985 110.163 176.044C125.819 175.327 140.149 169.985 151.862 161.504C151.497 150.211 149.042 137.849 142.13 126.447C123.127 95.095 85.1347 95.5886 77.2562 69.9176Z" fill="url(#paint5_linear_1_1768)"/>
</g>
<path d="M160.667 60.8084V61.0383C158.544 58.2791 154.743 54.4447 152.464 52.2266C152.423 52.1251 152.349 52.0304 152.308 51.929C151.037 49.0278 149.326 45.8899 147.088 42.7521C144.863 39.6074 142.043 36.5169 138.749 33.663C138.357 33.2911 137.897 32.9665 137.478 32.6148C137.261 32.4458 137.045 32.2699 136.829 32.1009L136.511 31.8439C136.396 31.756 136.281 31.6816 136.173 31.5937C135.72 31.2691 135.266 30.9377 134.813 30.6063L134.475 30.3561L134.117 30.1262C133.88 29.9706 133.643 29.8151 133.407 29.6596C132.473 29.0171 131.466 28.4558 130.485 27.8674C129.985 27.5834 129.457 27.3197 128.95 27.0492C128.7 26.9139 128.443 26.7719 128.186 26.6434C127.922 26.5217 127.658 26.3932 127.395 26.2715C123.188 24.2494 118.596 22.7819 113.89 21.9772C113.301 21.8825 112.713 21.7946 112.118 21.6999C111.529 21.6187 110.928 21.5714 110.339 21.5038L109.447 21.4091L108.554 21.3618L107.661 21.3077C107.364 21.2941 107.073 21.2671 106.769 21.2671C106.173 21.2671 105.578 21.2603 104.983 21.2536C104.834 21.2536 104.679 21.2468 104.544 21.2536L104.145 21.2738L103.353 21.3144L102.562 21.355C102.495 21.355 102.447 21.355 102.353 21.3618L101.541 21.4226L100.459 21.497L99.6475 21.5579L99.5123 21.5646H99.4649C99.4649 21.5646 99.1809 21.5646 99.6543 21.5714L97.9027 21.8149C97.6119 21.8554 97.3211 21.8825 97.0371 21.9433L96.1783 22.1057L95.3194 22.268L94.8933 22.3491C94.7513 22.3762 94.6093 22.4167 94.4741 22.4506C93.9128 22.5858 93.3515 22.7211 92.7969 22.8563C92.5129 22.9172 92.2424 23.0051 91.9719 23.0862L91.1536 23.3297L90.3353 23.5664L89.5373 23.8437C89.0031 24.033 88.4688 24.2021 87.9549 24.405C87.4409 24.6146 86.9202 24.8175 86.4062 25.0339C82.3283 26.7584 78.663 28.99 75.5454 31.5396L74.957 32.0062L74.4025 32.5066C74.0305 32.838 73.6518 33.1491 73.3002 33.4872C73.2866 33.5007 73.2731 33.5143 73.2596 33.5278C72.5766 34.2041 71.88 34.8397 71.2646 35.5363C71.1023 35.7054 70.94 35.8812 70.7845 36.0503L70.541 36.3072L70.3178 36.5778C70.0203 36.9294 69.7227 37.2878 69.4252 37.6327C69.3508 37.7206 69.2764 37.8018 69.202 37.8897L68.9991 38.1602C68.8571 38.3428 68.7218 38.5254 68.5866 38.7012C68.3228 39.0664 68.0321 39.3978 67.7886 39.7765C65.7666 42.6642 64.2179 45.5518 63.1697 48.3042C62.1147 51.0499 61.4858 53.6264 61.1206 55.9054C61.08 56.1895 61.0395 56.4735 61.0056 56.7508C60.9718 57.028 60.9177 57.2918 60.9042 57.5623C60.8569 58.0965 60.8163 58.6105 60.769 59.0974C60.7419 59.5911 60.7419 60.0712 60.7148 60.5176C60.7081 60.7407 60.6878 60.9639 60.6878 61.1736C60.6946 61.39 60.7013 61.5996 60.7081 61.8025C60.7149 62.2082 60.7216 62.5937 60.7284 62.9521C60.7284 63.0536 60.7419 63.1077 60.7487 63.1753C60.7554 63.2429 60.769 63.3106 60.7757 63.3714C60.7892 63.4999 60.8028 63.4796 60.8163 63.5946C60.8231 63.696 60.8366 63.7366 60.8433 63.7366H80.8L68.6745 76.5383L40.4674 105.915L0.148438 63.7569H21.3494C21.3764 63.7569 21.4103 63.412 21.4441 63.1415C21.5252 62.5531 21.6131 61.9851 21.7078 61.2885C21.7619 60.9436 21.8092 60.619 21.8701 60.2471C21.8972 60.0645 21.931 59.8954 21.958 59.6993C21.9851 59.5099 22.0121 59.3071 22.0527 59.1448C22.2015 58.4482 22.357 57.7111 22.5193 56.9266C22.6072 56.5344 22.6952 56.1354 22.7831 55.7296C22.8778 55.3171 22.9927 54.9046 23.1077 54.4785C23.3376 53.6264 23.5608 52.7338 23.838 51.814C24.1356 50.9011 24.4467 49.9475 24.7645 48.9602C24.9201 48.4665 25.123 47.9728 25.3123 47.4724C25.5017 46.9787 25.6978 46.4648 25.9007 45.944C27.544 41.8323 29.796 37.3487 32.7986 32.8515C35.7877 28.3476 39.6018 23.8572 44.126 19.6981C44.6738 19.1639 45.2825 18.677 45.864 18.163C46.1616 17.9128 46.4524 17.6558 46.7499 17.4056L47.2031 17.0269L47.6629 16.6617C48.2851 16.1816 48.914 15.6946 49.5362 15.201L50.0096 14.8358L50.5032 14.4909C50.8346 14.2542 51.1592 14.0243 51.4906 13.7943C52.7822 12.8476 54.1754 12.0022 55.5617 11.1231C56.2583 10.697 56.9819 10.298 57.6987 9.88552C58.0504 9.68264 58.4155 9.47976 58.774 9.27689C59.1459 9.08753 59.5111 8.89818 59.883 8.70206C65.7801 5.62505 72.2993 3.29193 79.0687 1.89206C79.914 1.73652 80.7661 1.57421 81.6182 1.41191C82.4703 1.26313 83.3292 1.15493 84.188 1.0332L85.473 0.85737L86.7646 0.735643L88.0563 0.620677C88.4891 0.580101 88.9152 0.539525 89.348 0.519237C90.2068 0.478661 91.0724 0.383983 91.9381 0.343407C92.1477 0.336644 92.3709 0.255493 92.5805 0.255493H93.2297L94.5214 0.32312L95.8131 0.363696C96.2459 0.363696 96.6719 0.417796 97.1047 0.438084L99.6678 0.586863C100.249 0.593626 99.8707 0.600388 100.019 0.60715L100.087 0.613913L100.222 0.62744L100.486 0.661253L101.027 0.722116L102.102 0.850607L102.643 0.91147L102.907 0.945284L103.238 0.98586L104.598 1.17522L105.957 1.37133L106.633 1.47277C106.856 1.50659 107.053 1.55392 107.262 1.5945C108.087 1.76357 108.919 1.93263 109.744 2.09494C110.157 2.17609 110.562 2.28429 110.968 2.38573L112.192 2.69681L113.403 3.0079L114.6 3.36632C115.391 3.60977 116.189 3.8397 116.973 4.11021C117.751 4.38748 118.529 4.66475 119.3 4.94202C125.434 7.26161 131.026 10.3589 135.841 13.9634C136.146 14.1866 136.443 14.4097 136.747 14.6329C137.038 14.8628 137.329 15.0995 137.62 15.3362C138.195 15.8029 138.776 16.256 139.331 16.7361C140.426 17.7167 141.515 18.6499 142.516 19.6711C142.773 19.9213 143.016 20.1715 143.273 20.415L143.645 20.7869L144.004 21.1724C144.477 21.6864 144.951 22.2003 145.41 22.7008L145.762 23.0795L146.093 23.4717C146.31 23.7355 146.533 23.9924 146.743 24.2562C147.175 24.7769 147.622 25.2773 148.014 25.8116C150.212 28.6384 152.072 31.499 153.614 34.3258C154.364 35.6986 155.034 37.0647 155.629 38.4104C157.455 42.5289 158.631 46.4445 159.369 49.934C159.45 50.3736 159.538 50.7996 159.619 51.2257C159.7 51.645 159.795 52.0575 159.842 52.47C159.957 53.2951 160.072 54.0795 160.18 54.8369C160.268 55.6011 160.322 56.3315 160.383 57.028C160.41 57.3729 160.444 57.7111 160.471 58.0492C160.484 58.3806 160.559 58.6984 160.572 59.0163C160.559 59.652 160.667 60.2538 160.667 60.8084Z" fill="url(#paint6_linear_1_1768)"/>
<path opacity="0.4" d="M160.667 60.8083V61.0382C158.543 58.2791 154.743 54.4446 152.464 52.2265C152.423 52.1251 152.349 52.0304 152.308 51.9289C151.037 49.0278 149.326 45.8899 147.088 42.752C144.863 39.6074 142.043 36.5168 138.749 33.663C138.357 33.291 137.897 32.9664 137.478 32.6148C137.261 32.4457 137.045 32.2699 136.829 32.1008L136.511 31.8438C136.396 31.7559 136.281 31.6815 136.173 31.5936C135.719 31.269 135.266 30.9376 134.813 30.6063L134.475 30.356L134.117 30.1261C133.88 29.9706 133.643 29.815 133.407 29.6595C132.473 29.017 131.466 28.4557 130.485 27.8674C129.985 27.5834 129.457 27.3196 128.95 27.0491C128.7 26.9139 128.443 26.7718 128.186 26.6433C127.922 26.5216 127.658 26.3931 127.395 26.2714C123.188 24.2494 118.596 22.7819 113.89 21.9771C113.301 21.8824 112.713 21.7945 112.118 21.6998C111.529 21.6187 110.928 21.5713 110.339 21.5037L109.447 21.409L108.554 21.3617L107.661 21.3076C107.364 21.2941 107.073 21.267 106.769 21.267C106.173 21.267 105.578 21.2603 104.983 21.2535C104.834 21.2535 104.679 21.2467 104.544 21.2535L104.145 21.2738L103.353 21.3144L102.562 21.3549C102.495 21.3549 102.447 21.3549 102.352 21.3617L101.541 21.4226L100.459 21.497L99.6474 21.5578L99.5122 21.5646H99.4648C99.4648 21.5646 99.1808 21.5646 99.6542 21.5713L97.9027 21.8148C97.6119 21.8554 97.3211 21.8824 97.037 21.9433L96.1782 22.1056L95.3193 22.2679L94.8933 22.3491C94.7513 22.3761 94.6092 22.4167 94.474 22.4505C93.9127 22.5857 93.3514 22.721 92.7969 22.8563C92.5128 22.9171 92.2423 23.005 91.9718 23.0862L91.1535 23.3296L90.3352 23.5663L89.5373 23.8436C89.003 24.033 88.4688 24.202 87.9548 24.4049C87.4408 24.6145 86.9201 24.8174 86.4061 25.0338C82.3283 26.7583 78.6629 28.99 75.5453 31.5395L74.9569 32.0061L74.4024 32.5066C74.0305 32.8379 73.6518 33.149 73.3001 33.4872C73.2866 33.5007 73.273 33.5142 73.2595 33.5277C82.22 22.9645 96.726 16.1071 113.105 16.1071C129.883 16.1071 144.707 23.3094 153.6 34.3054C154.351 35.6783 155.02 37.0443 155.615 38.3901C157.441 42.5086 158.618 46.4241 159.355 49.9137C159.436 50.3532 159.524 50.7793 159.605 51.2053C159.686 51.6246 159.781 52.0371 159.828 52.4497C159.943 53.2747 160.058 54.0592 160.166 54.8166C160.254 55.5808 160.309 56.3111 160.369 57.0077C160.396 57.3526 160.43 57.6907 160.457 58.0289C160.471 58.3602 160.545 58.6781 160.559 58.9959C160.559 59.6519 160.667 60.2538 160.667 60.8083Z" fill="url(#paint7_linear_1_1768)"/>
<path d="M11.7583 184.234V189.668C11.7583 191.421 22.7327 192.847 36.266 192.847C49.7992 192.847 60.7736 191.421 60.7736 189.668V184.234H11.7583Z" fill="url(#paint8_linear_1_1768)"/>
<path d="M60.7685 184.234C60.7685 185.987 49.794 187.413 36.2608 187.413C22.7276 187.413 11.7531 185.987 11.7531 184.234C11.7531 182.48 22.7276 181.055 36.2608 181.055C49.794 181.055 60.7685 182.474 60.7685 184.234Z" fill="url(#paint9_linear_1_1768)"/>
<path d="M36.2598 187.634C24.2714 187.634 11.7402 186.489 11.7402 184.282C11.7402 184.162 11.7819 183.948 11.9072 183.948C12.0265 183.948 11.9788 184.115 11.9788 184.234C11.9788 185.636 21.9512 187.192 36.2658 187.192C50.5803 187.192 60.5528 185.63 60.5528 184.234C60.5528 184.115 60.5706 184.001 60.6959 184.001C60.8211 184.001 60.7854 184.162 60.7854 184.282C60.7854 186.489 48.2482 187.634 36.2598 187.634Z" fill="url(#paint10_linear_1_1768)"/>
<path d="M33.9458 184.407C34.1844 184.24 34.4409 184.079 34.7152 183.912C34.9836 183.751 35.3415 183.602 35.7709 183.471C36.2004 183.339 36.7372 183.232 37.3873 183.148C38.0315 183.065 38.8426 183.023 39.8088 183.017C40.7572 183.011 41.6459 183.041 42.4749 183.107C43.304 183.172 44.0376 183.268 44.6698 183.399C45.302 183.53 45.815 183.685 46.2086 183.876C46.6023 184.067 46.8349 184.282 46.9124 184.526L49.6739 184.556C49.8767 184.556 50.0497 184.574 50.2048 184.604C50.3598 184.634 50.4314 184.675 50.4314 184.723V184.95L46.8826 184.914C46.7574 185.194 46.4412 185.445 45.9343 185.677C45.4273 185.91 44.7772 186.107 43.9899 186.28L42.6956 186.101C42.5823 186.083 42.4868 186.059 42.4093 186.035C42.3377 186.005 42.296 185.982 42.296 185.946C42.296 185.904 42.3974 185.85 42.5942 185.797C42.797 185.743 43.0177 185.671 43.2682 185.588C43.5187 185.504 43.7632 185.409 44.0078 185.296C44.2463 185.182 44.4074 185.051 44.4909 184.89L36.1169 184.807C35.8962 184.968 35.6517 185.129 35.3773 185.284C35.1029 185.439 34.7451 185.582 34.2918 185.707C33.8385 185.832 33.2778 185.934 32.6098 186.011C31.9358 186.089 31.0889 186.131 30.069 186.137C29.2996 186.143 28.554 186.113 27.8204 186.047C27.0868 185.988 26.4367 185.892 25.8701 185.767C25.3034 185.642 24.8382 185.493 24.4744 185.308C24.1106 185.123 23.9078 184.914 23.866 184.681L21.5936 184.657C21.3908 184.657 21.2178 184.64 21.0568 184.61C20.9017 184.58 20.8182 184.538 20.8182 184.49V184.264L23.9257 184.294C24.0628 184.055 24.3432 183.846 24.7726 183.667C25.202 183.488 25.7269 183.333 26.3472 183.19L27.385 183.333C27.7011 183.375 27.8562 183.429 27.8562 183.488C27.8562 183.518 27.7906 183.56 27.6594 183.608C27.5282 183.655 27.3731 183.715 27.1941 183.781C27.0152 183.846 26.8423 183.924 26.6752 184.013C26.5082 184.103 26.383 184.204 26.2995 184.318L33.9458 184.407ZM26.2816 184.717C26.3412 184.866 26.4844 184.991 26.6931 185.105C26.9019 185.212 27.1643 185.302 27.4804 185.373C27.7966 185.445 28.1485 185.493 28.5421 185.528C28.9358 185.558 29.3533 185.576 29.7827 185.576C30.2837 185.576 30.7251 185.552 31.1008 185.51C31.4706 185.469 31.7987 185.415 32.085 185.343C32.3653 185.272 32.6158 185.194 32.8245 185.099C33.0333 185.003 33.2242 184.908 33.3912 184.795L26.2816 184.717ZM44.5088 184.514C44.4491 184.365 44.2941 184.228 44.0555 184.115C43.8169 184.001 43.5127 183.906 43.1489 183.828C42.7791 183.751 42.3497 183.691 41.8606 183.655C41.3715 183.62 40.8347 183.602 40.2442 183.602C39.7194 183.602 39.2661 183.626 38.8903 183.673C38.5146 183.715 38.1865 183.775 37.9062 183.852C37.6318 183.93 37.3933 184.013 37.1964 184.115C36.9996 184.216 36.8207 184.323 36.6537 184.437L44.5088 184.514Z" fill="#FCB048"/>
<path d="M36.2658 181.395C25.3391 181.395 13.959 182.355 12.1399 184.216C12.2114 184.282 12.2771 184.353 12.3367 184.425C13.8696 183.131 23.2635 181.83 36.2599 181.83C49.5903 181.83 59.1333 183.202 60.2904 184.526C60.35 184.455 60.4097 184.383 60.4753 184.317C58.9782 182.391 47.3835 181.395 36.2658 181.395Z" fill="url(#paint11_linear_1_1768)"/>
<path d="M4.94083 178.526V183.96C4.94083 185.713 15.9153 187.139 29.4485 187.139C42.9817 187.139 53.9562 185.713 53.9562 183.96V178.526H4.94083Z" fill="url(#paint12_linear_1_1768)"/>
<path d="M53.9572 178.526C53.9572 180.28 42.9827 181.705 29.4495 181.705C15.9163 181.705 4.94183 180.28 4.94183 178.526C4.94183 176.773 15.9163 175.347 29.4495 175.347C42.9827 175.341 53.9572 176.767 53.9572 178.526Z" fill="url(#paint13_linear_1_1768)"/>
<path d="M29.4485 181.92C17.4601 181.92 4.92888 180.775 4.92888 178.568C4.92888 178.449 4.97063 178.234 5.09588 178.234C5.21517 178.234 5.16745 178.401 5.16745 178.52C5.16745 179.922 15.1399 181.479 29.4545 181.479C43.769 181.479 53.7414 179.916 53.7414 178.52C53.7414 178.401 53.7593 178.288 53.8846 178.288C54.0039 178.288 53.9741 178.449 53.9741 178.568C53.9681 180.781 41.4369 181.92 29.4485 181.92Z" fill="url(#paint14_linear_1_1768)"/>
<path d="M27.1344 178.699C27.373 178.532 27.6295 178.371 27.9038 178.204C28.1722 178.043 28.5301 177.894 28.9595 177.763C29.389 177.631 29.9258 177.524 30.5759 177.441C31.22 177.357 32.0312 177.315 32.9974 177.309C33.9458 177.303 34.8345 177.333 35.6635 177.399C36.4926 177.464 37.2262 177.56 37.8584 177.691C38.4906 177.822 39.0036 177.977 39.3972 178.168C39.7909 178.359 40.0235 178.574 40.101 178.818L42.8625 178.848C43.0653 178.848 43.2383 178.866 43.3934 178.896C43.5484 178.926 43.62 178.967 43.62 179.015V179.242L40.0712 179.206C39.946 179.486 39.6298 179.737 39.1229 179.969C38.6159 180.202 37.9658 180.399 37.1785 180.572L35.8842 180.393C35.7709 180.375 35.6754 180.351 35.5979 180.327C35.5204 180.298 35.4846 180.274 35.4846 180.238C35.4846 180.196 35.586 180.142 35.7828 180.089C35.9856 180.035 36.2063 179.963 36.4568 179.88C36.7073 179.796 36.9518 179.701 37.1964 179.588C37.4349 179.474 37.596 179.343 37.6795 179.182L29.3055 179.099C29.0848 179.26 28.8403 179.421 28.5659 179.576C28.2915 179.731 27.9337 179.874 27.4804 179.999C27.0271 180.125 26.4664 180.226 25.7984 180.303C25.1244 180.381 24.2775 180.423 23.2576 180.429C22.4882 180.435 21.7426 180.405 21.009 180.339C20.2754 180.28 19.6253 180.184 19.0586 180.059C18.492 179.934 18.0268 179.785 17.663 179.6C17.2992 179.415 17.0964 179.206 17.0546 178.973L14.7822 178.95C14.5794 178.95 14.4064 178.932 14.2454 178.902C14.0903 178.872 14.0068 178.83 14.0068 178.783V178.556L17.1143 178.586C17.2514 178.347 17.5318 178.138 17.9612 177.959C18.3906 177.781 18.9155 177.625 19.5358 177.488L20.5736 177.631C20.8897 177.673 21.0448 177.727 21.0448 177.786C21.0448 177.816 20.9792 177.858 20.848 177.906C20.7168 177.953 20.5617 178.013 20.3827 178.079C20.2038 178.144 20.0308 178.222 19.8638 178.311C19.6968 178.401 19.5716 178.502 19.4881 178.616L27.1344 178.699ZM19.4702 179.009C19.5298 179.158 19.673 179.284 19.8817 179.397C20.0905 179.504 20.3529 179.594 20.669 179.665C20.9851 179.737 21.337 179.785 21.7307 179.82C22.1243 179.85 22.5419 179.868 22.9713 179.868C23.4723 179.868 23.9137 179.844 24.2894 179.802C24.6592 179.761 24.9873 179.707 25.2735 179.635C25.5539 179.564 25.8044 179.486 26.0131 179.391C26.2219 179.295 26.4127 179.2 26.5797 179.087L19.4702 179.009ZM37.6974 178.806C37.6377 178.657 37.4827 178.52 37.2441 178.407C37.0055 178.293 36.7013 178.198 36.3375 178.121C35.9677 178.043 35.5383 177.983 35.0492 177.948C34.5601 177.912 34.0233 177.894 33.4328 177.894C32.908 177.894 32.4547 177.918 32.0789 177.965C31.7032 178.007 31.3751 178.067 31.0948 178.144C30.8204 178.222 30.5819 178.305 30.385 178.407C30.1882 178.508 30.0093 178.616 29.8423 178.729L37.6974 178.806Z" fill="#FCB048"/>
<path d="M29.4544 175.687C18.5277 175.687 7.14761 176.647 5.32848 178.508C5.40005 178.574 5.46566 178.645 5.5253 178.717C7.05815 177.423 16.4521 176.122 29.4485 176.122C42.7789 176.122 52.3219 177.494 53.479 178.818C53.5386 178.747 53.5983 178.675 53.6639 178.61C52.1668 176.683 40.5721 175.687 29.4544 175.687Z" fill="url(#paint15_linear_1_1768)"/>
<path d="M10.8217 172.83V178.264C10.8217 180.017 21.7961 181.443 35.3293 181.443C48.8626 181.443 59.837 180.017 59.837 178.264V172.83H10.8217Z" fill="url(#paint16_linear_1_1768)"/>
<path d="M59.8315 172.83C59.8315 174.584 48.857 176.009 35.3238 176.009C21.7906 176.009 10.8161 174.584 10.8161 172.83C10.8161 171.077 21.7906 169.651 35.3238 169.651C48.863 169.651 59.8315 171.077 59.8315 172.83Z" fill="url(#paint17_linear_1_1768)"/>
<path d="M35.3293 176.23C23.3409 176.23 10.8097 175.085 10.8097 172.878C10.8097 172.758 10.8515 172.544 10.9767 172.544C11.096 172.544 11.0483 172.711 11.0483 172.83C11.0483 174.232 21.0207 175.788 35.3353 175.788C49.6498 175.788 59.6223 174.226 59.6223 172.83C59.6223 172.711 59.6402 172.597 59.7654 172.597C59.8847 172.597 59.8549 172.758 59.8549 172.878C59.8489 175.085 47.3118 176.23 35.3293 176.23Z" fill="url(#paint18_linear_1_1768)"/>
<path d="M33.0092 173.009C33.2478 172.842 33.5043 172.681 33.7786 172.514C34.047 172.353 34.4049 172.204 34.8343 172.073C35.2638 171.941 35.8006 171.834 36.4507 171.751C37.0948 171.667 37.906 171.625 38.8722 171.619C39.8206 171.613 40.7093 171.643 41.5383 171.709C42.3674 171.774 43.101 171.87 43.7332 172.001C44.3654 172.132 44.8784 172.287 45.272 172.478C45.6657 172.669 45.8983 172.884 45.9758 173.128L48.7373 173.158C48.9401 173.158 49.1131 173.176 49.2682 173.206C49.4232 173.236 49.4948 173.277 49.4948 173.325V173.552L45.946 173.516C45.8207 173.796 45.5046 174.047 44.9977 174.279C44.4907 174.512 43.8406 174.709 43.0533 174.882L41.759 174.703C41.6457 174.685 41.5502 174.661 41.4727 174.637C41.3952 174.607 41.3594 174.584 41.3594 174.548C41.3594 174.506 41.4608 174.452 41.6576 174.399C41.8604 174.345 42.0811 174.273 42.3316 174.19C42.5821 174.106 42.8266 174.011 43.0712 173.898C43.3097 173.784 43.4708 173.653 43.5543 173.492L35.1803 173.409C34.9596 173.57 34.715 173.731 34.4407 173.886C34.1663 174.041 33.8085 174.184 33.3552 174.309C32.9019 174.435 32.3412 174.536 31.6732 174.613C30.9992 174.691 30.1523 174.733 29.1324 174.739C28.363 174.745 27.6174 174.715 26.8838 174.649C26.1502 174.59 25.5001 174.494 24.9334 174.369C24.3668 174.244 23.9016 174.095 23.5378 173.91C23.174 173.725 22.9712 173.516 22.9294 173.283L20.657 173.26C20.4542 173.26 20.2812 173.242 20.1202 173.212C19.9651 173.182 19.8816 173.14 19.8816 173.093V172.866L22.9891 172.896C23.1262 172.657 23.4066 172.448 23.836 172.269C24.2654 172.091 24.7903 171.935 25.4106 171.798L26.4484 171.941C26.7645 171.983 26.9196 172.037 26.9196 172.096C26.9196 172.126 26.854 172.168 26.7228 172.216C26.5915 172.263 26.4365 172.323 26.2575 172.389C26.0786 172.454 25.9056 172.532 25.7386 172.621C25.5716 172.711 25.4464 172.812 25.3629 172.926L33.0092 173.009ZM25.351 173.319C25.4106 173.468 25.5537 173.594 25.7625 173.707C25.9712 173.814 26.2337 173.904 26.5498 173.975C26.8659 174.047 27.2178 174.095 27.6115 174.13C28.0051 174.16 28.4226 174.178 28.852 174.178C29.3531 174.178 29.7944 174.154 30.1702 174.112C30.54 174.071 30.868 174.017 31.1543 173.945C31.4346 173.874 31.6851 173.796 31.8939 173.701C32.1026 173.605 32.2935 173.51 32.4605 173.397L25.351 173.319ZM43.5781 173.116C43.5185 172.967 43.3634 172.83 43.1248 172.717C42.8863 172.603 42.5821 172.508 42.2183 172.43C41.8485 172.353 41.419 172.293 40.9299 172.258C40.4409 172.222 39.9041 172.204 39.3136 172.204C38.7887 172.204 38.3354 172.228 37.9597 172.275C37.5839 172.317 37.2559 172.377 36.9756 172.454C36.7012 172.532 36.4626 172.615 36.2658 172.717C36.069 172.818 35.89 172.926 35.723 173.039L43.5781 173.116Z" fill="#FCB048"/>
<path d="M35.3294 169.997C24.4027 169.997 13.0226 170.957 11.2035 172.818C11.275 172.884 11.3406 172.955 11.4003 173.027C12.9331 171.733 22.3271 170.432 35.3235 170.432C48.6539 170.432 58.1969 171.804 59.354 173.128C59.4136 173.057 59.4733 172.985 59.5389 172.92C58.0418 170.993 46.453 169.997 35.3294 169.997Z" fill="url(#paint19_linear_1_1768)"/>
<path d="M14.3884 167.122V172.556C14.3884 174.309 25.3629 175.735 38.8961 175.735C52.4293 175.735 63.4038 174.309 63.4038 172.556V167.122H14.3884Z" fill="url(#paint20_linear_1_1768)"/>
<path d="M38.897 170.301C52.4322 170.301 63.4047 168.878 63.4047 167.122C63.4047 165.366 52.4322 163.943 38.897 163.943C25.3618 163.943 14.3893 165.366 14.3893 167.122C14.3893 168.878 25.3618 170.301 38.897 170.301Z" fill="url(#paint21_linear_1_1768)"/>
<path d="M38.8961 170.522C26.9076 170.522 14.3764 169.377 14.3764 167.17C14.3764 167.051 14.4182 166.836 14.5434 166.836C14.6627 166.836 14.615 167.003 14.615 167.122C14.615 168.524 24.5875 170.081 38.902 170.081C53.2166 170.081 63.189 168.518 63.189 167.122C63.189 167.003 63.2069 166.89 63.3322 166.89C63.4574 166.89 63.4216 167.051 63.4216 167.17C63.4157 169.377 50.8785 170.522 38.8961 170.522Z" fill="url(#paint22_linear_1_1768)"/>
<path d="M36.5759 167.301C36.8145 167.134 37.0709 166.973 37.3453 166.806C37.6137 166.645 37.9715 166.496 38.401 166.365C38.8304 166.233 39.3672 166.126 40.0173 166.043C40.6615 165.959 41.4726 165.917 42.4389 165.911C43.3872 165.905 44.2759 165.935 45.105 166.001C45.934 166.066 46.6676 166.162 47.2999 166.293C47.9321 166.424 48.445 166.579 48.8387 166.77C49.2323 166.961 49.4649 167.176 49.5425 167.42L52.304 167.45C52.5068 167.45 52.6797 167.468 52.8348 167.498C52.9899 167.528 53.0615 167.569 53.0615 167.617V167.844L49.5126 167.808C49.3874 168.088 49.0713 168.339 48.5643 168.571C48.0573 168.804 47.4072 169.001 46.6199 169.174L45.3256 168.995C45.2123 168.977 45.1169 168.953 45.0393 168.929C44.9678 168.899 44.926 168.876 44.926 168.84C44.926 168.798 45.0274 168.744 45.2242 168.691C45.427 168.637 45.6477 168.565 45.8982 168.482C46.1487 168.398 46.3933 168.303 46.6378 168.19C46.8764 168.076 47.0374 167.945 47.1209 167.784L38.7469 167.701C38.5262 167.862 38.2817 168.023 38.0073 168.178C37.733 168.333 37.3751 168.476 36.9218 168.601C36.4685 168.727 35.9079 168.828 35.2399 168.905C34.5659 168.983 33.7189 169.025 32.699 169.031C31.9296 169.037 31.1841 169.007 30.4504 168.941C29.7168 168.882 29.0667 168.786 28.5001 168.661C27.9335 168.536 27.4682 168.387 27.1044 168.202C26.7406 168.017 26.5378 167.808 26.4961 167.575L24.2236 167.552C24.0208 167.552 23.8479 167.534 23.6868 167.504C23.5318 167.474 23.4482 167.432 23.4482 167.385V167.158L26.5557 167.188C26.6929 166.949 26.9732 166.74 27.4026 166.561C27.8321 166.383 28.3569 166.227 28.9772 166.09L30.015 166.233C30.3312 166.275 30.4862 166.329 30.4862 166.388C30.4862 166.418 30.4206 166.46 30.2894 166.508C30.1582 166.555 30.0031 166.615 29.8242 166.681C29.6453 166.746 29.4723 166.824 29.3053 166.913C29.1383 167.003 29.013 167.104 28.9295 167.218L36.5759 167.301ZM28.9176 167.605C28.9772 167.754 29.1204 167.88 29.3291 167.993C29.5379 168.1 29.8003 168.19 30.1164 168.261C30.4326 168.333 30.7845 168.381 31.1781 168.416C31.5717 168.446 31.9893 168.464 32.4187 168.464C32.9197 168.464 33.3611 168.44 33.7368 168.398C34.1066 168.357 34.4347 168.303 34.721 168.231C35.0013 168.16 35.2518 168.082 35.4605 167.987C35.6693 167.892 35.8601 167.796 36.0272 167.683L28.9176 167.605ZM47.1448 167.402C47.0851 167.253 46.9301 167.116 46.6915 167.003C46.4529 166.889 46.1487 166.794 45.7849 166.717C45.4151 166.639 44.9857 166.579 44.4966 166.544C44.0075 166.508 43.4707 166.49 42.8802 166.49C42.3554 166.49 41.9021 166.514 41.5263 166.561C41.1506 166.603 40.8225 166.663 40.5422 166.74C40.2678 166.818 40.0293 166.901 39.8324 167.003C39.6356 167.104 39.4567 167.212 39.2897 167.325L47.1448 167.402Z" fill="#FCB048"/>
<path d="M38.8962 164.283C27.9694 164.283 16.5893 165.243 14.7702 167.104C14.8418 167.17 14.9074 167.241 14.967 167.313C16.4999 166.019 25.8938 164.718 38.8902 164.718C52.2206 164.718 61.7636 166.09 62.9207 167.414C62.9804 167.343 63.04 167.271 63.1056 167.206C61.6086 165.279 50.0197 164.283 38.8962 164.283Z" fill="url(#paint23_linear_1_1768)"/>
<path d="M11.7583 160.961V166.395C11.7583 168.148 22.7327 169.574 36.266 169.574C49.7992 169.574 60.7736 168.148 60.7736 166.395V160.961H11.7583Z" fill="url(#paint24_linear_1_1768)"/>
<path d="M60.7685 160.961C60.7685 162.715 49.794 164.14 36.2608 164.14C22.7276 164.14 11.7531 162.715 11.7531 160.961C11.7531 159.208 22.7276 157.782 36.2608 157.782C49.794 157.782 60.7685 159.208 60.7685 160.961Z" fill="url(#paint25_linear_1_1768)"/>
<path d="M36.2598 164.361C24.2714 164.361 11.7402 163.215 11.7402 161.009C11.7402 160.889 11.7819 160.675 11.9072 160.675C12.0265 160.675 11.9788 160.842 11.9788 160.961C11.9788 162.363 21.9512 163.919 36.2658 163.919C50.5803 163.919 60.5528 162.357 60.5528 160.961C60.5528 160.842 60.5706 160.728 60.6959 160.728C60.8211 160.728 60.7854 160.889 60.7854 161.009C60.7854 163.215 48.2482 164.361 36.2598 164.361Z" fill="url(#paint26_linear_1_1768)"/>
<path d="M33.9458 161.14C34.1844 160.973 34.4409 160.812 34.7152 160.645C34.9836 160.484 35.3415 160.335 35.7709 160.204C36.2004 160.072 36.7372 159.965 37.3873 159.881C38.0315 159.798 38.8426 159.756 39.8088 159.75C40.7572 159.744 41.6459 159.774 42.4749 159.84C43.304 159.905 44.0376 160.001 44.6698 160.132C45.302 160.263 45.815 160.418 46.2086 160.609C46.6023 160.8 46.8349 161.015 46.9124 161.259L49.6739 161.289C49.8767 161.289 50.0497 161.307 50.2048 161.337C50.3598 161.367 50.4314 161.408 50.4314 161.456V161.683L46.8826 161.647C46.7574 161.927 46.4412 162.178 45.9343 162.41C45.4273 162.643 44.7772 162.84 43.9899 163.013L42.6956 162.834C42.5823 162.816 42.4868 162.792 42.4093 162.768C42.3377 162.738 42.296 162.715 42.296 162.679C42.296 162.637 42.3974 162.583 42.5942 162.53C42.797 162.476 43.0177 162.404 43.2682 162.321C43.5187 162.237 43.7632 162.142 44.0078 162.029C44.2463 161.915 44.4074 161.784 44.4909 161.623L36.1169 161.54C35.8962 161.701 35.6517 161.862 35.3773 162.017C35.1029 162.172 34.7451 162.315 34.2918 162.44C33.8385 162.565 33.2778 162.667 32.6098 162.744C31.9358 162.822 31.0889 162.864 30.069 162.87C29.2996 162.876 28.554 162.846 27.8204 162.78C27.0868 162.721 26.4367 162.625 25.8701 162.5C25.3034 162.375 24.8382 162.225 24.4744 162.041C24.1106 161.856 23.9078 161.647 23.866 161.414L21.5936 161.39C21.3908 161.39 21.2178 161.373 21.0568 161.343C20.9017 161.313 20.8182 161.271 20.8182 161.223V160.997L23.9257 161.027C24.0628 160.788 24.3432 160.579 24.7726 160.4C25.202 160.221 25.7269 160.066 26.3472 159.923L27.385 160.066C27.7011 160.108 27.8562 160.162 27.8562 160.221C27.8562 160.251 27.7906 160.293 27.6594 160.341C27.5282 160.388 27.3731 160.448 27.1941 160.514C27.0152 160.579 26.8423 160.657 26.6752 160.746C26.5082 160.836 26.383 160.937 26.2995 161.05L33.9458 161.14ZM26.2816 161.45C26.3412 161.599 26.4844 161.724 26.6931 161.838C26.9019 161.945 27.1643 162.035 27.4804 162.106C27.7966 162.178 28.1485 162.225 28.5421 162.261C28.9358 162.291 29.3533 162.309 29.7827 162.309C30.2837 162.309 30.7251 162.285 31.1008 162.243C31.4706 162.202 31.7987 162.148 32.085 162.076C32.3653 162.005 32.6158 161.927 32.8245 161.832C33.0333 161.736 33.2242 161.641 33.3912 161.528L26.2816 161.45ZM44.5088 161.247C44.4491 161.098 44.2941 160.961 44.0555 160.848C43.8169 160.734 43.5127 160.639 43.1489 160.561C42.7791 160.484 42.3497 160.424 41.8606 160.388C41.3715 160.353 40.8347 160.335 40.2442 160.335C39.7194 160.335 39.2661 160.359 38.8903 160.406C38.5146 160.448 38.1865 160.508 37.9062 160.585C37.6318 160.663 37.3933 160.746 37.1964 160.848C36.9996 160.949 36.8207 161.056 36.6537 161.17L44.5088 161.247Z" fill="#FCB048"/>
<path d="M36.2658 158.128C25.3391 158.128 13.959 159.088 12.1399 160.949C12.2114 161.015 12.2771 161.086 12.3367 161.158C13.8696 159.864 23.2635 158.563 36.2599 158.563C49.5903 158.563 59.1333 159.935 60.2904 161.259C60.35 161.188 60.4097 161.116 60.4753 161.05C58.9782 159.124 47.3835 158.128 36.2658 158.128Z" fill="url(#paint27_linear_1_1768)"/>
<path d="M4.94083 155.253V160.687C4.94083 162.44 15.9153 163.866 29.4485 163.866C42.9817 163.866 53.9562 162.44 53.9562 160.687V155.253H4.94083Z" fill="url(#paint28_linear_1_1768)"/>
<path d="M29.4495 158.432C42.9847 158.432 53.9572 157.009 53.9572 155.253C53.9572 153.497 42.9847 152.074 29.4495 152.074C15.9143 152.074 4.94183 153.497 4.94183 155.253C4.94183 157.009 15.9143 158.432 29.4495 158.432Z" fill="url(#paint29_linear_1_1768)"/>
<path d="M29.4485 158.653C17.4601 158.653 4.92888 157.508 4.92888 155.301C4.92888 155.181 4.97063 154.967 5.09588 154.967C5.21517 154.967 5.16745 155.134 5.16745 155.253C5.16745 156.655 15.1399 158.211 29.4545 158.211C43.769 158.211 53.7414 156.649 53.7414 155.253C53.7414 155.134 53.7593 155.02 53.8846 155.02C54.0039 155.02 53.9741 155.181 53.9741 155.301C53.9681 157.508 41.4369 158.653 29.4485 158.653Z" fill="url(#paint30_linear_1_1768)"/>
<path d="M27.1344 155.426C27.373 155.259 27.6294 155.098 27.9038 154.931C28.1722 154.77 28.5301 154.621 28.9595 154.489C29.3889 154.358 29.9257 154.251 30.5759 154.167C31.22 154.084 32.0312 154.042 32.9974 154.036C33.9457 154.03 34.8344 154.06 35.6635 154.126C36.4925 154.191 37.2262 154.287 37.8584 154.418C38.4906 154.549 39.0035 154.704 39.3972 154.895C39.7908 155.086 40.0234 155.301 40.101 155.545L42.8625 155.575C43.0653 155.575 43.2383 155.593 43.3933 155.623C43.5484 155.653 43.62 155.694 43.62 155.742V155.969L40.0712 155.933C39.9459 156.213 39.6298 156.464 39.1228 156.696C38.6159 156.929 37.9657 157.126 37.1784 157.299L35.8842 157.12C35.7708 157.102 35.6754 157.078 35.5979 157.054C35.5203 157.024 35.4845 157 35.4845 156.965C35.4845 156.923 35.5859 156.869 35.7828 156.816C35.9856 156.762 36.2062 156.69 36.4567 156.607C36.7072 156.523 36.9518 156.428 37.1963 156.315C37.4349 156.201 37.5959 156.07 37.6794 155.909L29.3114 155.837C29.0907 155.998 28.8462 156.16 28.5718 156.315C28.2975 156.47 27.9396 156.613 27.4863 156.738C27.033 156.863 26.4724 156.965 25.8043 157.042C25.1304 157.12 24.2834 157.162 23.2635 157.168C22.4941 157.173 21.7486 157.144 21.0149 157.078C20.2813 157.018 19.6312 156.923 19.0646 156.798C18.498 156.672 18.0327 156.523 17.6689 156.338C17.3051 156.154 17.1023 155.945 17.0605 155.712L14.7881 155.688C14.5853 155.688 14.4124 155.67 14.2513 155.641C14.0962 155.611 14.0127 155.569 14.0127 155.521V155.295L17.1202 155.325C17.2574 155.086 17.5377 154.877 17.9671 154.698C18.3966 154.519 18.9214 154.364 19.5417 154.227L20.5795 154.37C20.8956 154.412 21.0507 154.466 21.0507 154.525C21.0507 154.555 20.9851 154.597 20.8539 154.645C20.7227 154.692 20.5676 154.752 20.3887 154.818C20.2097 154.883 20.0368 154.961 19.8698 155.05C19.7028 155.14 19.5775 155.241 19.494 155.354L27.1344 155.426ZM19.4702 155.736C19.5298 155.885 19.6729 156.01 19.8817 156.124C20.0905 156.231 20.3529 156.321 20.669 156.392C20.9851 156.464 21.337 156.511 21.7307 156.547C22.1243 156.577 22.5418 156.595 22.9713 156.595C23.4723 156.595 23.9136 156.571 24.2894 156.529C24.6592 156.488 24.9872 156.434 25.2735 156.362C25.5538 156.291 25.8043 156.213 26.0131 156.118C26.2218 156.022 26.4127 155.927 26.5797 155.814L19.4702 155.736ZM37.6973 155.533C37.6377 155.384 37.4826 155.253 37.244 155.134C37.0055 155.02 36.7013 154.925 36.3375 154.847C35.9677 154.77 35.5382 154.71 35.0491 154.674C34.5601 154.639 34.0233 154.621 33.4328 154.621C32.9079 154.621 32.4546 154.645 32.0789 154.692C31.7031 154.734 31.3751 154.794 31.0948 154.871C30.8204 154.949 30.5818 155.032 30.385 155.134C30.1882 155.235 30.0092 155.342 29.8422 155.456L37.6973 155.533Z" fill="#FCB048"/>
<path d="M29.4544 152.414C18.5277 152.414 7.14761 153.374 5.32848 155.235C5.40005 155.301 5.46566 155.372 5.5253 155.444C7.05815 154.149 16.4521 152.849 29.4485 152.849C42.7789 152.849 52.3219 154.221 53.479 155.545C53.5386 155.474 53.5983 155.402 53.6639 155.336C52.1668 153.41 40.5721 152.414 29.4544 152.414Z" fill="url(#paint31_linear_1_1768)"/>
<path d="M10.8217 149.557V154.991C10.8217 156.744 21.7961 158.17 35.3293 158.17C48.8626 158.17 59.837 156.744 59.837 154.991V149.557H10.8217Z" fill="url(#paint32_linear_1_1768)"/>
<path d="M35.3295 152.736C48.8648 152.736 59.8372 151.313 59.8372 149.557C59.8372 147.801 48.8648 146.378 35.3295 146.378C21.7943 146.378 10.8219 147.801 10.8219 149.557C10.8219 151.313 21.7943 152.736 35.3295 152.736Z" fill="url(#paint33_linear_1_1768)"/>
<path d="M35.3293 152.957C23.3409 152.957 10.8097 151.811 10.8097 149.605C10.8097 149.485 10.8515 149.271 10.9767 149.271C11.096 149.271 11.0483 149.438 11.0483 149.557C11.0483 150.958 21.0207 152.515 35.3353 152.515C49.6498 152.515 59.6223 150.953 59.6223 149.557C59.6223 149.438 59.6402 149.324 59.7654 149.324C59.8847 149.324 59.8549 149.485 59.8549 149.605C59.8489 151.817 47.3118 152.957 35.3293 152.957Z" fill="url(#paint34_linear_1_1768)"/>
<path d="M33.0092 149.736C33.2478 149.569 33.5043 149.408 33.7786 149.241C34.047 149.08 34.4049 148.931 34.8343 148.8C35.2638 148.668 35.8006 148.561 36.4507 148.477C37.0948 148.394 37.906 148.352 38.8722 148.346C39.8206 148.34 40.7093 148.37 41.5383 148.436C42.3674 148.501 43.101 148.597 43.7332 148.728C44.3654 148.859 44.8784 149.014 45.272 149.205C45.6657 149.396 45.8983 149.611 45.9758 149.855L48.7373 149.885C48.9401 149.885 49.1131 149.903 49.2682 149.933C49.4232 149.963 49.4948 150.004 49.4948 150.052V150.279L45.946 150.243C45.8207 150.523 45.5046 150.774 44.9977 151.006C44.4907 151.239 43.8406 151.436 43.0533 151.609L41.759 151.43C41.6457 151.412 41.5502 151.388 41.4727 151.364C41.3952 151.334 41.3594 151.311 41.3594 151.275C41.3594 151.233 41.4608 151.179 41.6576 151.126C41.8604 151.072 42.0811 151 42.3316 150.917C42.5821 150.833 42.8266 150.738 43.0712 150.625C43.3097 150.511 43.4708 150.38 43.5543 150.219L35.1803 150.136C34.9596 150.297 34.715 150.458 34.4407 150.613C34.1663 150.768 33.8085 150.911 33.3552 151.036C32.9019 151.161 32.3412 151.263 31.6732 151.34C30.9992 151.418 30.1523 151.46 29.1324 151.466C28.363 151.472 27.6174 151.442 26.8838 151.376C26.1502 151.316 25.5001 151.221 24.9334 151.096C24.3668 150.971 23.9016 150.821 23.5378 150.637C23.174 150.452 22.9712 150.243 22.9294 150.01L20.657 149.986C20.4542 149.986 20.2812 149.969 20.1202 149.939C19.9651 149.909 19.8816 149.867 19.8816 149.819V149.593L22.9891 149.623C23.1262 149.384 23.4066 149.175 23.836 148.996C24.2654 148.817 24.7903 148.662 25.4106 148.525L26.4484 148.668C26.7645 148.71 26.9196 148.764 26.9196 148.823C26.9196 148.853 26.854 148.895 26.7228 148.943C26.5915 148.99 26.4365 149.05 26.2575 149.116C26.0786 149.181 25.9056 149.259 25.7386 149.348C25.5716 149.438 25.4464 149.539 25.3629 149.652L33.0092 149.736ZM25.351 150.046C25.4106 150.195 25.5537 150.32 25.7625 150.434C25.9712 150.541 26.2337 150.631 26.5498 150.702C26.8659 150.774 27.2178 150.821 27.6115 150.857C28.0051 150.887 28.4226 150.905 28.852 150.905C29.3531 150.905 29.7944 150.881 30.1702 150.839C30.54 150.798 30.868 150.744 31.1543 150.672C31.4346 150.601 31.6851 150.523 31.8939 150.428C32.1026 150.332 32.2935 150.237 32.4605 150.124L25.351 150.046ZM43.5781 149.843C43.5185 149.694 43.3634 149.557 43.1248 149.444C42.8863 149.33 42.5821 149.235 42.2183 149.157C41.8485 149.08 41.419 149.02 40.9299 148.984C40.4409 148.949 39.9041 148.931 39.3136 148.931C38.7887 148.931 38.3354 148.955 37.9597 149.002C37.5839 149.044 37.2559 149.104 36.9756 149.181C36.7012 149.259 36.4626 149.342 36.2658 149.444C36.069 149.545 35.89 149.652 35.723 149.766L43.5781 149.843Z" fill="#FCB048"/>
<path d="M35.3294 146.724C24.4027 146.724 13.0226 147.684 11.2035 149.545C11.275 149.611 11.3406 149.682 11.4003 149.754C12.9331 148.459 22.3271 147.159 35.3235 147.159C48.6539 147.159 58.1969 148.531 59.354 149.855C59.4136 149.784 59.4733 149.712 59.5389 149.646C58.0418 147.72 46.453 146.724 35.3294 146.724Z" fill="url(#paint35_linear_1_1768)"/>
<path d="M7.76202 143.849V149.283C7.76202 151.036 18.7365 152.462 32.2697 152.462C45.8029 152.462 56.7774 151.036 56.7774 149.283V143.849H7.76202Z" fill="url(#paint36_linear_1_1768)"/>
<path d="M32.2698 147.028C45.805 147.028 56.7775 145.605 56.7775 143.849C56.7775 142.093 45.805 140.67 32.2698 140.67C18.7346 140.67 7.76212 142.093 7.76212 143.849C7.76212 145.605 18.7346 147.028 32.2698 147.028Z" fill="url(#paint37_linear_1_1768)"/>
<path d="M32.2697 147.249C20.2812 147.249 7.75006 146.104 7.75006 143.897C7.75006 143.778 7.79181 143.563 7.91706 143.563C8.03635 143.563 7.98864 143.73 7.98864 143.849C7.98864 145.251 17.9611 146.808 32.2756 146.808C46.5902 146.808 56.5626 145.245 56.5626 143.849C56.5626 143.73 56.5805 143.617 56.7058 143.617C56.8251 143.617 56.7952 143.778 56.7952 143.897C56.7893 146.104 44.2581 147.249 32.2697 147.249Z" fill="url(#paint38_linear_1_1768)"/>
<path d="M29.9553 144.028C30.1939 143.861 30.4504 143.7 30.7247 143.533C30.9931 143.372 31.351 143.223 31.7804 143.092C32.2099 142.96 32.7467 142.853 33.3968 142.77C34.0409 142.686 34.8521 142.644 35.8183 142.638C36.7667 142.632 37.6554 142.662 38.4844 142.728C39.3135 142.793 40.0471 142.889 40.6793 143.02C41.3115 143.151 41.8245 143.306 42.2181 143.497C42.6118 143.688 42.8444 143.903 42.9219 144.147L45.6834 144.177C45.8862 144.177 46.0592 144.195 46.2143 144.225C46.3693 144.255 46.4409 144.296 46.4409 144.344V144.571L42.8921 144.535C42.7668 144.815 42.4507 145.066 41.9438 145.298C41.4368 145.531 40.7867 145.728 39.9994 145.901L38.7051 145.722C38.5918 145.704 38.4963 145.68 38.4188 145.656C38.3413 145.626 38.3055 145.597 38.3055 145.567C38.3055 145.525 38.4069 145.471 38.6037 145.418C38.8065 145.364 39.0272 145.292 39.2777 145.209C39.5282 145.125 39.7727 145.03 40.0173 144.917C40.2558 144.803 40.4169 144.672 40.5004 144.511L32.1264 144.428C31.9057 144.589 31.6611 144.75 31.3868 144.905C31.1124 145.06 30.7545 145.203 30.3013 145.328C29.848 145.454 29.2873 145.555 28.6193 145.632C27.9453 145.71 27.0984 145.752 26.0785 145.758C25.3091 145.764 24.5635 145.734 23.8299 145.668C23.0963 145.609 22.4462 145.513 21.8795 145.388C21.3129 145.263 20.8477 145.114 20.4839 144.929C20.12 144.744 19.9173 144.535 19.8755 144.302L17.6031 144.279C17.4003 144.279 17.2273 144.261 17.0663 144.231C16.9112 144.201 16.8277 144.159 16.8277 144.112V143.885L19.9351 143.915C20.0723 143.676 20.3527 143.467 20.7821 143.288C21.2115 143.11 21.7364 142.954 22.3567 142.811L23.3945 142.954C23.7106 142.996 23.8657 143.05 23.8657 143.11C23.8657 143.139 23.8001 143.181 23.6689 143.229C23.5376 143.277 23.3826 143.336 23.2036 143.402C23.0247 143.467 22.8517 143.545 22.6847 143.634C22.5177 143.724 22.3925 143.825 22.309 143.939L29.9553 144.028ZM22.2911 144.338C22.3507 144.487 22.4939 144.613 22.7026 144.726C22.9114 144.833 23.1738 144.923 23.4899 144.994C23.806 145.066 24.1579 145.114 24.5516 145.149C24.9452 145.179 25.3627 145.197 25.7922 145.197C26.2932 145.197 26.7346 145.173 27.1103 145.131C27.4801 145.09 27.8081 145.036 28.0944 144.964C28.3748 144.893 28.6253 144.815 28.834 144.72C29.0428 144.624 29.2336 144.529 29.4006 144.416L22.2911 144.338ZM40.5183 144.135C40.4586 143.986 40.3035 143.849 40.065 143.736C39.8264 143.622 39.5222 143.527 39.1584 143.449C38.7886 143.372 38.3592 143.312 37.8701 143.277C37.381 143.241 36.8442 143.223 36.2537 143.223C35.7289 143.223 35.2756 143.247 34.8998 143.294C34.524 143.336 34.196 143.396 33.9157 143.473C33.6413 143.551 33.4027 143.634 33.2059 143.736C33.0091 143.837 32.8302 143.945 32.6632 144.058L40.5183 144.135Z" fill="#FCB048"/>
<path d="M32.2756 141.016C21.3489 141.016 9.9688 141.976 8.14966 143.837C8.22123 143.903 8.28684 143.974 8.34648 144.046C9.87933 142.752 19.2732 141.451 32.2696 141.451C45.6001 141.451 55.1431 142.823 56.3002 144.147C56.3598 144.076 56.4195 144.004 56.4851 143.938C54.988 142.012 43.3932 141.016 32.2756 141.016Z" fill="url(#paint39_linear_1_1768)"/>
<path d="M63.7498 147.684L59.3183 150.834C57.8868 151.853 63.0878 161.617 70.931 172.645C78.7741 183.673 86.2952 191.791 87.7267 190.771L92.1582 187.622L63.7498 147.684Z" fill="url(#paint40_linear_1_1768)"/>
<path d="M92.1582 187.622C90.7267 188.642 83.2056 180.524 75.3625 169.496C67.5193 158.468 62.3183 148.698 63.7498 147.684C65.1813 146.664 72.7024 154.782 80.5455 165.81C88.3887 176.838 93.5897 186.602 92.1582 187.622Z" fill="url(#paint41_linear_1_1768)"/>
<path d="M75.1834 169.621C68.2349 159.852 61.9007 148.979 63.702 147.696C63.8033 147.625 64.0002 147.535 64.0718 147.637C64.1433 147.738 63.9763 147.792 63.8749 147.857C62.7357 148.668 67.2448 157.699 75.5413 169.365C83.8377 181.025 90.8876 188.254 92.0328 187.437C92.1342 187.365 92.2356 187.318 92.3072 187.419C92.3787 187.52 92.2296 187.586 92.1282 187.658C90.327 188.94 82.1319 179.391 75.1834 169.621Z" fill="url(#paint42_linear_1_1768)"/>
<path d="M76.4659 165.87C76.7403 165.971 77.0206 166.084 77.3129 166.21C77.5992 166.335 77.9272 166.538 78.2791 166.812C78.637 167.087 79.0366 167.462 79.4779 167.945C79.9193 168.423 80.4263 169.061 80.9869 169.842C81.5416 170.611 82.0307 171.351 82.4601 172.067C82.8896 172.783 83.2355 173.433 83.492 174.023C83.7544 174.614 83.9214 175.121 83.993 175.556C84.0646 175.985 84.0228 176.301 83.8677 176.51L85.4423 178.777C85.5556 178.938 85.6451 179.093 85.7107 179.236C85.7763 179.379 85.7883 179.463 85.7465 179.492L85.5616 179.624L83.5337 176.713C83.2355 176.773 82.8419 176.659 82.3587 176.379C81.8756 176.099 81.3388 175.687 80.7424 175.144L80.14 173.987C80.0863 173.88 80.0505 173.79 80.0326 173.713C80.0088 173.635 80.0147 173.588 80.0386 173.57C80.0744 173.546 80.1698 173.6 80.3368 173.725C80.4978 173.856 80.6887 173.999 80.8975 174.154C81.1122 174.309 81.3329 174.453 81.5655 174.59C81.7981 174.721 82.0009 174.775 82.1738 174.751L77.3904 167.88C77.1339 167.796 76.8596 167.683 76.5733 167.552C76.287 167.421 75.9649 167.206 75.6011 166.914C75.2373 166.621 74.8317 166.222 74.3784 165.715C73.9251 165.208 73.4002 164.546 72.8038 163.717C72.3564 163.096 71.9449 162.47 71.5751 161.838C71.1994 161.206 70.9011 160.621 70.6745 160.09C70.4478 159.553 70.2987 159.088 70.2391 158.683C70.1794 158.283 70.2272 157.997 70.4001 157.824L69.0939 155.957C68.9806 155.796 68.8911 155.641 68.8196 155.492C68.754 155.349 68.742 155.259 68.7838 155.229L68.9687 155.098L70.7461 157.645C71.0204 157.621 71.3544 157.728 71.7481 157.973C72.1417 158.223 72.5771 158.557 73.0483 158.981L73.5374 159.911C73.6865 160.192 73.7342 160.353 73.6865 160.388C73.6627 160.406 73.5911 160.377 73.4778 160.299C73.3644 160.216 73.2273 160.126 73.0662 160.019C72.9111 159.911 72.7441 159.816 72.5771 159.732C72.4042 159.649 72.2491 159.601 72.1119 159.601L76.4659 165.87ZM71.7719 159.804C71.6884 159.941 71.6646 160.126 71.6944 160.365C71.7302 160.597 71.8077 160.866 71.933 161.164C72.0582 161.462 72.2252 161.778 72.4221 162.118C72.6249 162.458 72.8515 162.804 73.102 163.156C73.3943 163.562 73.6686 163.907 73.9191 164.194C74.1696 164.474 74.4022 164.707 74.6229 164.898C74.8436 165.088 75.0524 165.244 75.2492 165.357C75.446 165.476 75.6369 165.566 75.8218 165.643L71.7719 159.804ZM82.5019 174.536C82.5913 174.399 82.6092 174.196 82.5615 173.94C82.5138 173.683 82.4184 173.379 82.2693 173.033C82.1202 172.687 81.9174 172.305 81.6669 171.882C81.4164 171.464 81.1181 171.011 80.7722 170.534C80.468 170.11 80.1817 169.753 79.9312 169.472C79.6748 169.192 79.4362 168.959 79.2155 168.774C78.9948 168.59 78.7861 168.446 78.5952 168.351C78.3984 168.25 78.2075 168.166 78.0226 168.094L82.5019 174.536Z" fill="#FCB048"/>
<path d="M80.2652 166.013C73.931 157.108 66.553 148.394 63.9824 147.988C63.9705 148.084 63.9526 148.179 63.9287 148.275C65.8731 148.776 72.3743 155.677 79.9073 166.269C87.6312 177.13 92.0508 185.701 91.6452 187.413C91.7347 187.419 91.8301 187.425 91.9196 187.443C92.6174 185.093 86.7127 175.073 80.2652 166.013Z" fill="url(#paint43_linear_1_1768)"/>
<path d="M157.865 117.445C158.28 117.11 158.83 116.568 159.141 115.762C159.475 114.894 159.244 114.511 159.667 113.969C160.201 113.283 161.301 112.988 162.058 113.323C162.218 113.395 162.409 113.49 162.529 113.698C162.863 114.264 162.122 115.244 161.524 115.762C161.078 116.153 160.894 116.129 160.416 116.456C159.954 116.783 159.372 117.341 158.901 118.377L157.865 117.445Z" fill="url(#paint44_linear_1_1768)"/>
<path d="M182.705 112.701C182.195 112.558 181.478 112.271 180.872 111.649C180.226 110.979 180.29 110.533 179.692 110.198C178.927 109.776 177.803 109.935 177.245 110.533C177.125 110.661 176.99 110.828 176.958 111.067C176.87 111.721 177.938 112.327 178.688 112.582C179.254 112.765 179.413 112.669 179.979 112.797C180.529 112.917 181.286 113.204 182.116 113.977L182.705 112.701Z" fill="url(#paint45_linear_1_1768)"/>
<path d="M180.33 113.507C180.003 115.077 181.701 116.472 182.921 117.843C185.376 120.593 187.951 125.504 187.002 129.721C186.484 132.025 184.834 134.512 182.498 135.692C179.987 136.96 178.48 135.804 175.866 137.318C175.674 137.43 172.366 139.391 172.27 142.03C172.151 145.29 176.95 148.766 181.055 149.029C188.565 149.515 197.613 139.527 197.19 129.618C196.728 118.832 185.137 110.27 181.805 111.721C181.294 111.952 180.521 112.622 180.33 113.507Z" fill="url(#paint46_linear_1_1768)"/>
<path d="M176.99 225.208L176.719 227.942L177.994 227.711L178.847 225.144L176.99 225.208Z" fill="url(#paint47_linear_1_1768)"/>
<path d="M184.746 174.714C184.611 179.569 184.005 183.722 183.295 187.11C182.522 190.762 182.076 191.391 181.836 193.91C181.31 199.395 183.08 200.184 183.407 206.386C183.766 213.234 181.948 218.679 181.231 220.76C180.601 222.577 179.947 224.044 179.453 225.056C178.823 225.606 177.866 225.391 176.854 225.184C176.479 218.974 176.017 213.123 175.642 206.913C174.439 197.57 173.235 188.219 172.031 178.876C176.264 177.488 180.505 176.101 184.746 174.714Z" fill="url(#paint48_linear_1_1768)"/>
<path opacity="0.3" d="M176.846 225.192C176.471 218.982 176.009 213.131 175.634 206.921C174.431 197.578 173.227 188.227 172.023 178.884C176.264 177.497 180.505 176.109 184.746 174.722C184.738 175.041 184.722 175.352 184.706 175.671C178.759 180.837 177.595 184.926 177.651 187.716C177.723 191.104 179.572 192.779 179.214 197.689C178.959 201.197 177.898 201.819 177.898 204.983C177.898 209.065 179.652 211.353 180.505 213.713C181.326 215.993 181.621 219.213 180.027 223.805C179.82 224.275 179.62 224.706 179.445 225.065C178.823 225.607 177.858 225.391 176.846 225.192Z" fill="url(#paint49_linear_1_1768)"/>
<path d="M177.468 228.875C178.074 228.126 178.624 228.181 178.728 227.679C178.807 227.281 178.552 226.802 178.186 226.627C177.667 226.38 177.054 226.794 176.91 226.89C175.969 227.536 176.248 228.5 175.356 228.939C175.172 229.026 174.893 229.122 174.59 229.417C174.463 229.537 174.152 229.847 174.231 230.047C174.319 230.286 174.893 230.262 175.435 230.246C176.081 230.222 176.408 230.214 176.719 230.007C177.141 229.728 177.006 229.449 177.468 228.875Z" fill="url(#paint50_linear_1_1768)"/>
<path d="M176.193 205.494L178.568 206.426L179.262 205.334L177.404 204.083L176.193 205.494Z" fill="url(#paint51_linear_1_1768)"/>
<path d="M179.82 207.008C179.676 206.06 180.099 205.693 179.788 205.27C179.549 204.943 179.022 204.8 178.64 204.951C178.106 205.167 177.994 205.9 177.97 206.067C177.803 207.199 178.704 207.646 178.425 208.603C178.369 208.794 178.241 209.073 178.257 209.487C178.265 209.663 178.273 210.101 178.48 210.181C178.72 210.277 179.086 209.846 179.437 209.432C179.859 208.937 180.075 208.69 180.131 208.332C180.226 207.821 179.931 207.734 179.82 207.008Z" fill="url(#paint52_linear_1_1768)"/>
<path d="M165.893 170.394C161.46 179.434 159.954 186.975 159.38 191.902C159.013 195.066 159.053 197.027 159.962 198.997C163.23 206.036 174.622 206.506 176.352 206.554C176.918 205.39 177.492 204.218 178.058 203.054C177.014 201.109 175.18 198.407 172.047 196.438C169.64 194.923 168.699 195.25 168.093 194.229C165.678 190.148 178.704 181.299 176.758 175.408C176.089 173.375 173.498 171.302 165.893 170.394Z" fill="url(#paint53_linear_1_1768)"/>
<path d="M175.499 137.892C170.708 138.713 167.057 139.574 165.43 142.086C163.708 144.74 166.443 146.733 167.192 152.545C168.332 161.449 163.214 164.773 164.681 173.742C164.92 175.209 165.287 176.508 165.678 177.616C166.371 179.569 167.71 181.219 169.464 182.319C170.779 183.149 172.382 183.978 174.263 184.639C179.126 186.337 181.518 185.349 188.054 185.723C198.745 186.337 200.347 189.438 205.178 187.525C210.057 185.596 213.596 180.39 212.56 178.166C211.938 176.835 209.985 177.664 207.179 176.03C203.56 173.917 204.174 171.039 201.24 168.576C197.023 165.029 192.973 168.608 189.37 165.531C185.727 162.414 185.288 154.825 186.835 150.305C187.847 147.355 187.863 144.15 188.62 141.121C188.684 140.866 188.732 140.467 188.573 140.013C187.975 138.275 184.794 137.94 182.386 137.709C178.711 137.358 175.889 137.821 175.499 137.892Z" fill="url(#paint54_linear_1_1768)"/>
<path opacity="0.3" d="M204.62 184.153C203.137 183.164 203.942 180.366 201.75 178.884C199.717 177.504 198.131 179.306 195.126 178.389C191.275 177.209 191.482 173.503 187.791 172.323C185.137 171.47 184.34 173.168 180.513 173.239C176.695 173.311 171.688 171.741 168.524 167.691C167.176 165.969 166.427 164.136 166.012 162.438C164.992 165.738 163.884 168.927 164.673 173.734C164.992 175.679 165.534 177.345 166.068 178.652C166.562 179.872 167.407 180.924 168.484 181.674C169.958 182.702 171.88 183.802 174.247 184.631C179.11 186.329 181.502 185.341 188.039 185.715C198.729 186.329 200.331 189.43 205.162 187.517C208.279 186.281 210.846 183.714 212.026 181.435C207.817 184.528 205.696 184.87 204.62 184.153Z" fill="url(#paint55_linear_1_1768)"/>
<path d="M172.733 129.602C172.733 129.602 171.409 132.081 171.33 133.819C171.25 135.557 173.211 135.429 173.211 135.429L173.139 136.529C173.075 137.47 172.47 138.275 171.585 138.602L170.811 138.889C170.811 138.889 175.866 139.973 178.632 138.02L177.835 137.94C176.711 137.829 175.818 136.944 175.698 135.812L175.65 135.341C175.642 135.341 176.519 129.92 172.733 129.602Z" fill="url(#paint56_linear_1_1768)"/>
<path d="M160.281 117.939C161.03 119.358 159.786 121.168 158.989 122.826C157.387 126.15 156.271 131.579 158.335 135.365C159.467 137.438 161.739 139.375 164.314 139.861C167.081 140.388 168.205 138.865 171.138 139.59C171.353 139.646 175.068 140.619 175.889 143.13C176.902 146.231 173.251 150.894 169.376 152.282C162.289 154.817 150.842 147.714 148.514 138.076C145.979 127.577 154.764 116.153 158.367 116.632C158.933 116.711 159.858 117.142 160.281 117.939Z" fill="url(#paint57_linear_1_1768)"/>
<path d="M173.522 132.065C173.785 132.041 174 131.714 174.176 131.81C174.367 131.913 174.343 132.4 174.176 132.735C174.04 133.014 173.825 133.173 173.705 133.245C173.904 133.524 174.168 133.954 174.271 134.528C174.51 135.788 173.841 136.792 173.562 137.39C172.31 140.053 174.255 144.27 176.392 146.398C178.13 148.128 178.943 147.435 179.979 148.846C181.996 151.596 179.214 154.617 180.258 158.324C181.844 163.952 190.733 165.626 191.1 165.69C191.243 165.714 191.339 165.73 191.49 165.754C195.476 166.384 201.519 167.348 205.776 164.072C208.957 161.624 210.423 157.36 210.176 153.605C210.113 152.616 209.818 148.87 206.756 145.808C206.27 145.322 203.4 142.452 199.526 142.42C197.469 142.404 197.055 143.122 195.484 142.675C193.332 142.062 192.009 140.108 191.187 138.897C189.673 136.665 190.287 136.186 189.202 135.094C187.074 132.942 184.571 134.632 182.291 132.735C180.051 130.861 181.398 128.326 179.238 126.708C177.006 125.042 172.733 125.624 171.816 127.609C171.051 129.323 172.717 132.129 173.522 132.065Z" fill="url(#paint58_linear_1_1768)"/>
</g>
<defs>
<linearGradient id="paint0_linear_1_1768" x1="202.888" y1="100.557" x2="38.2819" y2="206.513" gradientUnits="userSpaceOnUse">
<stop offset="0.00359712" stop-color="#E38DDD"/>
<stop offset="1" stop-color="#9571F6"/>
</linearGradient>
<linearGradient id="paint1_linear_1_1768" x1="179.656" y1="31.7297" x2="156.994" y2="154.518" gradientUnits="userSpaceOnUse">
<stop stop-color="#FF9085"/>
<stop offset="1" stop-color="#FB6FBB"/>
</linearGradient>
<linearGradient id="paint2_linear_1_1768" x1="49.6523" y1="203.271" x2="163.537" y2="-14.4373" gradientUnits="userSpaceOnUse">
<stop stop-color="#444B8C"/>
<stop offset="0.9964" stop-color="#26264F"/>
</linearGradient>
<linearGradient id="paint3_linear_1_1768" x1="-20.0709" y1="345.631" x2="93.8143" y2="127.923" gradientUnits="userSpaceOnUse">
<stop stop-color="#AA80F9"/>
<stop offset="0.9964" stop-color="#6165D7"/>
</linearGradient>
<linearGradient id="paint4_linear_1_1768" x1="147.6" y1="57.3794" x2="-50.6241" y2="276.661" gradientUnits="userSpaceOnUse">
<stop stop-color="#AA80F9"/>
<stop offset="0.9964" stop-color="#6165D7"/>
</linearGradient>
<linearGradient id="paint5_linear_1_1768" x1="32.0655" y1="103.532" x2="151.856" y2="103.532" gradientUnits="userSpaceOnUse">
<stop stop-color="#AA80F9"/>
<stop offset="0.9964" stop-color="#6165D7"/>
</linearGradient>
<linearGradient id="paint6_linear_1_1768" x1="45.8134" y1="109.811" x2="122.722" y2="4.40739" gradientUnits="userSpaceOnUse">
<stop stop-color="#FCB148"/>
<stop offset="0.0520724" stop-color="#FDBA46"/>
<stop offset="0.1424" stop-color="#FFC244"/>
<stop offset="0.3183" stop-color="#FFC444"/>
<stop offset="0.4849" stop-color="#FDB946"/>
<stop offset="0.7754" stop-color="#F99C4D"/>
<stop offset="0.8658" stop-color="#F8924F"/>
<stop offset="1" stop-color="#F8924F"/>
</linearGradient>
<linearGradient id="paint7_linear_1_1768" x1="108.316" y1="59.1335" x2="136.746" y2="20.1695" gradientUnits="userSpaceOnUse">
<stop stop-color="#FCB148"/>
<stop offset="0.0520724" stop-color="#FDBA46"/>
<stop offset="0.1424" stop-color="#FFC244"/>
<stop offset="0.3183" stop-color="#FFC444"/>
<stop offset="0.4849" stop-color="#FDB946"/>
<stop offset="0.7754" stop-color="#F99C4D"/>
<stop offset="0.8658" stop-color="#F8924F"/>
<stop offset="1" stop-color="#F8924F"/>
</linearGradient>
<linearGradient id="paint8_linear_1_1768" x1="7.56545" y1="188.541" x2="63.9519" y2="188.541" gradientUnits="userSpaceOnUse">
<stop stop-color="#FCB148"/>
<stop offset="0.0520724" stop-color="#FDBA46"/>
<stop offset="0.1424" stop-color="#FFC244"/>
<stop offset="0.3183" stop-color="#FFC444"/>
<stop offset="0.4849" stop-color="#FDB946"/>
<stop offset="0.7754" stop-color="#F99C4D"/>
<stop offset="0.8658" stop-color="#F8924F"/>
<stop offset="1" stop-color="#F8924F"/>
</linearGradient>
<linearGradient id="paint9_linear_1_1768" x1="36.0186" y1="182.189" x2="38.9913" y2="207.074" gradientUnits="userSpaceOnUse">
<stop stop-color="#FFDB44"/>
<stop offset="1" stop-color="#FEEF06"/>
</linearGradient>
<linearGradient id="paint10_linear_1_1768" x1="35.8884" y1="181.079" x2="36.8013" y2="188.722" gradientUnits="userSpaceOnUse">
<stop stop-color="#FFDB44"/>
<stop offset="1" stop-color="#FEEF06"/>
</linearGradient>
<linearGradient id="paint11_linear_1_1768" x1="36.7467" y1="187.921" x2="35.8369" y2="180.305" gradientUnits="userSpaceOnUse">
<stop offset="0.00359712" stop-color="#F36F56"/>
<stop offset="0.3059" stop-color="#F99C4C"/>
<stop offset="0.545" stop-color="#FDB946"/>
<stop offset="0.6817" stop-color="#FFC444"/>
<stop offset="0.8038" stop-color="#FFC244"/>
<stop offset="0.8667" stop-color="#FEBA46"/>
<stop offset="0.916" stop-color="#FCAD49"/>
<stop offset="0.958" stop-color="#F99A4D"/>
<stop offset="0.9955" stop-color="#F58152"/>
<stop offset="1" stop-color="#F57E53"/>
</linearGradient>
<linearGradient id="paint12_linear_1_1768" x1="0.75268" y1="182.831" x2="57.1391" y2="182.831" gradientUnits="userSpaceOnUse">
<stop stop-color="#FCB148"/>
<stop offset="0.0520724" stop-color="#FDBA46"/>
<stop offset="0.1424" stop-color="#FFC244"/>
<stop offset="0.3183" stop-color="#FFC444"/>
<stop offset="0.4849" stop-color="#FDB946"/>
<stop offset="0.7754" stop-color="#F99C4D"/>
<stop offset="0.8658" stop-color="#F8924F"/>
<stop offset="1" stop-color="#F8924F"/>
</linearGradient>
<linearGradient id="paint13_linear_1_1768" x1="29.206" y1="176.479" x2="32.1786" y2="201.365" gradientUnits="userSpaceOnUse">
<stop stop-color="#FFDB44"/>
<stop offset="1" stop-color="#FEEF06"/>
</linearGradient>
<linearGradient id="paint14_linear_1_1768" x1="29.0757" y1="175.37" x2="29.9887" y2="183.012" gradientUnits="userSpaceOnUse">
<stop stop-color="#FFDB44"/>
<stop offset="1" stop-color="#FEEF06"/>
</linearGradient>
<linearGradient id="paint15_linear_1_1768" x1="29.9339" y1="182.211" x2="29.0242" y2="174.596" gradientUnits="userSpaceOnUse">
<stop offset="0.00359712" stop-color="#F36F56"/>
<stop offset="0.3059" stop-color="#F99C4C"/>
<stop offset="0.545" stop-color="#FDB946"/>
<stop offset="0.6817" stop-color="#FFC444"/>
<stop offset="0.8038" stop-color="#FFC244"/>
<stop offset="0.8667" stop-color="#FEBA46"/>
<stop offset="0.916" stop-color="#FCAD49"/>
<stop offset="0.958" stop-color="#F99A4D"/>
<stop offset="0.9955" stop-color="#F58152"/>
<stop offset="1" stop-color="#F57E53"/>
</linearGradient>
<linearGradient id="paint16_linear_1_1768" x1="6.63097" y1="177.138" x2="63.0174" y2="177.138" gradientUnits="userSpaceOnUse">
<stop stop-color="#FCB148"/>
<stop offset="0.0520724" stop-color="#FDBA46"/>
<stop offset="0.1424" stop-color="#FFC244"/>
<stop offset="0.3183" stop-color="#FFC444"/>
<stop offset="0.4849" stop-color="#FDB946"/>
<stop offset="0.7754" stop-color="#F99C4D"/>
<stop offset="0.8658" stop-color="#F8924F"/>
<stop offset="1" stop-color="#F8924F"/>
</linearGradient>
<linearGradient id="paint17_linear_1_1768" x1="35.0838" y1="170.787" x2="38.0564" y2="195.672" gradientUnits="userSpaceOnUse">
<stop stop-color="#FFDB44"/>
<stop offset="1" stop-color="#FEEF06"/>
</linearGradient>
<linearGradient id="paint18_linear_1_1768" x1="34.9541" y1="169.677" x2="35.867" y2="177.319" gradientUnits="userSpaceOnUse">
<stop stop-color="#FFDB44"/>
<stop offset="1" stop-color="#FEEF06"/>
</linearGradient>
<linearGradient id="paint19_linear_1_1768" x1="35.8124" y1="176.518" x2="34.9027" y2="168.903" gradientUnits="userSpaceOnUse">
<stop offset="0.00359712" stop-color="#F36F56"/>
<stop offset="0.3059" stop-color="#F99C4C"/>
<stop offset="0.545" stop-color="#FDB946"/>
<stop offset="0.6817" stop-color="#FFC444"/>
<stop offset="0.8038" stop-color="#FFC244"/>
<stop offset="0.8667" stop-color="#FEBA46"/>
<stop offset="0.916" stop-color="#FCAD49"/>
<stop offset="0.958" stop-color="#F99A4D"/>
<stop offset="0.9955" stop-color="#F58152"/>
<stop offset="1" stop-color="#F57E53"/>
</linearGradient>
<linearGradient id="paint20_linear_1_1768" x1="10.1983" y1="171.429" x2="66.5847" y2="171.429" gradientUnits="userSpaceOnUse">
<stop stop-color="#FCB148"/>
<stop offset="0.0520724" stop-color="#FDBA46"/>
<stop offset="0.1424" stop-color="#FFC244"/>
<stop offset="0.3183" stop-color="#FFC444"/>
<stop offset="0.4849" stop-color="#FDB946"/>
<stop offset="0.7754" stop-color="#F99C4D"/>
<stop offset="0.8658" stop-color="#F8924F"/>
<stop offset="1" stop-color="#F8924F"/>
</linearGradient>
<linearGradient id="paint21_linear_1_1768" x1="38.6515" y1="165.077" x2="41.6241" y2="189.962" gradientUnits="userSpaceOnUse">
<stop stop-color="#FFDB44"/>
<stop offset="1" stop-color="#FEEF06"/>
</linearGradient>
<linearGradient id="paint22_linear_1_1768" x1="38.5213" y1="163.967" x2="39.4342" y2="171.61" gradientUnits="userSpaceOnUse">
<stop stop-color="#FFDB44"/>
<stop offset="1" stop-color="#FEEF06"/>
</linearGradient>
<linearGradient id="paint23_linear_1_1768" x1="39.3796" y1="170.809" x2="38.4699" y2="163.193" gradientUnits="userSpaceOnUse">
<stop offset="0.00359712" stop-color="#F36F56"/>
<stop offset="0.3059" stop-color="#F99C4C"/>
<stop offset="0.545" stop-color="#FDB946"/>
<stop offset="0.6817" stop-color="#FFC444"/>
<stop offset="0.8038" stop-color="#FFC244"/>
<stop offset="0.8667" stop-color="#FEBA46"/>
<stop offset="0.916" stop-color="#FCAD49"/>
<stop offset="0.958" stop-color="#F99A4D"/>
<stop offset="0.9955" stop-color="#F58152"/>
<stop offset="1" stop-color="#F57E53"/>
</linearGradient>
<linearGradient id="paint24_linear_1_1768" x1="7.56545" y1="165.269" x2="63.9519" y2="165.269" gradientUnits="userSpaceOnUse">
<stop stop-color="#FCB148"/>
<stop offset="0.0520724" stop-color="#FDBA46"/>
<stop offset="0.1424" stop-color="#FFC244"/>
<stop offset="0.3183" stop-color="#FFC444"/>
<stop offset="0.4849" stop-color="#FDB946"/>
<stop offset="0.7754" stop-color="#F99C4D"/>
<stop offset="0.8658" stop-color="#F8924F"/>
<stop offset="1" stop-color="#F8924F"/>
</linearGradient>
<linearGradient id="paint25_linear_1_1768" x1="36.0186" y1="158.918" x2="38.9913" y2="183.803" gradientUnits="userSpaceOnUse">
<stop stop-color="#FFDB44"/>
<stop offset="1" stop-color="#FEEF06"/>
</linearGradient>
<linearGradient id="paint26_linear_1_1768" x1="35.8883" y1="157.807" x2="36.8013" y2="165.45" gradientUnits="userSpaceOnUse">
<stop stop-color="#FFDB44"/>
<stop offset="1" stop-color="#FEEF06"/>
</linearGradient>
<linearGradient id="paint27_linear_1_1768" x1="36.7467" y1="164.649" x2="35.8369" y2="157.033" gradientUnits="userSpaceOnUse">
<stop offset="0.00359712" stop-color="#F36F56"/>
<stop offset="0.3059" stop-color="#F99C4C"/>
<stop offset="0.545" stop-color="#FDB946"/>
<stop offset="0.6817" stop-color="#FFC444"/>
<stop offset="0.8038" stop-color="#FFC244"/>
<stop offset="0.8667" stop-color="#FEBA46"/>
<stop offset="0.916" stop-color="#FCAD49"/>
<stop offset="0.958" stop-color="#F99A4D"/>
<stop offset="0.9955" stop-color="#F58152"/>
<stop offset="1" stop-color="#F57E53"/>
</linearGradient>
<linearGradient id="paint28_linear_1_1768" x1="0.75268" y1="159.559" x2="57.1391" y2="159.559" gradientUnits="userSpaceOnUse">
<stop stop-color="#FCB148"/>
<stop offset="0.0520724" stop-color="#FDBA46"/>
<stop offset="0.1424" stop-color="#FFC244"/>
<stop offset="0.3183" stop-color="#FFC444"/>
<stop offset="0.4849" stop-color="#FDB946"/>
<stop offset="0.7754" stop-color="#F99C4D"/>
<stop offset="0.8658" stop-color="#F8924F"/>
<stop offset="1" stop-color="#F8924F"/>
</linearGradient>
<linearGradient id="paint29_linear_1_1768" x1="29.206" y1="153.208" x2="32.1786" y2="178.093" gradientUnits="userSpaceOnUse">
<stop stop-color="#FFDB44"/>
<stop offset="1" stop-color="#FEEF06"/>
</linearGradient>
<linearGradient id="paint30_linear_1_1768" x1="29.0757" y1="152.098" x2="29.9887" y2="159.741" gradientUnits="userSpaceOnUse">
<stop stop-color="#FFDB44"/>
<stop offset="1" stop-color="#FEEF06"/>
</linearGradient>
<linearGradient id="paint31_linear_1_1768" x1="29.9339" y1="158.939" x2="29.0242" y2="151.324" gradientUnits="userSpaceOnUse">
<stop offset="0.00359712" stop-color="#F36F56"/>
<stop offset="0.3059" stop-color="#F99C4C"/>
<stop offset="0.545" stop-color="#FDB946"/>
<stop offset="0.6817" stop-color="#FFC444"/>
<stop offset="0.8038" stop-color="#FFC244"/>
<stop offset="0.8667" stop-color="#FEBA46"/>
<stop offset="0.916" stop-color="#FCAD49"/>
<stop offset="0.958" stop-color="#F99A4D"/>
<stop offset="0.9955" stop-color="#F58152"/>
<stop offset="1" stop-color="#F57E53"/>
</linearGradient>
<linearGradient id="paint32_linear_1_1768" x1="6.63097" y1="153.867" x2="63.0174" y2="153.867" gradientUnits="userSpaceOnUse">
<stop stop-color="#FCB148"/>
<stop offset="0.0520724" stop-color="#FDBA46"/>
<stop offset="0.1424" stop-color="#FFC244"/>
<stop offset="0.3183" stop-color="#FFC444"/>
<stop offset="0.4849" stop-color="#FDB946"/>
<stop offset="0.7754" stop-color="#F99C4D"/>
<stop offset="0.8658" stop-color="#F8924F"/>
<stop offset="1" stop-color="#F8924F"/>
</linearGradient>
<linearGradient id="paint33_linear_1_1768" x1="35.0835" y1="147.515" x2="38.0562" y2="172.4" gradientUnits="userSpaceOnUse">
<stop stop-color="#FFDB44"/>
<stop offset="1" stop-color="#FEEF06"/>
</linearGradient>
<linearGradient id="paint34_linear_1_1768" x1="34.9541" y1="146.405" x2="35.867" y2="154.048" gradientUnits="userSpaceOnUse">
<stop stop-color="#FFDB44"/>
<stop offset="1" stop-color="#FEEF06"/>
</linearGradient>
<linearGradient id="paint35_linear_1_1768" x1="35.8124" y1="153.247" x2="34.9027" y2="145.631" gradientUnits="userSpaceOnUse">
<stop offset="0.00359712" stop-color="#F36F56"/>
<stop offset="0.3059" stop-color="#F99C4C"/>
<stop offset="0.545" stop-color="#FDB946"/>
<stop offset="0.6817" stop-color="#FFC444"/>
<stop offset="0.8038" stop-color="#FFC244"/>
<stop offset="0.8667" stop-color="#FEBA46"/>
<stop offset="0.916" stop-color="#FCAD49"/>
<stop offset="0.958" stop-color="#F99A4D"/>
<stop offset="0.9955" stop-color="#F58152"/>
<stop offset="1" stop-color="#F57E53"/>
</linearGradient>
<linearGradient id="paint36_linear_1_1768" x1="3.57352" y1="148.157" x2="59.9599" y2="148.157" gradientUnits="userSpaceOnUse">
<stop stop-color="#FCB148"/>
<stop offset="0.0520724" stop-color="#FDBA46"/>
<stop offset="0.1424" stop-color="#FFC244"/>
<stop offset="0.3183" stop-color="#FFC444"/>
<stop offset="0.4849" stop-color="#FDB946"/>
<stop offset="0.7754" stop-color="#F99C4D"/>
<stop offset="0.8658" stop-color="#F8924F"/>
<stop offset="1" stop-color="#F8924F"/>
</linearGradient>
<linearGradient id="paint37_linear_1_1768" x1="32.026" y1="141.806" x2="34.9986" y2="166.691" gradientUnits="userSpaceOnUse">
<stop stop-color="#FFDB44"/>
<stop offset="1" stop-color="#FEEF06"/>
</linearGradient>
<linearGradient id="paint38_linear_1_1768" x1="31.8966" y1="140.696" x2="32.8095" y2="148.339" gradientUnits="userSpaceOnUse">
<stop stop-color="#FFDB44"/>
<stop offset="1" stop-color="#FEEF06"/>
</linearGradient>
<linearGradient id="paint39_linear_1_1768" x1="32.7548" y1="147.537" x2="31.8451" y2="139.922" gradientUnits="userSpaceOnUse">
<stop offset="0.00359712" stop-color="#F36F56"/>
<stop offset="0.3059" stop-color="#F99C4C"/>
<stop offset="0.545" stop-color="#FDB946"/>
<stop offset="0.6817" stop-color="#FFC444"/>
<stop offset="0.8038" stop-color="#FFC244"/>
<stop offset="0.8667" stop-color="#FEBA46"/>
<stop offset="0.916" stop-color="#FCAD49"/>
<stop offset="0.958" stop-color="#F99A4D"/>
<stop offset="0.9955" stop-color="#F58152"/>
<stop offset="1" stop-color="#F57E53"/>
</linearGradient>
<linearGradient id="paint40_linear_1_1768" x1="57.8093" y1="146.763" x2="90.491" y2="192.713" gradientUnits="userSpaceOnUse">
<stop stop-color="#FCB148"/>
<stop offset="0.0520724" stop-color="#FDBA46"/>
<stop offset="0.1424" stop-color="#FFC244"/>
<stop offset="0.3183" stop-color="#FFC444"/>
<stop offset="0.4849" stop-color="#FDB946"/>
<stop offset="0.7754" stop-color="#F99C4D"/>
<stop offset="0.8658" stop-color="#F8924F"/>
<stop offset="1" stop-color="#F8924F"/>
</linearGradient>
<linearGradient id="paint41_linear_1_1768" x1="79.4757" y1="166.268" x2="60.9219" y2="183.112" gradientUnits="userSpaceOnUse">
<stop stop-color="#FFDB44"/>
<stop offset="1" stop-color="#FEEF06"/>
</linearGradient>
<linearGradient id="paint42_linear_1_1768" x1="80.3046" y1="165.52" x2="74.6067" y2="170.692" gradientUnits="userSpaceOnUse">
<stop stop-color="#FFDB44"/>
<stop offset="1" stop-color="#FEEF06"/>
</linearGradient>
<linearGradient id="paint43_linear_1_1768" x1="75.2283" y1="170.183" x2="80.9059" y2="165.029" gradientUnits="userSpaceOnUse">
<stop offset="0.00359712" stop-color="#F36F56"/>
<stop offset="0.3059" stop-color="#F99C4C"/>
<stop offset="0.545" stop-color="#FDB946"/>
<stop offset="0.6817" stop-color="#FFC444"/>
<stop offset="0.8038" stop-color="#FFC244"/>
<stop offset="0.8667" stop-color="#FEBA46"/>
<stop offset="0.916" stop-color="#FCAD49"/>
<stop offset="0.958" stop-color="#F99A4D"/>
<stop offset="0.9955" stop-color="#F58152"/>
<stop offset="1" stop-color="#F57E53"/>
</linearGradient>
<linearGradient id="paint44_linear_1_1768" x1="160.049" y1="114.574" x2="161.289" y2="121.805" gradientUnits="userSpaceOnUse">
<stop stop-color="#FFC444"/>
<stop offset="0.9964" stop-color="#F36F56"/>
</linearGradient>
<linearGradient id="paint45_linear_1_1768" x1="179.579" y1="110.908" x2="181.258" y2="118.049" gradientUnits="userSpaceOnUse">
<stop stop-color="#FFC444"/>
<stop offset="0.9964" stop-color="#F36F56"/>
</linearGradient>
<linearGradient id="paint46_linear_1_1768" x1="183.092" y1="120.833" x2="189.393" y2="178.108" gradientUnits="userSpaceOnUse">
<stop stop-color="#FF9085"/>
<stop offset="1" stop-color="#FB6FBB"/>
</linearGradient>
<linearGradient id="paint47_linear_1_1768" x1="177.954" y1="231.309" x2="177.014" y2="204.623" gradientUnits="userSpaceOnUse">
<stop stop-color="#FFC444"/>
<stop offset="0.9964" stop-color="#F36F56"/>
</linearGradient>
<linearGradient id="paint48_linear_1_1768" x1="178.639" y1="179.949" x2="182.532" y2="228.741" gradientUnits="userSpaceOnUse">
<stop stop-color="#311944"/>
<stop offset="1" stop-color="#893976"/>
</linearGradient>
<linearGradient id="paint49_linear_1_1768" x1="178.639" y1="179.949" x2="182.532" y2="228.742" gradientUnits="userSpaceOnUse">
<stop stop-color="#311944"/>
<stop offset="1" stop-color="#893976"/>
</linearGradient>
<linearGradient id="paint50_linear_1_1768" x1="175.753" y1="231.524" x2="179.699" y2="216.646" gradientUnits="userSpaceOnUse">
<stop stop-color="#FF9085"/>
<stop offset="1" stop-color="#FB6FBB"/>
</linearGradient>
<linearGradient id="paint51_linear_1_1768" x1="180.999" y1="208.231" x2="163.058" y2="192.798" gradientUnits="userSpaceOnUse">
<stop stop-color="#FFC444"/>
<stop offset="0.9964" stop-color="#F36F56"/>
</linearGradient>
<linearGradient id="paint52_linear_1_1768" x1="180.605" y1="210.062" x2="172.35" y2="197.069" gradientUnits="userSpaceOnUse">
<stop stop-color="#FF9085"/>
<stop offset="1" stop-color="#FB6FBB"/>
</linearGradient>
<linearGradient id="paint53_linear_1_1768" x1="196.824" y1="189.644" x2="151.246" y2="187.572" gradientUnits="userSpaceOnUse">
<stop stop-color="#311944"/>
<stop offset="1" stop-color="#893976"/>
</linearGradient>
<linearGradient id="paint54_linear_1_1768" x1="178.714" y1="118.011" x2="190.048" y2="184.097" gradientUnits="userSpaceOnUse">
<stop stop-color="#FF9085"/>
<stop offset="1" stop-color="#FB6FBB"/>
</linearGradient>
<linearGradient id="paint55_linear_1_1768" x1="160.843" y1="144.11" x2="191.889" y2="183.894" gradientUnits="userSpaceOnUse">
<stop stop-color="#FF9085"/>
<stop offset="1" stop-color="#FB6FBB"/>
</linearGradient>
<linearGradient id="paint56_linear_1_1768" x1="171.689" y1="133.09" x2="177.073" y2="141.15" gradientUnits="userSpaceOnUse">
<stop stop-color="#FFC444"/>
<stop offset="0.9964" stop-color="#F36F56"/>
</linearGradient>
<linearGradient id="paint57_linear_1_1768" x1="159.649" y1="125.743" x2="169.389" y2="182.534" gradientUnits="userSpaceOnUse">
<stop stop-color="#FF9085"/>
<stop offset="1" stop-color="#FB6FBB"/>
</linearGradient>
<linearGradient id="paint58_linear_1_1768" x1="201.193" y1="166.604" x2="179.052" y2="123.33" gradientUnits="userSpaceOnUse">
<stop stop-color="#444B8C"/>
<stop offset="0.9964" stop-color="#26264F"/>
</linearGradient>
</defs>
</svg>
