<svg width="191" height="230" viewBox="0 0 191 230" fill="none" xmlns="http://www.w3.org/2000/svg">
<g opacity="0.9">
<path d="M0 40.446C0 32.6506 6.31679 26.342 14.1039 26.342H134.074C140.694 26.342 146.149 31.5253 146.486 38.1378L155.349 212.076C155.612 217.251 151.537 221.612 146.362 221.703L8.85501 224.2C3.99215 224.29 0 220.372 0 215.501V40.446Z" fill="url(#paint0_linear_1_1572)"/>
<path d="M28.9554 221.251C28.9472 221.251 28.9472 221.251 28.9554 221.251L13.5618 221.054C8.41964 220.988 4.23035 216.75 4.23035 211.599V188.369C4.23035 188.189 4.3782 188.041 4.55892 188.041C4.73963 188.041 4.88749 188.189 4.88749 188.369V211.599C4.88749 216.388 8.78107 220.331 13.57 220.397L28.9554 220.594C29.1361 220.594 29.2839 220.742 29.2757 220.923C29.2757 221.103 29.1279 221.251 28.9554 221.251Z" fill="url(#paint1_linear_1_1572)"/>
<path d="M4.55892 181.502C4.3782 181.502 4.23035 181.354 4.23035 181.174V177.411C4.23035 177.231 4.3782 177.083 4.55892 177.083C4.73963 177.083 4.88749 177.231 4.88749 177.411V181.174C4.88749 181.354 4.73963 181.502 4.55892 181.502Z" fill="url(#paint2_linear_1_1572)"/>
<path d="M9.82468 29.02C9.80825 26.5311 12.0015 24.6007 14.474 24.9293C30.8533 27.1471 87.1951 34.0225 133.778 30.4493C135.906 30.285 137.746 31.895 137.861 34.0225L147.143 208.732C147.274 211.131 145.443 213.176 143.044 213.316C123.453 214.474 42.7722 218.959 13.9975 215.944C12.2479 215.764 10.9172 214.285 10.909 212.527L9.82468 29.02Z" fill="url(#paint3_linear_1_1572)"/>
<path opacity="0.6" d="M11.7549 33.3984C11.7384 30.9998 13.8495 29.1434 16.2316 29.4637C31.9949 31.5994 86.2174 38.2119 131.043 34.7701C133.088 34.6141 134.862 36.1584 134.969 38.2119L143.906 206.35C144.03 208.659 142.272 210.63 139.964 210.761C121.112 211.879 43.4702 216.191 15.7716 213.291C14.0877 213.119 12.8063 211.698 12.7981 209.997L11.7549 33.3984Z" fill="white"/>
<path opacity="0.78" d="M26.3515 46.3605L28.0272 82.4048C28.0847 83.6041 29.054 84.5569 30.2532 84.5898C36.9315 84.7787 57.7301 85.288 69.4765 84.672C70.8072 84.6062 71.8587 83.5302 71.8997 82.1994C72.1215 75.4391 72.6144 55.7659 71.0701 47.5351C70.8237 46.2044 69.6819 45.2351 68.3265 45.1859L28.865 43.8059C27.4439 43.7648 26.2857 44.9394 26.3515 46.3605Z" fill="white"/>
<g opacity="0.6">
<path opacity="0.6" d="M125.202 49.4981C125.9 49.4981 126.459 48.956 126.434 48.2906C126.418 47.6253 125.826 47.0749 125.128 47.0585L81.5925 46.2863C80.8943 46.2699 80.5082 46.8038 80.7464 47.461L81.0422 48.2988C81.2722 48.956 82.0361 49.4981 82.7343 49.4981H125.202Z" fill="white"/>
</g>
<g opacity="0.6">
<path opacity="0.6" d="M81.5925 57.5153C80.8943 57.4988 80.5082 58.0328 80.7464 58.6899L81.0422 59.5278C81.2722 60.1849 82.0361 60.7271 82.7343 60.7271H125.202C125.9 60.7271 126.459 60.1849 126.434 59.5196C126.418 58.8542 125.826 58.3038 125.128 58.2874L81.5925 57.5153Z" fill="white"/>
</g>
<g opacity="0.6">
<path opacity="0.6" d="M81.5925 69.8125C80.8943 69.7961 80.5082 70.33 80.7464 70.9871L81.0422 71.825C81.2722 72.4821 82.0361 73.0243 82.7343 73.0243H125.202C125.9 73.0243 126.459 72.4822 126.434 71.8168C126.418 71.1514 125.826 70.6011 125.128 70.5846L81.5925 69.8125Z" fill="white"/>
</g>
<g opacity="0.6">
<path opacity="0.6" d="M129.408 95.9171C130.106 95.9171 130.64 95.375 130.599 94.7096C130.558 94.0443 129.95 93.4939 129.252 93.4939L27.6166 92.6889C26.9184 92.6807 26.7049 93.1243 27.1402 93.6746L28.1341 94.9232C28.5695 95.4735 29.4977 95.9171 30.1959 95.9171H129.408Z" fill="white"/>
</g>
<path d="M38.1967 142.698C38.1885 142.698 38.1803 142.698 38.1721 142.698L29.6128 142.616C28.3889 142.607 27.3785 141.761 27.2635 140.661L26.5078 133.481C26.4667 133.062 26.5982 132.644 26.8774 132.307C27.1896 131.929 27.666 131.699 28.1835 131.658C28.9064 131.609 29.9167 131.518 30.9928 131.428C33.2517 131.239 36.0692 130.992 37.6546 130.976C38.8046 130.968 39.7821 131.65 40.0532 132.652C40.4967 134.303 40.4557 137.416 40.3735 140.743C40.3571 141.827 39.3796 142.698 38.1967 142.698ZM28.241 132.315C27.9042 132.34 27.5921 132.487 27.3867 132.726C27.2224 132.923 27.1403 133.161 27.1649 133.407L27.9207 140.587C28.0028 141.359 28.7339 141.942 29.621 141.959L38.1803 142.041C38.1885 142.041 38.1885 142.041 38.1967 142.041C39.0264 142.041 39.7082 141.457 39.7328 140.735C39.8149 137.465 39.856 134.393 39.4371 132.832C39.2482 132.134 38.5171 131.641 37.6874 131.641C36.1267 131.658 33.3257 131.896 31.0749 132.093C29.9824 132.175 28.9639 132.266 28.241 132.315Z" fill="white"/>
<path opacity="0.6" d="M29.1611 133.054C30.96 132.931 34.8618 132.536 36.7182 132.512C37.5068 132.504 38.1886 132.98 38.3775 133.654C38.7389 134.976 38.6896 137.613 38.6239 140.044C38.6075 140.775 37.9339 141.35 37.1207 141.35L30.2864 141.285C29.4486 141.276 28.7504 140.701 28.6682 139.954L28.0686 134.22C28.0028 133.629 28.4957 133.103 29.1611 133.054Z" fill="white"/>
<g opacity="0.6">
<path opacity="0.6" d="M45.7043 137.925C45.9507 138.861 46.805 139.518 47.7743 139.51L126.935 138.837C127.831 138.828 128.545 138.089 128.529 137.194C128.513 136.323 127.798 135.625 126.927 135.625L47.7661 135.263C46.3778 135.255 45.351 136.578 45.7043 137.925Z" fill="white"/>
</g>
<path d="M37.638 123.904C37.6298 123.904 37.6216 123.904 37.6133 123.904L29.0541 123.821C27.8301 123.813 26.8198 122.967 26.7048 121.866L25.9491 114.687C25.908 114.268 26.0394 113.849 26.3187 113.513C26.6308 113.135 27.1073 112.905 27.6248 112.864C28.3476 112.814 29.358 112.724 30.4341 112.634C32.693 112.445 35.5105 112.198 37.0958 112.182C38.2458 112.174 39.2233 112.855 39.4944 113.858C39.938 115.509 39.8969 118.622 39.8148 121.949C39.7983 123.033 38.8208 123.904 37.638 123.904ZM27.6823 113.521C27.3455 113.545 27.0333 113.693 26.828 113.931C26.6637 114.129 26.5816 114.367 26.6062 114.613L27.3619 121.793C27.4441 122.565 28.1751 123.148 29.0623 123.164L37.6216 123.246C37.6298 123.246 37.6298 123.246 37.638 123.246C38.4676 123.246 39.1494 122.663 39.1741 121.94C39.2562 118.671 39.2973 115.599 38.8783 114.038C38.6894 113.34 37.9584 112.847 37.1287 112.847C35.568 112.864 32.7669 113.102 30.5162 113.299C29.4237 113.389 28.4051 113.471 27.6823 113.521Z" fill="white"/>
<path opacity="0.6" d="M28.6024 114.26C30.4013 114.137 34.3031 113.742 36.1595 113.718C36.9481 113.709 37.6299 114.186 37.8188 114.859C38.1802 116.182 38.1309 118.819 38.0652 121.25C38.0488 121.981 37.3752 122.556 36.562 122.556L29.7277 122.49C28.8899 122.482 28.1917 121.907 28.1095 121.16L27.5099 115.426C27.4359 114.835 27.937 114.309 28.6024 114.26Z" fill="white"/>
<g opacity="0.6">
<path opacity="0.6" d="M45.1457 119.139C45.3922 120.075 46.2464 120.733 47.2157 120.724L126.377 120.051C127.272 120.043 127.987 119.303 127.97 118.408C127.954 117.537 127.239 116.839 126.369 116.839L47.2075 116.478C45.8193 116.461 44.7925 117.784 45.1457 119.139Z" fill="white"/>
</g>
<path d="M38.1967 161.032C38.1885 161.032 38.1803 161.032 38.1721 161.032L29.6128 160.95C28.3889 160.941 27.3785 160.095 27.2635 158.995L26.5078 151.815C26.4667 151.396 26.5982 150.977 26.8774 150.641C27.1896 150.263 27.666 150.033 28.1835 149.992C28.9064 149.942 29.9167 149.852 30.9928 149.762C33.2517 149.573 36.0692 149.326 37.6546 149.31C37.6628 149.31 37.6792 149.31 37.6875 149.31C38.8128 149.31 39.7821 149.992 40.045 150.986C40.4885 152.637 40.4475 155.75 40.3653 159.077C40.3571 160.161 39.3796 161.032 38.1967 161.032ZM28.241 150.649C27.9042 150.673 27.5921 150.821 27.3867 151.06C27.2224 151.257 27.1403 151.503 27.1649 151.741L27.9207 158.921C28.0028 159.693 28.7339 160.276 29.621 160.292L38.1803 160.375C38.1885 160.375 38.1885 160.375 38.1967 160.375C39.0264 160.375 39.7082 159.791 39.7328 159.068C39.815 155.799 39.856 152.727 39.4371 151.166C39.2482 150.468 38.5089 149.967 37.6875 149.975C36.1267 149.992 33.3257 150.23 31.0749 150.427C29.9824 150.517 28.9639 150.6 28.241 150.649Z" fill="white"/>
<path opacity="0.6" d="M29.1611 151.388C30.96 151.265 34.8618 150.871 36.7182 150.846C37.5068 150.838 38.1886 151.314 38.3775 151.988C38.7389 153.31 38.6896 155.947 38.6239 158.378C38.6075 159.109 37.9339 159.684 37.1207 159.684L30.2864 159.619C29.4486 159.611 28.7504 159.036 28.6682 158.288L28.0686 152.554C28.0028 151.963 28.4957 151.437 29.1611 151.388Z" fill="white"/>
<g opacity="0.6">
<path opacity="0.6" d="M45.7043 156.267C45.9507 157.204 46.805 157.861 47.7743 157.853L126.935 157.179C127.831 157.171 128.545 156.432 128.529 155.536C128.513 154.666 127.798 153.967 126.927 153.967L47.7661 153.606C46.3778 153.589 45.351 154.912 45.7043 156.267Z" fill="white"/>
</g>
<path d="M38.1967 179.366C38.1885 179.366 38.1803 179.366 38.1721 179.366L29.6128 179.284C28.3889 179.276 27.3785 178.43 27.2635 177.329L26.5078 170.15C26.4667 169.731 26.5982 169.312 26.8774 168.975C27.1896 168.597 27.666 168.367 28.1835 168.326C28.9064 168.277 29.9167 168.187 30.9928 168.096C33.2517 167.907 36.0692 167.661 37.6546 167.645C37.6628 167.645 37.6792 167.645 37.6875 167.645C38.8128 167.645 39.7821 168.326 40.045 169.32C40.4885 170.971 40.4475 174.085 40.3653 177.411C40.3571 178.496 39.3796 179.366 38.1967 179.366ZM28.241 168.984C27.9042 169.008 27.5921 169.156 27.3867 169.394C27.2224 169.591 27.1403 169.838 27.1649 170.076L27.9207 177.255C28.0028 178.027 28.7339 178.611 29.621 178.619L38.1803 178.701C38.1885 178.701 38.1885 178.701 38.1967 178.701C39.0264 178.701 39.7082 178.118 39.7328 177.395C39.815 174.126 39.856 171.054 39.4371 169.493C39.2482 168.795 38.5089 168.285 37.6875 168.302C36.1267 168.318 33.3257 168.556 31.0749 168.754C29.9824 168.852 28.9639 168.934 28.241 168.984Z" fill="white"/>
<path opacity="0.6" d="M29.1611 169.731C30.96 169.608 34.8618 169.214 36.7182 169.189C37.5068 169.181 38.1886 169.657 38.3775 170.331C38.7389 171.653 38.6896 174.29 38.6239 176.721C38.6075 177.453 37.9339 178.028 37.1207 178.028L30.2864 177.962C29.4486 177.954 28.7504 177.379 28.6682 176.631L28.0686 170.898C28.0028 170.298 28.4957 169.772 29.1611 169.731Z" fill="white"/>
<g opacity="0.6">
<path opacity="0.6" d="M45.7043 174.602C45.9507 175.538 46.805 176.195 47.7743 176.187L126.935 175.514C127.831 175.505 128.545 174.766 128.529 173.871C128.513 173 127.798 172.302 126.927 172.302L47.7661 171.94C46.3778 171.924 45.351 173.247 45.7043 174.602Z" fill="white"/>
</g>
<g opacity="0.6">
<path opacity="0.6" d="M78.9145 193.585C79.0706 194.522 79.621 195.179 80.2452 195.171L131.116 194.497C131.691 194.489 132.151 193.75 132.143 192.854C132.135 191.984 131.675 191.285 131.116 191.285L80.237 190.924C79.3417 190.916 78.6845 192.238 78.9145 193.585Z" fill="white"/>
</g>
<path d="M81.5349 2.62758C77.1978 -0.387066 73.4356 -0.329566 70.7824 0.459007C68.3592 1.17365 66.7903 3.50651 67.0285 6.02008L68.1703 18.5058L81.7814 19.7133C81.7732 19.7133 90.0285 8.54187 81.5349 2.62758ZM75.5467 12.6983C73.6739 12.6983 72.1542 11.1787 72.1542 9.3058C72.1542 7.43294 73.6739 5.9133 75.5467 5.9133C77.4196 5.9133 78.9392 7.43294 78.9392 9.3058C78.9392 11.1787 77.4196 12.6983 75.5467 12.6983Z" fill="url(#paint4_linear_1_1572)"/>
<path d="M69.5257 13.2487C69.3615 13.2487 69.2136 13.1173 69.1972 12.953L69.0165 10.9652C69 10.7845 69.1315 10.6284 69.3122 10.612C69.4929 10.5955 69.649 10.727 69.6654 10.9077L69.8461 12.8955C69.8625 13.0762 69.7311 13.2323 69.5504 13.2487C69.5422 13.2487 69.534 13.2487 69.5257 13.2487ZM69.1643 9.35518C69 9.35518 68.8522 9.22374 68.8358 9.05946L68.6961 7.54803C68.4743 5.15767 69.9857 2.92338 72.2775 2.24981C73.904 1.77338 75.5797 1.69945 77.2554 2.04445C77.4361 2.07731 77.5511 2.25802 77.51 2.43052C77.4772 2.61124 77.3047 2.71802 77.124 2.68517C75.555 2.36481 73.9861 2.43052 72.4665 2.87409C70.4704 3.46552 69.1643 5.40409 69.3532 7.48231L69.4929 8.99374C69.5093 9.17446 69.3779 9.33053 69.1972 9.34696C69.189 9.35517 69.1725 9.35518 69.1643 9.35518Z" fill="white"/>
<path d="M49.5816 26.5721V20.2964C49.5816 18.1278 51.3805 16.3946 53.5409 16.4685L96.822 17.9553C98.7441 18.021 100.297 19.5407 100.412 21.4546L100.773 27.4839L49.5816 26.5721Z" fill="url(#paint5_linear_1_1572)"/>
<path d="M65.7221 18.8345H63.8575C63.6768 18.8345 63.5289 18.6867 63.5289 18.5059C63.5289 18.3252 63.6768 18.1774 63.8575 18.1774H65.7221C65.9028 18.1774 66.0507 18.3252 66.0507 18.5059C66.0507 18.6867 65.9028 18.8345 65.7221 18.8345Z" fill="white"/>
<path d="M51.9307 24.6009C51.7499 24.6009 51.6021 24.4531 51.6021 24.2724V21.7342C51.6021 19.7709 53.1957 18.1774 55.1589 18.1774H62.0014C62.1821 18.1774 62.3299 18.3252 62.3299 18.5059C62.3299 18.6867 62.1821 18.8345 62.0014 18.8345H55.1589C53.5571 18.8345 52.2592 20.1324 52.2592 21.7342V24.2724C52.2592 24.4531 52.1114 24.6009 51.9307 24.6009Z" fill="white"/>
<path d="M31.9534 28.1576C32.0602 25.9808 33.8509 24.2722 36.0277 24.2722H111.714C114.433 24.2722 116.766 26.2272 117.226 28.9133L117.292 29.2829C117.801 32.2236 115.542 34.9097 112.56 34.9097H34.9106C33.1281 34.9097 31.707 33.4147 31.7891 31.6322L31.9534 28.1576Z" fill="url(#paint6_linear_1_1572)"/>
<path d="M96.0825 206.876C95.2528 206.876 94.415 206.473 93.5278 205.66C90.0532 202.465 89.24 197.478 89.0346 192.796C87.3671 194.677 85.6503 196.509 83.9582 198.308L83.3503 197.741C85.2396 195.729 87.1535 193.692 88.9935 191.581C88.8375 185.288 89.125 178.931 89.8478 172.68C90.2914 168.868 90.9239 164.843 92.575 161.171C93.0925 160.013 93.955 158.362 95.4253 157.327C96.9367 156.267 98.9164 156.152 100.231 157.04C101.717 158.042 102.12 159.964 102.301 161.319C103.352 169.476 100.165 176.951 97.3064 181.789C95.1707 185.412 92.575 188.722 89.8314 191.876C89.971 196.624 90.62 201.848 94.0864 205.036C94.8421 205.726 95.5157 206.062 96.1482 206.03C97.1914 205.988 98.0046 205.019 98.6617 204.075C101.553 199.935 103.796 195.45 105.365 190.685C105.545 189.272 105.94 187.884 106.539 186.595L107.32 186.866C106.991 188.221 106.613 189.552 106.178 190.866C106.014 192.238 106.063 193.626 106.334 194.981C106.482 195.712 107.106 198.144 108.938 198.489C110.318 198.752 111.681 197.782 113.226 195.433L118.696 187.12L118.171 189.387C117.891 190.595 117.423 193.486 119.181 194.209C120.191 194.62 121.251 194.028 122.376 193.396C123.469 192.78 124.602 192.139 125.867 192.303L126.295 192.361L126.221 192.788C125.933 194.464 126.073 196.526 127.428 196.83C128.315 197.027 129.046 196.353 129.884 195.573C130.599 194.916 131.338 194.226 132.283 193.996L132.48 194.801C131.741 194.981 131.084 195.589 130.443 196.181C129.515 197.043 128.554 197.93 127.239 197.635C125.457 197.24 125.071 195.113 125.317 193.108C124.479 193.15 123.65 193.618 122.771 194.111C121.522 194.817 120.232 195.54 118.852 194.973C117.579 194.447 116.955 193.067 117.062 191.088L113.907 195.885C112.807 197.561 111.074 199.737 108.774 199.294C107.188 198.99 105.972 197.437 105.512 195.129C105.397 194.546 105.315 193.955 105.274 193.363C103.755 197.298 101.767 201.043 99.3271 204.535C98.5467 205.643 97.5692 206.793 96.1646 206.843C96.14 206.876 96.1153 206.876 96.0825 206.876ZM98.1607 157.286C97.405 157.286 96.5917 157.532 95.8935 158.025C94.5957 158.937 93.8071 160.457 93.3225 161.525C91.7207 165.09 91.0964 169.041 90.6692 172.786C89.9875 178.692 89.6917 184.697 89.7985 190.652C92.2957 187.736 94.6368 184.689 96.5835 181.387C99.3764 176.663 102.49 169.361 101.471 161.442C101.225 159.537 100.682 158.362 99.7625 157.746C99.3107 157.434 98.7521 157.286 98.1607 157.286Z" fill="url(#paint7_linear_1_1572)"/>
<path d="M170.561 68.7283H112.642C111.878 68.7283 111.262 68.1122 111.262 67.3483V17.2083H171.933V67.3565C171.933 68.1122 171.317 68.7283 170.561 68.7283Z" fill="url(#paint8_linear_1_1572)"/>
<path d="M170.561 62.3621H112.642C111.878 62.3621 111.262 61.746 111.262 60.9821V17.0685H171.933V60.9821C171.933 61.746 171.317 62.3621 170.561 62.3621Z" fill="url(#paint9_linear_1_1572)"/>
<path d="M116.848 19.048H114.762V22.5965H116.848V19.048Z" fill="url(#paint10_linear_1_1572)"/>
<path d="M121.547 19.048H119.46V22.5965H121.547V19.048Z" fill="url(#paint11_linear_1_1572)"/>
<path d="M125.695 19.048H123.608V22.5965H125.695V19.048Z" fill="url(#paint12_linear_1_1572)"/>
<path d="M130.393 19.048H128.307V22.5965H130.393V19.048Z" fill="url(#paint13_linear_1_1572)"/>
<path d="M134.55 19.048H132.464V22.5965H134.55V19.048Z" fill="url(#paint14_linear_1_1572)"/>
<path d="M139.248 19.048H137.162V22.5965H139.248V19.048Z" fill="url(#paint15_linear_1_1572)"/>
<path d="M143.397 19.048H141.31V22.5965H143.397V19.048Z" fill="url(#paint16_linear_1_1572)"/>
<path d="M148.095 19.048H146.009V22.5965H148.095V19.048Z" fill="url(#paint17_linear_1_1572)"/>
<path d="M152.252 19.048H150.165V22.5965H152.252V19.048Z" fill="url(#paint18_linear_1_1572)"/>
<path d="M156.95 19.048H154.864V22.5965H156.95V19.048Z" fill="url(#paint19_linear_1_1572)"/>
<path d="M161.098 19.048H159.012V22.5965H161.098V19.048Z" fill="url(#paint20_linear_1_1572)"/>
<path d="M165.805 19.048H163.719V22.5965H165.805V19.048Z" fill="url(#paint21_linear_1_1572)"/>
<path d="M144.579 24.4365H138.271V30.7451H144.579V24.4365Z" fill="white"/>
<path d="M152.244 24.4365H145.935V30.7451H152.244V24.4365Z" fill="white"/>
<path d="M159.825 24.4365H153.516V30.7451H159.825V24.4365Z" fill="white"/>
<path d="M167.341 24.4365H161.033V30.7451H167.341V24.4365Z" fill="white"/>
<path d="M121.818 32.3633H115.509V38.6719H121.818V32.3633Z" fill="white"/>
<path d="M129.4 32.3633H123.091V38.6719H129.4V32.3633Z" fill="white"/>
<path d="M136.924 32.3633H130.615V38.6719H136.924V32.3633Z" fill="white"/>
<path d="M144.571 32.3633H138.263V38.6719H144.571V32.3633Z" fill="white"/>
<path d="M152.235 32.3633H145.927V38.6719H152.235V32.3633Z" fill="white"/>
<path d="M159.817 32.3633H153.508V38.6719H159.817V32.3633Z" fill="white"/>
<path d="M167.341 32.3633H161.033V38.6719H167.341V32.3633Z" fill="white"/>
<path d="M122.007 39.9205H115.698V46.2291H122.007V39.9205Z" fill="white"/>
<path d="M129.588 39.9205H123.28V46.2291H129.588V39.9205Z" fill="white"/>
<path d="M137.113 39.9205H130.804V46.2291H137.113V39.9205Z" fill="url(#paint22_linear_1_1572)"/>
<path d="M144.76 39.9205H138.452V46.2291H144.76V39.9205Z" fill="white"/>
<path d="M152.416 39.9205H146.107V46.2291H152.416V39.9205Z" fill="white"/>
<path d="M160.006 39.9205H153.698V46.2291H160.006V39.9205Z" fill="white"/>
<path d="M167.522 39.9205H161.214V46.2291H167.522V39.9205Z" fill="white"/>
<path d="M122.195 47.3793H115.887V53.6878H122.195V47.3793Z" fill="white"/>
<path d="M129.777 47.3793H123.469V53.6878H129.777V47.3793Z" fill="white"/>
<path d="M137.293 47.3793H130.985V53.6878H137.293V47.3793Z" fill="white"/>
<path d="M144.941 47.3793H138.633V53.6878H144.941V47.3793Z" fill="white"/>
<path d="M152.605 47.3793H146.296V53.6878H152.605V47.3793Z" fill="white"/>
<path d="M160.187 47.3793H153.878V53.6878H160.187V47.3793Z" fill="white"/>
<path d="M167.711 47.3793H161.403V53.6878H167.711V47.3793Z" fill="white"/>
<path d="M122.195 54.821H115.887V61.1296H122.195V54.821Z" fill="white"/>
<path d="M129.777 54.821H123.469V61.1296H129.777V54.821Z" fill="white"/>
<path d="M137.293 54.821H130.985V61.1296H137.293V54.821Z" fill="white"/>
<path d="M118.885 16.2221H116.207C115.591 16.2221 115.082 16.7314 115.082 17.3475V19.8446H115.895V18.2264C115.895 17.6103 116.404 17.101 117.02 17.101H119.698C119.797 17.101 119.895 17.1175 119.986 17.1421C119.887 16.6164 119.427 16.2221 118.885 16.2221Z" fill="url(#paint23_linear_1_1572)"/>
<path d="M124.093 16.2221H121.415C120.799 16.2221 120.29 16.7314 120.29 17.3475V19.8446H121.103V18.2264C121.103 17.6103 121.604 17.101 122.228 17.101H124.906C125.005 17.101 125.103 17.1175 125.194 17.1421C125.095 16.6164 124.643 16.2221 124.093 16.2221Z" fill="url(#paint24_linear_1_1572)"/>
<path d="M128.422 16.2221H125.744C125.128 16.2221 124.619 16.7314 124.619 17.3475V19.8446H125.432V18.2264C125.432 17.6103 125.941 17.101 126.557 17.101H129.235C129.334 17.101 129.432 17.1175 129.523 17.1421C129.424 16.6164 128.972 16.2221 128.422 16.2221Z" fill="url(#paint25_linear_1_1572)"/>
<path d="M132.882 16.2221H130.204C129.588 16.2221 129.079 16.7314 129.079 17.3475V19.8446H129.892V18.2264C129.892 17.6103 130.402 17.101 131.018 17.101H133.695C133.794 17.101 133.893 17.1175 133.983 17.1421C133.884 16.6164 133.433 16.2221 132.882 16.2221Z" fill="url(#paint26_linear_1_1572)"/>
<path d="M137.006 16.2221H134.328C133.712 16.2221 133.203 16.7314 133.203 17.3475V19.8446H134.016V18.2264C134.016 17.6103 134.525 17.101 135.141 17.101H137.819C137.918 17.101 138.016 17.1175 138.107 17.1421C138.016 16.6164 137.556 16.2221 137.006 16.2221Z" fill="url(#paint27_linear_1_1572)"/>
<path d="M141.467 16.2221H138.789C138.173 16.2221 137.663 16.7314 137.663 17.3475V19.8446H138.477V18.2264C138.477 17.6103 138.978 17.101 139.602 17.101H142.28C142.378 17.101 142.477 17.1175 142.567 17.1421C142.477 16.6164 142.017 16.2221 141.467 16.2221Z" fill="url(#paint28_linear_1_1572)"/>
<path d="M145.803 16.2221H143.126C142.51 16.2221 142 16.7314 142 17.3475V19.8446H142.813V18.2264C142.813 17.6103 143.315 17.101 143.939 17.101H146.617C146.715 17.101 146.814 17.1175 146.904 17.1421C146.806 16.6164 146.346 16.2221 145.803 16.2221Z" fill="url(#paint29_linear_1_1572)"/>
<path d="M150.633 16.2221H147.956C147.339 16.2221 146.83 16.7314 146.83 17.3475V19.8446H147.643V18.2264C147.643 17.6103 148.144 17.101 148.769 17.101H151.447C151.545 17.101 151.644 17.1175 151.734 17.1421C151.644 16.6164 151.184 16.2221 150.633 16.2221Z" fill="url(#paint30_linear_1_1572)"/>
<path d="M154.807 16.1812H152.129C151.513 16.1812 151.003 16.6823 151.003 17.3066V19.8037H151.817V18.1855C151.817 17.5694 152.318 17.0601 152.942 17.0601H155.62C155.718 17.0601 155.817 17.0766 155.907 17.1012C155.809 16.5755 155.349 16.1812 154.807 16.1812Z" fill="url(#paint31_linear_1_1572)"/>
<path d="M159.135 16.1812H156.458C155.842 16.1812 155.332 16.6823 155.332 17.3066V19.8037H156.145V18.1855C156.145 17.5694 156.655 17.0601 157.271 17.0601H159.949C160.047 17.0601 160.146 17.0766 160.236 17.1012C160.138 16.5755 159.686 16.1812 159.135 16.1812Z" fill="url(#paint32_linear_1_1572)"/>
<path d="M167.711 16.2881H165.033C164.417 16.2881 163.908 16.7974 163.908 17.4134V19.9106H164.721V18.2924C164.721 17.6763 165.222 17.167 165.846 17.167H168.524C168.623 17.167 168.721 17.1834 168.812 17.2081C168.713 16.6824 168.261 16.2881 167.711 16.2881Z" fill="url(#paint33_linear_1_1572)"/>
<path d="M163.974 16.1812H161.296C160.68 16.1812 160.17 16.6823 160.17 17.3066V19.8037H160.984V18.1855C160.984 17.5694 161.493 17.0601 162.109 17.0601H164.787C164.885 17.0601 164.984 17.0766 165.074 17.1012C164.976 16.5755 164.516 16.1812 163.974 16.1812Z" fill="url(#paint34_linear_1_1572)"/>
<path d="M47.2238 67.1017C52.8039 67.1017 57.3274 62.5782 57.3274 56.9982C57.3274 51.4181 52.8039 46.8946 47.2238 46.8946C41.6438 46.8946 37.1203 51.4181 37.1203 56.9982C37.1203 62.5782 41.6438 67.1017 47.2238 67.1017Z" fill="url(#paint35_linear_1_1572)"/>
<path d="M47.224 66.765C52.618 66.765 56.9908 62.3922 56.9908 56.9982C56.9908 51.6041 52.618 47.2314 47.224 47.2314C41.8299 47.2314 37.4572 51.6041 37.4572 56.9982C37.4572 62.3922 41.8299 66.765 47.224 66.765Z" fill="url(#paint36_linear_1_1572)"/>
<path d="M38.4675 55.5028C38.4182 55.5192 38.369 55.5192 38.3197 55.511C38.139 55.4781 38.0322 55.3056 38.065 55.1249C38.7797 51.6503 41.3507 48.9067 44.7761 47.9785C45.3265 47.8306 45.885 47.7321 46.4436 47.6828C46.6243 47.6664 46.7804 47.7978 46.7968 47.9785C46.8132 48.1592 46.6818 48.3153 46.5011 48.3317C45.9836 48.3728 45.4579 48.4714 44.9486 48.6028C41.7615 49.4653 39.3711 52.0117 38.7057 55.2481C38.6811 55.3796 38.5907 55.4699 38.4675 55.5028Z" fill="white"/>
<path opacity="0.78" d="M53.3219 62.9916C56.549 59.7645 56.549 54.5323 53.3219 51.3052C50.0948 48.0781 44.8627 48.0781 41.6356 51.3052C38.4085 54.5323 38.4085 59.7645 41.6356 62.9916C44.8627 66.2186 50.0948 66.2187 53.3219 62.9916Z" fill="white"/>
<path d="M48.3081 63.2901L48.0698 62.4193C47.1581 62.6247 46.2052 62.6576 45.4906 62.5508C45.2359 62.5097 45.0552 62.2879 45.0552 62.0333V61.1626C45.0552 60.8422 45.3345 60.604 45.6548 60.6451C46.3531 60.7354 47.1909 60.7354 48.0288 60.5054C48.8995 60.2672 49.4663 59.799 49.302 59.1911C49.1541 58.6408 48.5627 58.4518 47.2648 58.4601C45.4084 58.4601 43.9627 58.0411 43.552 56.5215C43.1823 55.1497 43.897 53.8272 45.5645 53.0715L45.3263 52.2008C45.2523 51.9215 45.4166 51.634 45.6959 51.56L46.2052 51.4204C46.4845 51.3465 46.772 51.5108 46.8459 51.7901L47.0595 52.5704C47.9056 52.3733 48.5545 52.3568 49.0802 52.3897C49.3513 52.4061 49.5566 52.6361 49.5566 52.9154V53.7204C49.5566 54.0326 49.2938 54.2708 48.9816 54.2379C48.4888 54.1886 47.8152 54.1886 46.9938 54.4104C45.9588 54.6897 45.7781 55.199 45.8849 55.5851C46.0163 56.0615 46.7227 56.2176 48.1766 56.2668C50.2549 56.3243 51.2652 56.8993 51.6595 58.3368C52.0127 59.6511 51.3638 61.0968 49.5484 61.9101L49.8113 62.8793C49.8852 63.1586 49.7209 63.4461 49.4416 63.5201L48.9323 63.6597C48.6695 63.7336 48.382 63.5693 48.3081 63.2901Z" fill="url(#paint37_linear_1_1572)"/>
<path d="M71.8423 55.4865C81.5552 55.4865 89.4291 47.6126 89.4291 37.8997C89.4291 28.1867 81.5552 20.3129 71.8423 20.3129C62.1293 20.3129 54.2555 28.1867 54.2555 37.8997C54.2555 47.6126 62.1293 55.4865 71.8423 55.4865Z" fill="url(#paint38_linear_1_1572)"/>
<path d="M71.8422 54.9032C81.233 54.9032 88.8458 47.2905 88.8458 37.8997C88.8458 28.5088 81.233 20.8961 71.8422 20.8961C62.4514 20.8961 54.8386 28.5088 54.8386 37.8997C54.8386 47.2905 62.4514 54.9032 71.8422 54.9032Z" fill="url(#paint39_linear_1_1572)"/>
<path d="M56.5472 35.0742C56.4979 35.0906 56.4486 35.0906 56.3993 35.0824C56.2186 35.0495 56.1118 34.877 56.1447 34.6963C57.3686 28.7328 61.7797 24.0342 67.6529 22.4406C68.5893 22.186 69.5504 22.0135 70.5115 21.9313C70.6922 21.9149 70.8483 22.0463 70.8647 22.227C70.8811 22.4077 70.7497 22.5638 70.569 22.5802C69.649 22.6624 68.729 22.8185 67.8254 23.0649C62.1904 24.5927 57.96 29.0942 56.7854 34.8195C56.7525 34.951 56.6622 35.0413 56.5472 35.0742Z" fill="white"/>
<path opacity="0.78" d="M82.4678 48.3395C88.0879 42.7193 88.0879 33.6072 82.4678 27.9871C76.8476 22.3669 67.7355 22.3669 62.1154 27.9871C56.4952 33.6072 56.4952 42.7193 62.1154 48.3395C67.7355 53.9596 76.8476 53.9596 82.4678 48.3395Z" fill="white"/>
<path d="M73.7314 48.8575L73.3207 47.3461C71.7271 47.7075 70.0678 47.765 68.8275 47.576C68.3839 47.5103 68.0635 47.1243 68.0635 46.6725V45.1611C68.0635 44.6025 68.5564 44.1836 69.1067 44.2575C70.3307 44.4218 71.7846 44.4136 73.2467 44.0193C74.7664 43.6086 75.7521 42.7871 75.4728 41.7357C75.2182 40.7828 74.1832 40.4543 71.9242 40.4625C68.696 40.4543 66.1742 39.7314 65.4596 37.0782C64.8107 34.6878 66.0675 32.3878 68.9671 31.0735L68.5564 29.5621C68.425 29.0775 68.7125 28.5764 69.1971 28.445L70.0842 28.2068C70.5689 28.0753 71.07 28.3628 71.2014 28.8475L71.571 30.2028C73.0414 29.8661 74.175 29.825 75.095 29.8907C75.5714 29.9236 75.9328 30.326 75.9328 30.8025V32.1989C75.9328 32.741 75.4728 33.16 74.9307 33.1025C74.0764 33.0203 72.8935 33.0121 71.4725 33.3982C69.6735 33.8828 69.3614 34.77 69.5421 35.4436C69.7639 36.265 70.996 36.5361 73.5342 36.6264C77.1485 36.725 78.9146 37.7353 79.5882 40.2325C80.2125 42.5243 79.0707 45.0378 75.9164 46.4425L76.3764 48.1346C76.5078 48.6193 76.2203 49.1203 75.7357 49.2518L74.8485 49.49C74.3639 49.6296 73.8628 49.3421 73.7314 48.8575Z" fill="url(#paint40_linear_1_1572)"/>
<path d="M93.8319 90.7339C103.826 90.7339 111.928 82.632 111.928 72.6378C111.928 62.6436 103.826 54.5417 93.8319 54.5417C83.8377 54.5417 75.7358 62.6436 75.7358 72.6378C75.7358 82.632 83.8377 90.7339 93.8319 90.7339Z" fill="url(#paint41_linear_1_1572)"/>
<path d="M93.8317 90.1346C103.495 90.1346 111.328 82.3012 111.328 72.6382C111.328 62.9751 103.495 55.1417 93.8317 55.1417C84.1687 55.1417 76.3353 62.9751 76.3353 72.6382C76.3353 82.3012 84.1687 90.1346 93.8317 90.1346Z" fill="url(#paint42_linear_1_1572)"/>
<path d="M78.0931 69.7221C78.0438 69.7385 77.9945 69.7385 77.9452 69.7303C77.7645 69.6974 77.6577 69.5249 77.6906 69.3442C78.9474 63.2081 83.4816 58.3864 89.5191 56.7435C90.4802 56.4806 91.4741 56.3081 92.4599 56.226C92.6406 56.2096 92.7966 56.341 92.8131 56.5217C92.8295 56.7024 92.6981 56.8585 92.5174 56.8749C91.5727 56.9571 90.6199 57.1214 89.6916 57.376C83.8924 58.9531 79.5388 63.586 78.3313 69.4757C78.2984 69.5907 78.2081 69.6892 78.0931 69.7221Z" fill="white"/>
<path opacity="0.78" d="M94.3 87.7194C102.48 87.7194 109.11 81.0886 109.11 72.9091C109.11 64.7295 102.48 58.0987 94.3 58.0987C86.1205 58.0987 79.4897 64.7295 79.4897 72.9091C79.4897 81.0886 86.1205 87.7194 94.3 87.7194Z" fill="white"/>
<path d="M95.7784 83.9166L95.3595 82.3641C93.7248 82.7419 92.0162 82.7912 90.743 82.6023C90.2912 82.5366 89.9545 82.1341 89.9545 81.6741V80.1216C89.9545 79.5548 90.4555 79.1194 91.0223 79.1933C92.2791 79.3576 93.7741 79.3576 95.2773 78.9469C96.838 78.5198 97.8566 77.6819 97.5609 76.5894C97.298 75.6119 96.2384 75.2751 93.9137 75.2751C90.587 75.2669 87.9995 74.5194 87.2602 71.7923C86.5948 69.328 87.8845 66.9623 90.8662 65.6151L90.4473 64.0626C90.3077 63.5616 90.6034 63.0441 91.1045 62.9126L92.0162 62.6662C92.5173 62.5266 93.0348 62.8223 93.1662 63.3233L93.5441 64.7198C95.0637 64.3748 96.222 64.3337 97.1666 64.3994C97.6512 64.4323 98.0291 64.8512 98.0291 65.3358V66.7733C98.0291 67.3319 97.5527 67.7591 97.0023 67.7098C96.1234 67.6276 94.9077 67.6194 93.4455 68.0137C91.5973 68.5148 91.2687 69.4266 91.4577 70.1166C91.6877 70.9626 92.9527 71.2419 95.5648 71.3323C99.2859 71.4308 101.101 72.4741 101.799 75.0369C102.44 77.3944 101.266 79.9819 98.0209 81.4276L98.4891 83.1691C98.6288 83.6701 98.333 84.1876 97.832 84.3191L96.9202 84.5655C96.4273 84.7051 95.9098 84.4094 95.7784 83.9166Z" fill="url(#paint43_linear_1_1572)"/>
<path d="M109.784 56.0288C117.106 56.0288 123.042 50.0931 123.042 42.7709C123.042 35.4488 117.106 29.5131 109.784 29.5131C102.462 29.5131 96.5263 35.4488 96.5263 42.7709C96.5263 50.0931 102.462 56.0288 109.784 56.0288Z" fill="url(#paint44_linear_1_1572)"/>
<path d="M109.784 55.5933C116.866 55.5933 122.607 49.8525 122.607 42.7708C122.607 35.6891 116.866 29.9483 109.784 29.9483C102.702 29.9483 96.9616 35.6891 96.9616 42.7708C96.9616 49.8525 102.702 55.5933 109.784 55.5933Z" fill="url(#paint45_linear_1_1572)"/>
<path d="M98.276 40.7092C98.2267 40.7256 98.1774 40.7256 98.1282 40.7174C97.9474 40.6845 97.8407 40.512 97.8735 40.3313C98.8017 35.8052 102.145 32.2402 106.605 31.0327C107.312 30.8438 108.043 30.7124 108.774 30.6467C108.955 30.6302 109.111 30.7617 109.127 30.9424C109.144 31.1231 109.012 31.2792 108.831 31.2956C108.141 31.3531 107.451 31.4763 106.778 31.657C102.564 32.7988 99.3932 36.1749 98.5142 40.4545C98.4814 40.5859 98.391 40.6845 98.276 40.7092Z" fill="white"/>
<path opacity="0.78" d="M117.801 50.6381C122.038 46.4006 122.038 39.5301 117.801 35.2925C113.563 31.055 106.693 31.055 102.455 35.2925C98.2174 39.5301 98.2174 46.4006 102.455 50.6381C106.693 54.8757 113.563 54.8757 117.801 50.6381Z" fill="white"/>
<path d="M111.213 51.0264L110.901 49.8846C109.702 50.1557 108.453 50.1967 107.517 50.0571C107.18 50.0078 106.942 49.7121 106.942 49.3753V48.2335C106.942 47.8146 107.311 47.5024 107.722 47.5517C108.642 47.6749 109.743 47.6749 110.844 47.371C111.985 47.0589 112.733 46.4428 112.519 45.646C112.322 44.9314 111.55 44.6849 109.841 44.6849C107.402 44.6767 105.504 44.1346 104.97 42.1385C104.478 40.3314 105.422 38.5982 107.615 37.6124L107.303 36.4706C107.205 36.101 107.418 35.7231 107.788 35.6246L108.453 35.4439C108.823 35.3453 109.201 35.5589 109.299 35.9285L109.579 36.9553C110.688 36.7006 111.542 36.676 112.232 36.7253C112.585 36.7499 112.864 37.0539 112.864 37.4071V38.4585C112.864 38.861 112.519 39.1814 112.109 39.1403C111.468 39.0746 110.573 39.0746 109.505 39.3621C108.149 39.7317 107.911 40.3971 108.051 40.8982C108.215 41.5224 109.151 41.7278 111.057 41.7853C113.784 41.8592 115.115 42.6231 115.624 44.5042C116.093 46.2292 115.23 48.1267 112.856 49.1864L113.201 50.4596C113.3 50.8292 113.086 51.2071 112.716 51.3057L112.051 51.4864C111.69 51.6096 111.312 51.396 111.213 51.0264Z" fill="url(#paint46_linear_1_1572)"/>
<path d="M180.385 81.9856C178.734 87.2427 175.638 89.1813 173.124 88.3845C170.553 87.5795 169.304 84.2363 170.783 79.4309C172.27 74.7077 175.251 72.2352 178.077 73.1224C180.985 74.0424 181.798 77.5006 180.385 81.9856ZM169.888 98.8824L188.649 76.4492L190.629 77.0734L171.859 99.4985L169.888 98.8824ZM173.485 80.1127C172.549 82.9795 172.656 85.3288 174.036 85.7642C175.424 86.1995 176.722 84.417 177.675 81.3859C178.545 78.6259 178.677 76.2192 177.182 75.7509C175.777 75.3074 174.373 77.3117 173.485 80.1127ZM189.783 96.3277C188.14 101.544 185.068 103.532 182.521 102.727C179.975 101.93 178.701 98.5785 180.221 93.7402C181.691 89.0581 184.69 86.5445 187.483 87.4235C190.399 88.3435 191.195 91.8345 189.783 96.3277ZM182.891 94.4549C181.971 97.2888 182.053 99.671 183.441 100.106C184.854 100.55 186.135 98.7592 187.088 95.7281C187.967 92.927 188.09 90.5613 186.595 90.0931C185.174 89.6495 183.77 91.6538 182.891 94.4549Z" fill="#FFBD00"/>
<path d="M160.91 88.4338H157.78V85.8874H160.91V81.2956H163.333V85.8874H166.462V88.4338H163.333V92.9681H160.91V88.4338Z" fill="#FFBD00"/>
<path d="M53.6884 228.776C53.6884 228.702 53.6884 228.619 53.6638 228.546C52.5055 223.937 46.7309 221.07 46.7309 221.07L44.4473 221.251C43.133 225.309 43.3055 227.806 43.5109 228.915C43.5191 228.948 43.5273 228.973 43.5355 229.005C45.4248 229.162 49.302 229.277 53.6884 228.776Z" fill="url(#paint47_linear_1_1572)"/>
<path d="M43.5357 228.997C43.6342 229.366 43.9135 229.654 44.2585 229.728C46.9446 230.295 51.2078 229.835 52.9903 229.605C53.3846 229.555 53.6721 229.186 53.6803 228.775C49.3021 229.276 45.425 229.161 43.5357 228.997Z" fill="url(#paint48_linear_1_1572)"/>
<path d="M43.5275 217.842L44.4968 222.499C44.5707 222.844 44.8336 223.099 45.1457 223.124C45.5318 223.157 46.0904 223.181 46.6489 223.099C47.15 223.025 47.495 222.516 47.4047 221.974L46.7311 217.834H43.5275V217.842Z" fill="url(#paint49_linear_1_1572)"/>
<path d="M63.5867 228.94C61.0649 228.866 59.7589 228.57 59.0853 228.299C59.0853 228.554 59.0853 228.808 59.0935 229.071C59.1017 229.35 59.3153 229.58 59.5699 229.58L73.4274 229.49C73.871 229.49 74.1257 228.973 73.9367 228.57C72.1214 228.71 67.4885 229.047 63.5867 228.94Z" fill="url(#paint50_linear_1_1572)"/>
<path d="M73.9368 228.562C73.9204 228.529 73.904 228.488 73.8793 228.455C72.6554 226.747 69.534 223.338 63.3733 221.859L60.4161 221.769C60.4161 221.769 59.1018 224.052 59.0772 228.291C59.7508 228.57 61.0568 228.866 63.5786 228.932C67.4886 229.047 72.1215 228.71 73.9368 228.562Z" fill="url(#paint51_linear_1_1572)"/>
<path d="M59.7424 217.423C59.7917 217.645 60.4078 220.955 60.646 222.245C60.7035 222.549 60.9417 222.771 61.221 222.787C61.7303 222.812 62.5435 222.82 63.2417 222.631C63.6195 222.524 63.8742 222.138 63.8495 221.711L63.521 216.462L59.7424 217.423Z" fill="url(#paint52_linear_1_1572)"/>
<path d="M57.5084 156.202C57.5084 156.202 61.5744 184.138 64.507 217.382C64.5645 217.998 64.0716 218.54 63.4637 218.671C62.5684 218.86 61.2459 219.082 60.1616 219.057C59.5784 219.041 59.0937 218.606 58.9952 218.039C57.993 212.174 50.863 180.721 48.9901 173.797C48.9901 173.797 46.838 203.204 47.528 218.466C47.5444 218.844 47.2651 219.172 46.8873 219.222C46.3123 219.287 45.4005 219.337 44.2341 219.213C43.7905 219.164 43.4373 218.836 43.3716 218.392C42.6569 213.431 38.558 183.9 38.7387 162.633C38.7469 161.434 40.1434 151.577 40.1434 151.577L57.5084 156.202Z" fill="url(#paint53_linear_1_1572)"/>
<path d="M92.3532 129.489C92.3532 129.489 91.2114 126.491 89.8889 126.77C88.5582 127.041 87.1043 128.068 87.1043 128.068L84.9686 130.959C84.9686 130.959 90.965 133.325 93.0761 131.97C93.0761 131.97 99.1957 133.029 106.934 131.756C105.816 129.39 105.151 127.025 104.757 125.193C100.83 127.402 96.6164 129.054 92.3532 129.489Z" fill="url(#paint54_linear_1_1572)"/>
<path d="M124.791 107.754C124.791 107.754 116.026 118.794 104.748 125.177C105.143 127.017 105.808 129.383 106.925 131.74C112.774 130.779 119.542 128.487 125.284 123.403L124.791 107.754Z" fill="url(#paint55_linear_1_1572)"/>
<path d="M59.0771 109.216L59.6193 123.837C61.1636 124.371 62.6339 124.782 64.0386 125.094C64.9175 122.268 66.8479 118.81 68.425 116.231C62.6257 114.177 59.0771 109.216 59.0771 109.216Z" fill="url(#paint56_linear_1_1572)"/>
<path d="M88.0735 108.97C80.1057 117.57 73.6575 118.08 68.4249 116.231C66.8478 118.811 64.9174 122.269 64.0385 125.095C85.3135 129.785 90.3243 110.227 90.3243 110.227L88.0735 108.97Z" fill="url(#paint57_linear_1_1572)"/>
<path d="M89.6916 108.058C89.6916 108.058 90.6116 107.072 92.3037 107.384C94.0041 107.697 95.5155 108.288 96.5752 107.384C97.6348 106.481 98.0044 107.688 98.0044 107.688L94.8337 110.095L89.6916 108.058Z" fill="url(#paint58_linear_1_1572)"/>
<path d="M87.7942 109.742C87.7942 109.742 88.4267 107.113 90.316 107.475C92.2135 107.836 96.5095 110.177 97.6184 109.742C98.7274 109.315 100.148 108.28 100.871 108.641L99.5899 110.235C99.5899 110.235 102.884 108.337 103.451 109.504L97.9717 112.584C97.9799 112.584 89.9627 111.787 87.7942 109.742Z" fill="url(#paint59_linear_1_1572)"/>
<path d="M39.5269 157.812C39.108 157.664 38.8205 157.286 38.7712 156.842C38.2291 151.593 35.6169 119.073 52.1359 105.7C52.1359 105.7 53.0805 103.219 60.8759 109.314C68.663 115.409 64.4984 121.8 62.6337 130.614C60.3748 141.276 56.4155 149.992 58.1652 156.555C58.2884 157.007 58.0502 157.483 57.6066 157.647C51.5609 159.865 45.5316 159.939 39.5269 157.812Z" fill="url(#paint60_linear_1_1572)"/>
<path d="M58.5841 95.95C58.5759 96.41 51.9798 105.783 51.9798 105.783C51.9798 105.783 53.1627 108.115 58.8223 110.013L63.7016 99.975L58.5841 95.95Z" fill="url(#paint61_linear_1_1572)"/>
<path d="M55.9885 128.134C55.9885 128.134 68.5071 138.623 82.0278 134.048C82.8657 133.76 83.7857 133.826 84.566 134.237L88.4514 136.29C90.086 137.153 92.1068 136.586 93.0514 135.001C93.5935 134.097 94.0536 133.062 94.1439 132.076L86.5375 128.996L87.096 128.06C87.096 128.06 83.3832 127.747 82.4139 130.409C82.4139 130.409 75.3414 133.35 63.4142 120.231C63.4142 120.231 58.001 124.831 55.9885 128.134Z" fill="url(#paint62_linear_1_1572)"/>
<path d="M55.315 128.019C55.2739 128.019 55.2329 128.011 55.1918 127.986C49.9182 124.421 47.4375 118.679 47.4129 118.614C47.3636 118.507 47.4211 118.375 47.5279 118.334C47.6346 118.285 47.7661 118.343 47.8072 118.449C47.8318 118.507 50.2632 124.142 55.43 127.633C55.5286 127.699 55.5532 127.83 55.4875 127.929C55.4547 127.986 55.3889 128.019 55.315 128.019Z" fill="url(#paint63_linear_1_1572)"/>
<path d="M63.1677 120.051C63.0938 120.051 63.0281 120.018 62.987 119.953C62.9706 119.928 61.3606 117.423 58.2967 111.927C57.352 110.235 56.1117 109.167 54.6084 108.748C52.1195 108.05 49.7209 109.389 49.7045 109.397C49.5977 109.455 49.4745 109.422 49.4088 109.315C49.3513 109.208 49.3842 109.085 49.4909 109.019C49.5977 108.962 52.062 107.582 54.7234 108.329C56.3417 108.781 57.6724 109.915 58.6745 111.714C61.7302 117.193 63.3402 119.69 63.3567 119.714C63.4224 119.813 63.3895 119.944 63.291 120.01C63.2499 120.043 63.2088 120.051 63.1677 120.051Z" fill="url(#paint64_linear_1_1572)"/>
<path d="M63.7839 90.5781C63.7839 90.5781 66.1332 95.9749 66.2892 98.8006C66.4453 101.635 67.0532 103.466 63.7839 104.041C60.5064 104.608 57.7546 102.982 56.2596 100.164C56.2596 100.164 53.9185 95.8188 54.4442 94.0363C54.9699 92.2538 63.7839 90.5781 63.7839 90.5781Z" fill="url(#paint65_linear_1_1572)"/>
<path d="M57.3768 98.1356L57.5657 98.0534C57.8039 97.9466 57.9025 97.6673 57.7875 97.4373C57.3275 96.542 56.4239 94.5048 57.5904 94.0284C59.0854 93.4123 65.0243 92.2048 66.3057 90.102C67.5379 88.0813 66.4454 85.4691 64.8107 84.7216C64.704 84.6723 64.5725 84.7134 64.515 84.8202L64.3754 85.0748C64.285 85.2555 64.0222 85.2227 63.9647 85.0338C63.9154 84.853 63.6689 84.812 63.5622 84.9763C63.1679 85.6088 62.1082 86.6273 59.2661 87.153C55.2247 87.9006 52.555 89.5352 52.4893 92.3198C52.4811 92.5006 52.3004 92.5991 52.1443 92.5006C51.8486 92.3198 51.3722 92.2295 50.7314 92.7716C49.6225 93.7081 50.0743 96.1231 52.5057 98.1109C52.6207 98.2095 52.6207 98.382 52.4975 98.4641C52.0539 98.7516 51.3968 99.4334 53.1054 100.345C54.8632 101.29 56.1775 101.208 56.6868 101.126C56.81 101.101 56.8922 100.986 56.8675 100.854L56.3254 98.3984C56.2925 98.2588 56.3993 98.1273 56.5389 98.1273H57.3768V98.1356Z" fill="url(#paint66_linear_1_1572)"/>
<path d="M57.4754 98.6531C57.4754 98.6531 56.58 95.2113 55.0358 96.1724C53.4915 97.1417 55.8408 100.033 57.0811 100.165L57.4754 98.6531Z" fill="url(#paint67_linear_1_1572)"/>
<path d="M84.566 134.229C84.566 134.229 87.745 137.342 88.361 136.89C88.5828 136.726 89.1332 136.143 89.6671 135.494C90.045 135.034 90.086 134.385 89.7575 133.884L89.01 132.725C88.2953 131.625 86.7675 131.395 85.7735 132.257C85.2725 132.693 84.8207 133.317 84.566 134.229Z" fill="url(#paint68_linear_1_1572)"/>
<path d="M135.724 156.703C134.008 148.563 132.299 143.848 126.557 128.405C124.75 123.55 123.107 118.63 123.904 113.513L124.791 107.763C124.791 107.763 135.946 103.984 148.317 107.607C148.317 107.607 165.189 114.934 153.73 151.134C148.563 156.909 142.518 158.56 135.724 156.703Z" fill="url(#paint69_linear_1_1572)"/>
<path d="M126.689 100.419L129.581 107.368C129.761 107.803 130.156 108.124 130.624 108.198C132.291 108.485 136.324 108.929 138.978 107.187C139.29 106.982 139.372 106.547 139.158 106.243L133.811 98.5706L126.689 100.419Z" fill="url(#paint70_linear_1_1572)"/>
<path d="M133.827 133.079C133.425 133.185 133.228 133.629 133.425 133.999L141.795 150.049C141.935 150.32 142.247 150.452 142.543 150.37L169.921 142.468C170.257 142.369 170.455 142.016 170.356 141.671L165.641 125.349C165.543 125.012 165.198 124.815 164.861 124.905L133.827 133.079Z" fill="url(#paint71_linear_1_1572)"/>
<path d="M135.593 131.189C135.199 131.28 134.977 131.699 135.117 132.077L141.82 150.279C141.943 150.608 142.296 150.789 142.641 150.69L169.937 142.813C170.274 142.714 170.479 142.369 170.405 142.024L166.627 124.511C166.545 124.142 166.183 123.912 165.814 124.002L135.593 131.189Z" fill="url(#paint72_linear_1_1572)"/>
<path d="M137.967 129.357C137.491 129.431 137.17 129.891 137.285 130.368L141.836 150.016C141.943 150.485 142.419 150.756 142.879 150.624L169.765 142.862C170.2 142.739 170.455 142.295 170.34 141.86L166.208 125.825C166.101 125.415 165.699 125.143 165.28 125.209L137.967 129.357Z" fill="url(#paint73_linear_1_1572)"/>
<path d="M159.727 136.849C161.813 121.086 149.664 108.97 149.664 108.97L142.436 117.398C147.923 124.24 150.527 130.5 151.718 135.428C153.311 134.96 157.115 134.237 159.727 136.849Z" fill="url(#paint74_linear_1_1572)"/>
<path d="M151.726 135.871C151.521 135.871 151.34 135.732 151.291 135.526C149.82 129.456 146.723 123.451 142.091 117.677C141.934 117.488 141.967 117.2 142.156 117.044C142.345 116.888 142.633 116.921 142.789 117.11C147.504 122.991 150.658 129.119 152.161 135.313C152.219 135.551 152.071 135.797 151.833 135.855C151.8 135.863 151.767 135.871 151.726 135.871Z" fill="url(#paint75_linear_1_1572)"/>
<path d="M151.726 135.42C152.835 139.995 152.72 143.404 152.548 145.039C152.482 145.655 151.989 146.131 151.373 146.172C150.675 146.222 149.722 146.287 148.868 146.337C147.931 146.394 146.896 145.803 146.198 145.302C145.845 145.047 145.385 145.441 145.582 145.827C146.099 146.838 147.414 147.741 148.325 148.275C148.654 148.472 148.596 148.965 148.227 149.064L144.35 150.165C150.724 156.169 154.93 149.45 154.93 149.45C157.739 145.104 159.193 140.858 159.727 136.841C157.115 134.237 153.311 134.96 151.726 135.42Z" fill="url(#paint76_linear_1_1572)"/>
<path d="M129.679 89.7811C129.556 89.8961 124.553 99.7286 124.553 99.7286L130.229 102.464L136.357 93.8471C136.357 93.8553 131.716 87.8671 129.679 89.7811Z" fill="url(#paint77_linear_1_1572)"/>
<path d="M133.778 94.8902L130.944 99.6052C130.903 99.6791 130.853 99.7448 130.788 99.8023C130.451 100.114 129.301 101.026 128.406 99.7859C127.65 98.7262 126.935 97.7652 126.171 97.3709C125.728 97.1409 125.177 97.3216 124.947 97.7734C124.479 98.7016 123.576 100.583 123.009 102.365C122.869 102.817 123.099 103.293 123.535 103.466C124.685 103.934 126.952 104.772 128.972 105.051C129.301 105.101 129.63 104.961 129.827 104.69C130.697 103.499 133.137 100.18 133.975 99.3505C134.747 98.5784 136.176 98.8659 136.825 99.0548C137.072 99.1287 137.326 99.0877 137.548 98.9562C138.205 98.562 139.339 97.5845 138.296 95.9252C138.033 95.5145 138.172 94.9641 138.575 94.693C139.306 94.2166 140.095 93.313 139.339 91.8509C138.575 90.3723 137.211 90.2409 136.283 90.3559C135.872 90.4052 135.453 90.1916 135.297 89.8055C135.223 89.633 135.092 89.4934 134.829 89.4359C134.345 89.3373 134.024 88.8937 134.115 88.4009C134.279 87.563 134.156 86.4787 132.817 85.7477C130.369 84.4005 128.225 86.5937 127.675 88.4502C127.132 90.2984 129.868 91.6127 131.585 91.8262C132.85 91.9905 133.54 93.3705 133.819 94.0852C133.95 94.3562 133.926 94.6437 133.778 94.8902Z" fill="url(#paint78_linear_1_1572)"/>
<path d="M132.915 101.084C132.915 101.084 134.008 97.897 135.396 98.012C136.792 98.127 137.885 99.5152 136.16 101.076C134.016 103.023 132.915 101.084 132.915 101.084Z" fill="url(#paint79_linear_1_1572)"/>
<path d="M134.624 228.48C137.318 228.71 141.992 229.088 145.68 229.252C147.898 229.351 149.171 229.129 149.911 228.841C149.911 228.924 149.911 229.006 149.902 229.071C149.886 229.458 149.566 229.77 149.179 229.794C142.214 230.18 136.669 229.926 134.698 229.811C134.287 229.786 134.049 229.343 134.254 228.998C134.361 228.817 134.492 228.644 134.624 228.48Z" fill="url(#paint80_linear_1_1572)"/>
<path d="M145.688 229.252C142 229.088 137.326 228.71 134.632 228.48C137.285 225.227 145.688 223.042 145.688 223.042H148.062C149.697 225.399 149.935 227.642 149.911 228.841C149.18 229.129 147.898 229.351 145.688 229.252Z" fill="url(#paint81_linear_1_1572)"/>
<path d="M148.457 219.156L148.235 223.551C148.211 224.027 147.857 224.43 147.381 224.496C146.904 224.561 146.272 224.57 145.598 224.348C145.188 224.208 144.876 223.863 144.802 223.436L144.038 219.156H148.457Z" fill="url(#paint82_linear_1_1572)"/>
<path d="M179.31 229.219C180.476 229.055 181.01 228.447 181.232 227.798C181.232 227.806 181.232 227.806 181.24 227.814C181.412 228.496 181.01 229.211 180.213 229.548C179.252 229.958 178.201 230.024 177.379 229.991C176.5 229.958 175.695 229.589 175.252 229.014L175.244 229.005C176.122 229.441 177.355 229.49 179.31 229.219Z" fill="url(#paint83_linear_1_1572)"/>
<path d="M173.798 219.131H175.753C178.735 219.074 180.608 225.366 181.224 227.798C181.002 228.447 180.476 229.054 179.301 229.219C177.355 229.49 176.114 229.44 175.235 229.005C173.625 226.886 172.829 223.781 172.443 221.965C172.007 219.904 173.798 219.131 173.798 219.131Z" fill="url(#paint84_linear_1_1572)"/>
<path d="M175.507 215.049L176.591 219.378C176.722 219.912 176.468 220.454 175.983 220.708C175.375 221.02 174.521 221.349 173.732 221.25C173.363 221.209 173.05 220.947 172.935 220.593L171.342 216.043L175.507 215.049Z" fill="url(#paint85_linear_1_1572)"/>
<path d="M176.804 216.297C175.449 217.497 171.046 217.653 171.046 217.653C155.193 179.604 148.58 169.131 148.58 169.131C150.872 183.49 149.073 220.355 149.073 220.355C146.461 221.514 143.085 220.355 143.085 220.355C142.871 196.846 139.561 171.579 135.289 155.413C146.001 155.175 151.825 152.834 153.689 151.363C162.626 165.771 176.804 216.297 176.804 216.297Z" fill="url(#paint86_linear_1_1572)"/>
</g>
<defs>
<linearGradient id="paint0_linear_1_1572" x1="77.6269" y1="212.523" x2="66.5928" y2="-114.093" gradientUnits="userSpaceOnUse">
<stop stop-color="#2B3582"/>
<stop offset="1" stop-color="#150E42"/>
</linearGradient>
<linearGradient id="paint1_linear_1_1572" x1="-26.4196" y1="182.804" x2="98.6363" y2="262.251" gradientUnits="userSpaceOnUse">
<stop stop-color="#A737D5"/>
<stop offset="1" stop-color="#EF497A"/>
</linearGradient>
<linearGradient id="paint2_linear_1_1572" x1="-15.9227" y1="166.281" x2="109.133" y2="245.728" gradientUnits="userSpaceOnUse">
<stop stop-color="#A737D5"/>
<stop offset="1" stop-color="#EF497A"/>
</linearGradient>
<linearGradient id="paint3_linear_1_1572" x1="146.056" y1="21.7717" x2="-11.8708" y2="249.072" gradientUnits="userSpaceOnUse">
<stop stop-color="#53D8FF"/>
<stop offset="1" stop-color="#3840F7"/>
</linearGradient>
<linearGradient id="paint4_linear_1_1572" x1="94.917" y1="-15.2813" x2="39.7338" y2="57.3109" gradientUnits="userSpaceOnUse">
<stop stop-color="#2B3582"/>
<stop offset="1" stop-color="#150E42"/>
</linearGradient>
<linearGradient id="paint5_linear_1_1572" x1="100.97" y1="-10.68" x2="45.7872" y2="61.9123" gradientUnits="userSpaceOnUse">
<stop stop-color="#2B3582"/>
<stop offset="1" stop-color="#150E42"/>
</linearGradient>
<linearGradient id="paint6_linear_1_1572" x1="94.0161" y1="-6.23953" x2="55.9132" y2="63.725" gradientUnits="userSpaceOnUse">
<stop stop-color="#53D8FF"/>
<stop offset="1" stop-color="#3840F7"/>
</linearGradient>
<linearGradient id="paint7_linear_1_1572" x1="83.3429" y1="181.666" x2="132.484" y2="181.666" gradientUnits="userSpaceOnUse">
<stop stop-color="#2B3582"/>
<stop offset="1" stop-color="#150E42"/>
</linearGradient>
<linearGradient id="paint8_linear_1_1572" x1="143.66" y1="22.0502" x2="135.455" y2="102.831" gradientUnits="userSpaceOnUse">
<stop stop-color="#A737D5"/>
<stop offset="1" stop-color="#EF497A"/>
</linearGradient>
<linearGradient id="paint9_linear_1_1572" x1="111.267" y1="39.7157" x2="171.937" y2="39.7157" gradientUnits="userSpaceOnUse">
<stop stop-color="#B37CFF"/>
<stop offset="1" stop-color="#F895E7"/>
</linearGradient>
<linearGradient id="paint10_linear_1_1572" x1="114.841" y1="22.9843" x2="124.545" y2="1.21903" gradientUnits="userSpaceOnUse">
<stop stop-color="#A737D5"/>
<stop offset="1" stop-color="#EF497A"/>
</linearGradient>
<linearGradient id="paint11_linear_1_1572" x1="118.762" y1="24.7322" x2="128.465" y2="2.96698" gradientUnits="userSpaceOnUse">
<stop stop-color="#A737D5"/>
<stop offset="1" stop-color="#EF497A"/>
</linearGradient>
<linearGradient id="paint12_linear_1_1572" x1="122.225" y1="26.2762" x2="131.928" y2="4.51096" gradientUnits="userSpaceOnUse">
<stop stop-color="#A737D5"/>
<stop offset="1" stop-color="#EF497A"/>
</linearGradient>
<linearGradient id="paint13_linear_1_1572" x1="126.145" y1="28.0241" x2="135.849" y2="6.25883" gradientUnits="userSpaceOnUse">
<stop stop-color="#A737D5"/>
<stop offset="1" stop-color="#EF497A"/>
</linearGradient>
<linearGradient id="paint14_linear_1_1572" x1="129.608" y1="29.568" x2="139.312" y2="7.80275" gradientUnits="userSpaceOnUse">
<stop stop-color="#A737D5"/>
<stop offset="1" stop-color="#EF497A"/>
</linearGradient>
<linearGradient id="paint15_linear_1_1572" x1="133.529" y1="31.316" x2="143.233" y2="9.55071" gradientUnits="userSpaceOnUse">
<stop stop-color="#A737D5"/>
<stop offset="1" stop-color="#EF497A"/>
</linearGradient>
<linearGradient id="paint16_linear_1_1572" x1="136.992" y1="32.8599" x2="146.696" y2="11.0947" gradientUnits="userSpaceOnUse">
<stop stop-color="#A737D5"/>
<stop offset="1" stop-color="#EF497A"/>
</linearGradient>
<linearGradient id="paint17_linear_1_1572" x1="140.912" y1="34.6078" x2="150.616" y2="12.8426" gradientUnits="userSpaceOnUse">
<stop stop-color="#A737D5"/>
<stop offset="1" stop-color="#EF497A"/>
</linearGradient>
<linearGradient id="paint18_linear_1_1572" x1="144.375" y1="36.1518" x2="154.079" y2="14.3865" gradientUnits="userSpaceOnUse">
<stop stop-color="#A737D5"/>
<stop offset="1" stop-color="#EF497A"/>
</linearGradient>
<linearGradient id="paint19_linear_1_1572" x1="148.296" y1="37.8997" x2="158" y2="16.1344" gradientUnits="userSpaceOnUse">
<stop stop-color="#A737D5"/>
<stop offset="1" stop-color="#EF497A"/>
</linearGradient>
<linearGradient id="paint20_linear_1_1572" x1="151.759" y1="39.4436" x2="161.463" y2="17.6784" gradientUnits="userSpaceOnUse">
<stop stop-color="#A737D5"/>
<stop offset="1" stop-color="#EF497A"/>
</linearGradient>
<linearGradient id="paint21_linear_1_1572" x1="155.68" y1="41.1915" x2="165.383" y2="19.4262" gradientUnits="userSpaceOnUse">
<stop stop-color="#A737D5"/>
<stop offset="1" stop-color="#EF497A"/>
</linearGradient>
<linearGradient id="paint22_linear_1_1572" x1="56.9295" y1="-13.8301" x2="134.463" y2="43.447" gradientUnits="userSpaceOnUse">
<stop stop-color="#FDF53F"/>
<stop offset="0.6645" stop-color="#E57A58"/>
<stop offset="1" stop-color="#D93C65"/>
</linearGradient>
<linearGradient id="paint23_linear_1_1572" x1="179.505" y1="12.9533" x2="74.7303" y2="21.3352" gradientUnits="userSpaceOnUse">
<stop stop-color="#FDF53F"/>
<stop offset="0.6645" stop-color="#E57A58"/>
<stop offset="1" stop-color="#D93C65"/>
</linearGradient>
<linearGradient id="paint24_linear_1_1572" x1="179.538" y1="13.3674" x2="74.7636" y2="21.7494" gradientUnits="userSpaceOnUse">
<stop stop-color="#FDF53F"/>
<stop offset="0.6645" stop-color="#E57A58"/>
<stop offset="1" stop-color="#D93C65"/>
</linearGradient>
<linearGradient id="paint25_linear_1_1572" x1="179.566" y1="13.7117" x2="74.7907" y2="22.0937" gradientUnits="userSpaceOnUse">
<stop stop-color="#FDF53F"/>
<stop offset="0.6645" stop-color="#E57A58"/>
<stop offset="1" stop-color="#D93C65"/>
</linearGradient>
<linearGradient id="paint26_linear_1_1572" x1="179.594" y1="14.0663" x2="74.8191" y2="22.4482" gradientUnits="userSpaceOnUse">
<stop stop-color="#FDF53F"/>
<stop offset="0.6645" stop-color="#E57A58"/>
<stop offset="1" stop-color="#D93C65"/>
</linearGradient>
<linearGradient id="paint27_linear_1_1572" x1="179.621" y1="14.3941" x2="74.8454" y2="22.7761" gradientUnits="userSpaceOnUse">
<stop stop-color="#FDF53F"/>
<stop offset="0.6645" stop-color="#E57A58"/>
<stop offset="1" stop-color="#D93C65"/>
</linearGradient>
<linearGradient id="paint28_linear_1_1572" x1="179.649" y1="14.7487" x2="74.8741" y2="23.1307" gradientUnits="userSpaceOnUse">
<stop stop-color="#FDF53F"/>
<stop offset="0.6645" stop-color="#E57A58"/>
<stop offset="1" stop-color="#D93C65"/>
</linearGradient>
<linearGradient id="paint29_linear_1_1572" x1="179.676" y1="15.093" x2="74.9014" y2="23.4749" gradientUnits="userSpaceOnUse">
<stop stop-color="#FDF53F"/>
<stop offset="0.6645" stop-color="#E57A58"/>
<stop offset="1" stop-color="#D93C65"/>
</linearGradient>
<linearGradient id="paint30_linear_1_1572" x1="179.707" y1="15.4774" x2="74.9322" y2="23.8593" gradientUnits="userSpaceOnUse">
<stop stop-color="#FDF53F"/>
<stop offset="0.6645" stop-color="#E57A58"/>
<stop offset="1" stop-color="#D93C65"/>
</linearGradient>
<linearGradient id="paint31_linear_1_1572" x1="179.731" y1="15.7693" x2="74.9558" y2="24.1512" gradientUnits="userSpaceOnUse">
<stop stop-color="#FDF53F"/>
<stop offset="0.6645" stop-color="#E57A58"/>
<stop offset="1" stop-color="#D93C65"/>
</linearGradient>
<linearGradient id="paint32_linear_1_1572" x1="179.758" y1="16.1135" x2="74.9833" y2="24.4954" gradientUnits="userSpaceOnUse">
<stop stop-color="#FDF53F"/>
<stop offset="0.6645" stop-color="#E57A58"/>
<stop offset="1" stop-color="#D93C65"/>
</linearGradient>
<linearGradient id="paint33_linear_1_1572" x1="179.821" y1="16.8961" x2="75.0457" y2="25.278" gradientUnits="userSpaceOnUse">
<stop stop-color="#FDF53F"/>
<stop offset="0.6645" stop-color="#E57A58"/>
<stop offset="1" stop-color="#D93C65"/>
</linearGradient>
<linearGradient id="paint34_linear_1_1572" x1="179.789" y1="16.4979" x2="75.0139" y2="24.8798" gradientUnits="userSpaceOnUse">
<stop stop-color="#FDF53F"/>
<stop offset="0.6645" stop-color="#E57A58"/>
<stop offset="1" stop-color="#D93C65"/>
</linearGradient>
<linearGradient id="paint35_linear_1_1572" x1="38.0796" y1="76.102" x2="47.0402" y2="57.3739" gradientUnits="userSpaceOnUse">
<stop stop-color="#FDF53F"/>
<stop offset="1" stop-color="#D93C65"/>
</linearGradient>
<linearGradient id="paint36_linear_1_1572" x1="51.427" y1="44.2972" x2="28.6022" y2="113.212" gradientUnits="userSpaceOnUse">
<stop stop-color="#FDF53F"/>
<stop offset="1" stop-color="#D93C65"/>
</linearGradient>
<linearGradient id="paint37_linear_1_1572" x1="50.7272" y1="46.284" x2="39.5127" y2="86.4417" gradientUnits="userSpaceOnUse">
<stop stop-color="#FDF53F"/>
<stop offset="1" stop-color="#D93C65"/>
</linearGradient>
<linearGradient id="paint38_linear_1_1572" x1="55.9256" y1="71.1641" x2="71.5243" y2="38.5616" gradientUnits="userSpaceOnUse">
<stop stop-color="#FDF53F"/>
<stop offset="1" stop-color="#D93C65"/>
</linearGradient>
<linearGradient id="paint39_linear_1_1572" x1="79.1608" y1="15.7973" x2="39.4268" y2="135.767" gradientUnits="userSpaceOnUse">
<stop stop-color="#FDF53F"/>
<stop offset="1" stop-color="#D93C65"/>
</linearGradient>
<linearGradient id="paint40_linear_1_1572" x1="77.9429" y1="19.2564" x2="58.4204" y2="89.1642" gradientUnits="userSpaceOnUse">
<stop stop-color="#FDF53F"/>
<stop offset="1" stop-color="#D93C65"/>
</linearGradient>
<linearGradient id="paint41_linear_1_1572" x1="77.4553" y1="106.864" x2="93.5062" y2="73.317" gradientUnits="userSpaceOnUse">
<stop stop-color="#FDF53F"/>
<stop offset="1" stop-color="#D93C65"/>
</linearGradient>
<linearGradient id="paint42_linear_1_1572" x1="101.364" y1="49.8931" x2="60.4782" y2="173.34" gradientUnits="userSpaceOnUse">
<stop stop-color="#FDF53F"/>
<stop offset="1" stop-color="#D93C65"/>
</linearGradient>
<linearGradient id="paint43_linear_1_1572" x1="100.111" y1="53.4527" x2="80.0222" y2="125.387" gradientUnits="userSpaceOnUse">
<stop stop-color="#FDF53F"/>
<stop offset="1" stop-color="#D93C65"/>
</linearGradient>
<linearGradient id="paint44_linear_1_1572" x1="97.7847" y1="67.8458" x2="109.545" y2="43.2657" gradientUnits="userSpaceOnUse">
<stop stop-color="#FDF53F"/>
<stop offset="1" stop-color="#D93C65"/>
</linearGradient>
<linearGradient id="paint45_linear_1_1572" x1="115.302" y1="26.1029" x2="85.3457" y2="116.552" gradientUnits="userSpaceOnUse">
<stop stop-color="#FDF53F"/>
<stop offset="1" stop-color="#D93C65"/>
</linearGradient>
<linearGradient id="paint46_linear_1_1572" x1="114.384" y1="28.711" x2="99.6655" y2="81.4168" gradientUnits="userSpaceOnUse">
<stop stop-color="#FDF53F"/>
<stop offset="1" stop-color="#D93C65"/>
</linearGradient>
<linearGradient id="paint47_linear_1_1572" x1="87.1211" y1="102.066" x2="76.5106" y2="136.347" gradientUnits="userSpaceOnUse">
<stop stop-color="#53D8FF"/>
<stop offset="1" stop-color="#3840F7"/>
</linearGradient>
<linearGradient id="paint48_linear_1_1572" x1="48.585" y1="230.817" x2="49.1291" y2="193.817" gradientUnits="userSpaceOnUse">
<stop stop-color="#2B3582"/>
<stop offset="1" stop-color="#150E42"/>
</linearGradient>
<linearGradient id="paint49_linear_1_1572" x1="46.2398" y1="213.353" x2="44.2687" y2="230.555" gradientUnits="userSpaceOnUse">
<stop stop-color="#F9B776"/>
<stop offset="1" stop-color="#F47960"/>
</linearGradient>
<linearGradient id="paint50_linear_1_1572" x1="66.5048" y1="231.081" x2="67.049" y2="194.081" gradientUnits="userSpaceOnUse">
<stop stop-color="#2B3582"/>
<stop offset="1" stop-color="#150E42"/>
</linearGradient>
<linearGradient id="paint51_linear_1_1572" x1="103.628" y1="107.176" x2="93.0179" y2="141.457" gradientUnits="userSpaceOnUse">
<stop stop-color="#53D8FF"/>
<stop offset="1" stop-color="#3840F7"/>
</linearGradient>
<linearGradient id="paint52_linear_1_1572" x1="62.0264" y1="215.17" x2="61.1413" y2="232.462" gradientUnits="userSpaceOnUse">
<stop stop-color="#F9B776"/>
<stop offset="1" stop-color="#F47960"/>
</linearGradient>
<linearGradient id="paint53_linear_1_1572" x1="60.0423" y1="199.177" x2="-52.3042" y2="61.3656" gradientUnits="userSpaceOnUse">
<stop stop-color="#2B3582"/>
<stop offset="1" stop-color="#150E42"/>
</linearGradient>
<linearGradient id="paint54_linear_1_1572" x1="84.9668" y1="128.78" x2="106.927" y2="128.78" gradientUnits="userSpaceOnUse">
<stop stop-color="#F9B776"/>
<stop offset="1" stop-color="#F47960"/>
</linearGradient>
<linearGradient id="paint55_linear_1_1572" x1="114.576" y1="111.538" x2="115.867" y2="144.522" gradientUnits="userSpaceOnUse">
<stop stop-color="#CB236D"/>
<stop offset="1" stop-color="#4C246D"/>
</linearGradient>
<linearGradient id="paint56_linear_1_1572" x1="57.7425" y1="122.403" x2="17.7488" y2="177.361" gradientUnits="userSpaceOnUse">
<stop stop-color="#FDF53F"/>
<stop offset="1" stop-color="#D93C65"/>
</linearGradient>
<linearGradient id="paint57_linear_1_1572" x1="98.5947" y1="107.741" x2="64.1434" y2="124.879" gradientUnits="userSpaceOnUse">
<stop stop-color="#F9B776"/>
<stop offset="1" stop-color="#F47960"/>
</linearGradient>
<linearGradient id="paint58_linear_1_1572" x1="98.0901" y1="103.443" x2="93.0091" y2="108.75" gradientUnits="userSpaceOnUse">
<stop stop-color="#F9B776"/>
<stop offset="1" stop-color="#F47960"/>
</linearGradient>
<linearGradient id="paint59_linear_1_1572" x1="98.7583" y1="107.538" x2="64.3072" y2="124.676" gradientUnits="userSpaceOnUse">
<stop stop-color="#F9B776"/>
<stop offset="1" stop-color="#F47960"/>
</linearGradient>
<linearGradient id="paint60_linear_1_1572" x1="59.971" y1="124.025" x2="19.9772" y2="178.983" gradientUnits="userSpaceOnUse">
<stop stop-color="#FDF53F"/>
<stop offset="1" stop-color="#D93C65"/>
</linearGradient>
<linearGradient id="paint61_linear_1_1572" x1="54.1028" y1="113.093" x2="58.6807" y2="100.592" gradientUnits="userSpaceOnUse">
<stop stop-color="#F9B776"/>
<stop offset="1" stop-color="#F47960"/>
</linearGradient>
<linearGradient id="paint62_linear_1_1572" x1="76.7881" y1="127.63" x2="42.754" y2="186.767" gradientUnits="userSpaceOnUse">
<stop stop-color="#F9B776"/>
<stop offset="1" stop-color="#F47960"/>
</linearGradient>
<linearGradient id="paint63_linear_1_1572" x1="63.2893" y1="94.8906" x2="41.796" y2="146.311" gradientUnits="userSpaceOnUse">
<stop stop-color="#FDF53F"/>
<stop offset="1" stop-color="#D93C65"/>
</linearGradient>
<linearGradient id="paint64_linear_1_1572" x1="64.3985" y1="95.3545" x2="42.9053" y2="146.775" gradientUnits="userSpaceOnUse">
<stop stop-color="#FDF53F"/>
<stop offset="1" stop-color="#D93C65"/>
</linearGradient>
<linearGradient id="paint65_linear_1_1572" x1="65.3548" y1="94.3409" x2="38.0792" y2="116.065" gradientUnits="userSpaceOnUse">
<stop stop-color="#F9B776"/>
<stop offset="1" stop-color="#F47960"/>
</linearGradient>
<linearGradient id="paint66_linear_1_1572" x1="54.8251" y1="87.1947" x2="67.3267" y2="103.29" gradientUnits="userSpaceOnUse">
<stop stop-color="#2B3582"/>
<stop offset="1" stop-color="#150E42"/>
</linearGradient>
<linearGradient id="paint67_linear_1_1572" x1="62.6094" y1="93.151" x2="49.1864" y2="103.422" gradientUnits="userSpaceOnUse">
<stop stop-color="#F9B776"/>
<stop offset="1" stop-color="#F47960"/>
</linearGradient>
<linearGradient id="paint68_linear_1_1572" x1="84.5694" y1="134.333" x2="89.9809" y2="134.333" gradientUnits="userSpaceOnUse">
<stop stop-color="#F9B776"/>
<stop offset="1" stop-color="#F47960"/>
</linearGradient>
<linearGradient id="paint69_linear_1_1572" x1="124.503" y1="122.821" x2="170.03" y2="147.059" gradientUnits="userSpaceOnUse">
<stop stop-color="#CB236D"/>
<stop offset="1" stop-color="#4C246D"/>
</linearGradient>
<linearGradient id="paint70_linear_1_1572" x1="134.102" y1="106.816" x2="130.581" y2="96.2518" gradientUnits="userSpaceOnUse">
<stop stop-color="#F9B776"/>
<stop offset="1" stop-color="#F47960"/>
</linearGradient>
<linearGradient id="paint71_linear_1_1572" x1="133.346" y1="137.634" x2="170.379" y2="137.634" gradientUnits="userSpaceOnUse">
<stop stop-color="#9CFFFB"/>
<stop offset="1" stop-color="#9BFFFA"/>
</linearGradient>
<linearGradient id="paint72_linear_1_1572" x1="135.074" y1="137.349" x2="170.414" y2="137.349" gradientUnits="userSpaceOnUse">
<stop stop-color="#9CFFFB"/>
<stop offset="1" stop-color="#9BFFFA"/>
</linearGradient>
<linearGradient id="paint73_linear_1_1572" x1="153.3" y1="133.838" x2="160.813" y2="167.526" gradientUnits="userSpaceOnUse">
<stop stop-color="#FDF53F"/>
<stop offset="1" stop-color="#D93C65"/>
</linearGradient>
<linearGradient id="paint74_linear_1_1572" x1="131" y1="111.708" x2="179.947" y2="137.766" gradientUnits="userSpaceOnUse">
<stop stop-color="#CB236D"/>
<stop offset="1" stop-color="#4C246D"/>
</linearGradient>
<linearGradient id="paint75_linear_1_1572" x1="172.535" y1="97.2931" x2="138.527" y2="136.199" gradientUnits="userSpaceOnUse">
<stop stop-color="#CB236D"/>
<stop offset="1" stop-color="#4C246D"/>
</linearGradient>
<linearGradient id="paint76_linear_1_1572" x1="155.482" y1="137.588" x2="144.038" y2="159.596" gradientUnits="userSpaceOnUse">
<stop stop-color="#F9B776"/>
<stop offset="1" stop-color="#F47960"/>
</linearGradient>
<linearGradient id="paint77_linear_1_1572" x1="131.331" y1="91.6408" x2="127.814" y2="112.333" gradientUnits="userSpaceOnUse">
<stop stop-color="#F9B776"/>
<stop offset="1" stop-color="#F47960"/>
</linearGradient>
<linearGradient id="paint78_linear_1_1572" x1="135.028" y1="101.435" x2="124.666" y2="90.4266" gradientUnits="userSpaceOnUse">
<stop stop-color="#2B3582"/>
<stop offset="1" stop-color="#150E42"/>
</linearGradient>
<linearGradient id="paint79_linear_1_1572" x1="134.382" y1="114.227" x2="135.007" y2="99.6963" gradientUnits="userSpaceOnUse">
<stop stop-color="#F9B776"/>
<stop offset="1" stop-color="#F47960"/>
</linearGradient>
<linearGradient id="paint80_linear_1_1572" x1="142.047" y1="200.607" x2="142.047" y2="232.53" gradientUnits="userSpaceOnUse">
<stop stop-color="#2B3582"/>
<stop offset="1" stop-color="#150E42"/>
</linearGradient>
<linearGradient id="paint81_linear_1_1572" x1="149.912" y1="226.156" x2="134.626" y2="226.156" gradientUnits="userSpaceOnUse">
<stop stop-color="#CB236D"/>
<stop offset="1" stop-color="#4C246D"/>
</linearGradient>
<linearGradient id="paint82_linear_1_1572" x1="148.46" y1="221.852" x2="144.029" y2="221.852" gradientUnits="userSpaceOnUse">
<stop stop-color="#F9B776"/>
<stop offset="1" stop-color="#F47960"/>
</linearGradient>
<linearGradient id="paint83_linear_1_1572" x1="178.256" y1="200.607" x2="178.256" y2="232.529" gradientUnits="userSpaceOnUse">
<stop stop-color="#2B3582"/>
<stop offset="1" stop-color="#150E42"/>
</linearGradient>
<linearGradient id="paint84_linear_1_1572" x1="181.226" y1="224.258" x2="172.378" y2="224.258" gradientUnits="userSpaceOnUse">
<stop stop-color="#CB236D"/>
<stop offset="1" stop-color="#4C246D"/>
</linearGradient>
<linearGradient id="paint85_linear_1_1572" x1="176.627" y1="218.158" x2="171.332" y2="218.158" gradientUnits="userSpaceOnUse">
<stop stop-color="#F9B776"/>
<stop offset="1" stop-color="#F47960"/>
</linearGradient>
<linearGradient id="paint86_linear_1_1572" x1="203.748" y1="61.9711" x2="144.985" y2="214.592" gradientUnits="userSpaceOnUse">
<stop stop-color="#53D8FF"/>
<stop offset="0.2057" stop-color="#4DB9FD"/>
<stop offset="1" stop-color="#3840F7"/>
</linearGradient>
</defs>
</svg>
