<svg width="162" height="24" viewBox="0 0 162 24" fill="none" xmlns="http://www.w3.org/2000/svg">
<path d="M2.144 23.128C1.504 23.128 0.96 23.0853 0.512 23V19.8C0.853333 19.8853 1.23733 19.928 1.664 19.928C2.368 19.928 2.89067 19.7573 3.232 19.416C3.57333 19.0533 3.744 18.5093 3.744 17.784V0.599998H7.264V17.688C7.264 19.5227 6.83733 20.888 5.984 21.784C5.152 22.68 3.872 23.128 2.144 23.128ZM12.2783 0.599998H17.0463L20.6943 23H17.1743L16.5343 18.552V18.616H12.5343L11.8943 23H8.63025L12.2783 0.599998ZM16.1183 15.576L14.5503 4.504H14.4863L12.9503 15.576H16.1183ZM27.1395 23.32C25.4542 23.32 24.1635 22.84 23.2675 21.88C22.3928 20.92 21.9555 19.5653 21.9555 17.816V5.784C21.9555 4.03467 22.3928 2.68 23.2675 1.72C24.1635 0.759999 25.4542 0.279999 27.1395 0.279999C28.8248 0.279999 30.1048 0.759999 30.9795 1.72C31.8755 2.68 32.3235 4.03467 32.3235 5.784V8.152H28.9955V5.56C28.9955 4.17333 28.4088 3.48 27.2355 3.48C26.0622 3.48 25.4755 4.17333 25.4755 5.56V18.072C25.4755 19.4373 26.0622 20.12 27.2355 20.12C28.4088 20.12 28.9955 19.4373 28.9955 18.072V14.648H32.3235V17.816C32.3235 19.5653 31.8755 20.92 30.9795 21.88C30.1048 22.84 28.8248 23.32 27.1395 23.32ZM34.2695 0.599998H37.7895V10.04L42.2695 0.599998H45.7895L41.5975 8.824L45.8535 23H42.1735L39.1975 13.016L37.7895 15.864V23H34.2695V0.599998ZM47.3595 0.599998H52.5435C54.2928 0.599998 55.6048 1.06933 56.4795 2.008C57.3542 2.94667 57.7915 4.32267 57.7915 6.136V8.344C57.7915 10.1573 57.3542 11.5333 56.4795 12.472C55.6048 13.4107 54.2928 13.88 52.5435 13.88H50.8795V23H47.3595V0.599998ZM52.5435 10.68C53.1195 10.68 53.5462 10.52 53.8235 10.2C54.1222 9.88 54.2715 9.336 54.2715 8.568V5.912C54.2715 5.144 54.1222 4.6 53.8235 4.28C53.5462 3.96 53.1195 3.8 52.5435 3.8H50.8795V10.68H52.5435ZM64.6313 23.32C62.9033 23.32 61.5806 22.8293 60.6633 21.848C59.7459 20.8667 59.2873 19.48 59.2873 17.688V5.912C59.2873 4.12 59.7459 2.73333 60.6633 1.752C61.5806 0.770665 62.9033 0.279999 64.6313 0.279999C66.3593 0.279999 67.6819 0.770665 68.5993 1.752C69.5166 2.73333 69.9753 4.12 69.9753 5.912V17.688C69.9753 19.48 69.5166 20.8667 68.5993 21.848C67.6819 22.8293 66.3593 23.32 64.6313 23.32ZM64.6313 20.12C65.8473 20.12 66.4553 19.384 66.4553 17.912V5.688C66.4553 4.216 65.8473 3.48 64.6313 3.48C63.4153 3.48 62.8073 4.216 62.8073 5.688V17.912C62.8073 19.384 63.4153 20.12 64.6313 20.12ZM74.8228 3.8H71.1428V0.599998H82.0228V3.8H78.3428V23H74.8228V3.8ZM93.108 23.32C91.4013 23.32 90.1107 22.84 89.236 21.88C88.3613 20.8987 87.924 19.5013 87.924 17.688V16.408H91.252V17.944C91.252 19.3947 91.86 20.12 93.076 20.12C93.6733 20.12 94.1213 19.9493 94.42 19.608C94.74 19.2453 94.9 18.6693 94.9 17.88C94.9 16.9413 94.6867 16.12 94.26 15.416C93.8333 14.6907 93.044 13.8267 91.892 12.824C90.4413 11.544 89.428 10.392 88.852 9.368C88.276 8.32267 87.988 7.14933 87.988 5.848C87.988 4.07733 88.436 2.712 89.332 1.752C90.228 0.770665 91.5293 0.279999 93.236 0.279999C94.9213 0.279999 96.1907 0.770665 97.044 1.752C97.9187 2.712 98.356 4.09867 98.356 5.912V6.84H95.028V5.688C95.028 4.92 94.8787 4.36533 94.58 4.024C94.2813 3.66133 93.844 3.48 93.268 3.48C92.0947 3.48 91.508 4.19467 91.508 5.624C91.508 6.43467 91.7213 7.192 92.148 7.896C92.596 8.6 93.396 9.45333 94.548 10.456C96.02 11.736 97.0333 12.8987 97.588 13.944C98.1427 14.9893 98.42 16.216 98.42 17.624C98.42 19.4587 97.9613 20.8667 97.044 21.848C96.148 22.8293 94.836 23.32 93.108 23.32ZM103.323 13.464L99.0667 0.599998H102.811L105.211 8.824H105.275L107.675 0.599998H111.099L106.843 13.464V23H103.323V13.464ZM116.601 23.32C114.894 23.32 113.603 22.84 112.729 21.88C111.854 20.8987 111.417 19.5013 111.417 17.688V16.408H114.745V17.944C114.745 19.3947 115.353 20.12 116.569 20.12C117.166 20.12 117.614 19.9493 117.913 19.608C118.233 19.2453 118.393 18.6693 118.393 17.88C118.393 16.9413 118.179 16.12 117.753 15.416C117.326 14.6907 116.537 13.8267 115.385 12.824C113.934 11.544 112.921 10.392 112.345 9.368C111.769 8.32267 111.481 7.14933 111.481 5.848C111.481 4.07733 111.929 2.712 112.825 1.752C113.721 0.770665 115.022 0.279999 116.729 0.279999C118.414 0.279999 119.683 0.770665 120.537 1.752C121.411 2.712 121.849 4.09867 121.849 5.912V6.84H118.521V5.688C118.521 4.92 118.371 4.36533 118.073 4.024C117.774 3.66133 117.337 3.48 116.761 3.48C115.587 3.48 115.001 4.19467 115.001 5.624C115.001 6.43467 115.214 7.192 115.641 7.896C116.089 8.6 116.889 9.45333 118.041 10.456C119.513 11.736 120.526 12.8987 121.081 13.944C121.635 14.9893 121.913 16.216 121.913 17.624C121.913 19.4587 121.454 20.8667 120.537 21.848C119.641 22.8293 118.329 23.32 116.601 23.32ZM126.523 3.8H122.843V0.599998H133.723V3.8H130.043V23H126.523V3.8ZM135.267 0.599998H144.867V3.8H138.787V9.72H143.619V12.92H138.787V19.8H144.867V23H135.267V0.599998ZM146.732 0.599998H151.756L153.996 16.632H154.06L156.3 0.599998H161.324V23H157.996V6.04H157.932L155.372 23H152.428L149.868 6.04H149.804V23H146.732V0.599998Z" fill="white"/>
</svg>
