<svg width="394" height="85" viewBox="0 0 394 85" fill="none" xmlns="http://www.w3.org/2000/svg">
<path d="M52.9585 75.3714C53.2347 75.4692 53.4779 75.5701 53.8568 75.6937C53.193 75.7454 52.6618 75.785 51.9309 75.834C52.2783 75.9781 52.5213 76.0789 52.7289 76.1566C53.6051 76.2349 54.8514 75.972 55.4087 76.2199C55.2943 76.4324 54.4561 76.4034 54.1672 76.5351C53.9107 76.6551 53.7552 76.7835 53.5027 76.947C54.0055 76.9627 54.5461 77.0277 55.0765 76.9793C55.9053 76.9038 56.5462 76.9684 57.1848 77.0069C58.4959 77.0895 59.7123 77.2334 61.0605 77.3565C60.8727 77.4966 60.6848 77.6367 60.4969 77.7768C61.0668 77.7952 61.6706 77.8193 62.2745 77.8433C62.4758 77.8513 62.7134 77.8912 62.8784 77.8673C64.5296 77.6466 65.1208 77.9002 65.8107 78.136C66.0176 78.2051 66.2567 78.2623 66.3254 78.2824C68.4068 78.3827 70.414 78.0329 72.3439 77.9361C72.6769 77.9234 73.0361 77.8291 73.3976 77.7611C74.9091 77.474 76.3732 77.4021 77.7206 77.5165C79.1351 77.6336 80.6111 77.6924 82.3713 77.5672C83.3342 77.497 84.3043 77.5053 84.9879 77.6714C85.4165 77.606 85.7796 77.5553 86.1426 77.5047C87.0733 77.8152 88.3243 77.9736 90.0577 77.9211C90.9575 77.8918 91.8274 77.9004 92.7264 77.8624C94.6255 77.7948 96.3059 77.8964 98.0164 77.9602C100.466 78.0621 102.917 78.1814 105.43 78.2511C107.004 78.2921 108.456 78.4498 109.968 78.5404C111.75 78.6504 113.628 78.7165 115.659 78.6281L115.594 78.6516C115.571 78.3989 114.734 78.3873 114.129 78.3458C112.279 78.2244 110.367 78.1439 108.486 78.0429C107.613 77.9995 106.804 77.9239 105.962 77.8513C104.68 77.7221 103.173 77.6924 101.699 77.6511C99.2863 77.5897 97.1299 77.3997 94.941 77.2214C94.7721 77.2016 94.6348 77.1614 94.4982 77.1299C94.4856 76.9905 94.8123 76.9081 95.2117 76.8892C96.1091 76.8338 97.0319 76.6883 97.8417 76.7726C97.9088 76.7753 97.9767 76.7867 98.043 76.7806C99.931 76.591 101.255 76.813 102.831 76.8715C105.178 76.9563 107.494 77.0528 109.619 77.272C109.923 77.3058 110.291 77.3075 110.659 77.3091C113.032 77.3125 114.862 77.585 116.756 77.8254C117.533 77.9214 118.213 78.0527 118.99 78.1401C120.069 78.2438 120.624 78.4656 120.853 78.7785L120.818 78.7641C121.182 78.7222 121.545 78.6716 121.878 78.6588C122.377 78.6309 122.65 78.6851 122.661 78.8158C122.676 78.9814 122.212 79.0149 121.747 79.0572L121.713 79.0515C121.985 79.0971 122.225 79.1631 122.528 79.1882C124.345 79.3213 126.004 79.5479 128.042 79.5467C129.579 79.5384 130.736 79.7668 132.369 79.7059C132.568 79.6965 132.707 79.7541 132.877 79.7826C133.832 79.9943 135.007 80.0454 136.564 79.8947C137.271 80.3222 139.154 80.0804 140.466 80.163C140.921 80.0248 140.618 79.9997 140.413 79.9569C140.345 79.9455 140.278 79.9428 140.244 79.9371C139.102 79.5053 137.187 79.3987 135.208 79.3155C134.805 79.2995 134.53 79.2191 134.159 79.1739C133.619 79.1177 133.144 79.038 132.441 79.0317C131.773 79.0311 131.226 78.9052 130.684 78.8228C130.176 78.7461 129.667 78.6695 129.711 78.4195C129.908 78.3752 130.169 78.3075 130.434 78.2833C131.794 78.1595 133.001 78.1989 133.983 78.3465C135.711 78.602 137.791 78.6848 139.615 78.8964C140.831 79.0316 142.207 79.0907 143.581 79.1324C143.611 79.0946 143.605 79.0336 143.704 79.0158C143.868 78.9833 144.067 78.9651 144.266 78.947L144.303 78.9876C144.206 79.0228 144.108 79.0493 143.976 79.07C143.844 79.0908 143.678 79.0972 143.545 79.1093C143.817 79.1548 144.058 79.2383 144.358 79.2285C145.725 79.1918 146.643 79.3542 147.365 79.5783C147.95 79.7622 148.694 79.8613 149.57 79.9396C150.244 80.0012 150.854 80.0949 151.465 80.1887C151.6 80.2114 151.607 80.2811 151.716 80.3766C151.351 80.4098 151.054 80.4544 150.821 80.4582C149.548 80.4335 148.276 80.4089 147.069 80.3695C146.599 80.3508 146.225 80.2795 145.82 80.2286C144.738 80.0987 143.561 80.0215 142.226 80.0377C142.125 80.0381 141.963 80.088 141.832 80.1175C142.122 80.3722 143.416 80.2631 143.901 80.4561L143.834 80.4534C144.104 80.4815 144.675 80.5086 144.645 80.5464C144.401 80.8058 144.977 80.8939 145.611 80.8801C147.178 80.834 148.297 81.0044 149.51 81.1222C149.949 81.1613 150.451 81.1683 150.922 81.2044C151.158 81.2269 151.46 81.2432 151.631 81.2891C152.66 81.5732 154.007 81.6876 155.645 81.6877C156.414 81.6879 157.058 81.7874 157.733 81.8577C158.172 81.9055 158.431 81.8204 158.725 81.7409L158.591 81.7356L158.693 81.7526C159.16 81.7452 159.595 81.7495 160.062 81.7421L160.031 81.7625C159.453 81.657 158.908 81.5485 158.364 81.4487C158.836 81.1246 159.162 81.0334 159.8 81.0632C160.673 81.1066 161.514 81.1705 162.357 81.2431C162.964 81.302 163.477 81.431 164.306 81.3642C164.439 81.3521 164.607 81.3631 164.709 81.3802C165.697 81.5889 166.812 81.7244 168.153 81.7692C168.748 82.0576 169.941 81.9402 171.036 81.8579C171.321 82.0516 170.689 82.0828 170.327 82.1509L170.393 82.1361C171.269 82.2144 172.145 82.2927 173.054 82.3593C173.626 82.4038 174.264 82.4335 174.987 82.2974C175.381 82.2263 175.715 82.2135 175.988 82.2852C176.434 82.4028 177.203 82.4117 177.552 82.5732C177.761 82.6683 178.294 82.6461 178.754 82.5603L178.723 82.5807C178.551 82.5348 178.314 82.495 178.175 82.4374C177.656 82.2474 177.938 82.0373 178.752 81.7962C179.9 81.9288 181.079 82.0322 182.162 82.1795C183.517 82.3723 184.957 82.3993 186.735 82.1055C187.426 81.9898 187.931 82.0229 188.276 82.1408C188.414 82.1897 188.322 82.2859 188.362 82.3526C188.031 82.3915 187.799 82.4126 187.568 82.4425C187.571 82.4774 187.509 82.527 187.576 82.5383C187.948 82.5835 188.318 82.6113 188.689 82.6478C189.262 82.701 189.867 82.7337 190.374 82.793C191.218 82.8917 192.028 82.9761 193.064 82.9696C193.965 82.9577 194.87 82.9807 195.741 83.0067C196.579 83.0358 197.133 83.2401 197.91 83.3362C198.485 83.4068 199.191 83.448 199.861 83.466C201.099 83.4849 202.176 83.5625 203.029 83.7571C204.193 83.326 204.758 83.2834 205.684 83.5503C205.821 83.5818 205.957 83.6046 206.093 83.6361L206.061 83.6478C206.125 83.6156 206.188 83.5747 206.252 83.5425C206.354 83.5596 206.489 83.5824 206.591 83.5995L206.557 83.5938C207.233 83.6728 207.875 83.7548 208.55 83.8164C209.46 83.9091 210.55 83.7658 211.581 83.707C211.781 83.6976 212.105 83.5803 212.266 83.5129C212.618 83.349 212.904 83.1824 213.224 83.0215C212.975 82.8597 212.693 82.7009 212.51 82.5243C212.4 82.4114 212.853 82.2559 213.353 82.2367C213.586 82.2243 213.819 82.2118 213.988 82.2316C214.932 82.3213 215.94 82.3875 216.722 82.5271C217.571 82.6781 218.378 82.7276 219.495 82.5117C220.777 82.6496 221.866 82.8579 223.432 82.803C224.922 83.0186 226.895 83.0234 228.159 83.3299L228.094 83.3446C228.218 83.2454 228.274 83.1261 228.536 83.0584C228.861 82.9585 229.323 82.89 229.717 82.8102C230.721 82.8329 231.66 82.8616 232.765 82.8839C232.923 82.7904 233.082 82.6969 233.308 82.606C233.694 82.4391 234.156 82.3707 234.692 82.392C235.296 82.4161 235.774 82.5306 236.534 82.4263L236.502 82.4468C235.44 82.157 233.962 82.0808 232.327 82.1155C230.726 82.1473 229.38 82.0503 228 81.9476C227.563 81.9171 226.989 81.8552 226.913 81.748C226.686 81.4611 225.848 81.4321 224.942 81.3917C223.465 81.3242 222.28 81.1598 221.874 80.74C221.727 80.5865 222.049 80.4605 222.715 80.4262C223.613 80.3795 224.478 80.3358 225.51 80.2857C225.818 80.3631 226.194 80.4606 226.571 80.5581C227.737 80.891 229.441 80.8851 231.302 80.7595C231.767 80.7259 232.228 80.6488 232.536 80.7349C232.81 80.8065 233.019 80.893 233.194 80.9824C233.298 81.0256 233.303 81.0779 233.341 81.1272C233.573 81.1148 233.741 81.1171 233.872 81.0876C235.313 80.763 236.326 80.8728 237.246 81.07C237.485 81.1273 237.692 81.1963 237.899 81.2653C238.07 81.3112 238.212 81.395 238.479 81.3969C240.32 81.4225 240.703 81.9586 242.285 82.078C242.42 82.0921 242.432 82.2315 242.303 82.2784C242.141 82.3371 241.744 82.3821 241.51 82.3771C240.774 82.3738 240.199 82.2945 239.752 82.1595C239.511 82.0848 239.172 82.0366 238.798 81.9652C238.149 82.1738 237.596 82.3471 237.044 82.5291L237.11 82.5144C238.524 82.6227 240.098 82.655 241.255 82.8922C241.562 82.9521 242.061 82.9329 242.465 82.9577C243.44 83.0269 244.449 83.0931 245.425 83.1624C246.03 83.2038 246.512 83.362 247.432 83.1815C247.596 83.149 248.001 83.1912 248.139 83.2401C248.554 83.3955 248.871 83.5687 249.255 83.7446C249.723 83.7459 250.387 83.6942 250.66 83.7659C251.173 83.8861 251.457 84.0711 251.838 84.2208C252.406 84.213 253.04 84.1992 253.64 84.1884C253.691 84.0168 253.874 83.8157 253.726 83.6623C253.426 83.3031 254.098 82.9695 254.903 82.6326C255.611 82.3397 256.286 82.041 256.963 81.7598C257.69 81.6672 258.16 81.6946 258.57 81.7977C259.29 81.9957 260.075 82.1702 260.826 82.3477C261.851 82.2192 261.692 81.9438 262.477 81.7493C263.14 81.6889 263.969 81.6134 264.897 81.5288C265.364 81.1524 265.834 80.8109 264.777 80.5822C264.573 80.5393 264.628 80.4113 264.553 80.3215C265.503 80.1032 266.437 80.0883 267.298 79.9924L267.265 80.0041C267.589 79.8868 268.013 79.7778 268.204 79.6638C268.962 79.1819 270.353 79.0376 271.688 79.0213C272.823 79.0057 273.92 78.9322 275.078 78.8091C275.906 78.7248 276.575 78.7254 277.152 78.8222C278.069 78.9846 279.083 79.1031 279.611 79.3976C280.069 79.6546 281.147 79.7496 282.026 79.8627C283.85 79.7053 284.376 79.2358 285.548 78.8918C284.939 78.8155 284.332 78.7479 283.757 78.6772C283.708 78.506 283.89 78.3049 283.182 78.2376C282.744 78.1985 282.831 78.05 283.087 77.9213C283.373 77.7634 283.798 77.6545 284.397 77.6262C284.93 77.6041 285.463 77.5819 285.962 77.5627C287.194 77.5119 288.073 77.6164 288.531 77.8821C288.778 78.0177 289.086 78.0951 289.528 78.1778C290.071 78.2776 290.357 78.48 290.774 78.6528C291.442 78.6447 292.177 78.6393 293.012 78.6334C293.178 78.9873 293.994 79.1501 295.428 79.1073C295.961 79.0938 296.43 79.1038 296.965 79.0991C298.636 79.0962 298.977 79.1792 299.289 79.6604C298.571 79.8575 297.854 80.0634 297.105 80.2723C297.36 80.5038 297.579 80.7122 297.799 80.9293C297.252 81.1636 296.464 81.3145 295.709 81.4624C294.953 81.6103 294.2 81.7843 293.376 81.9121C292.52 82.0516 291.627 82.1593 290.571 82.3082C290.376 82.3699 290.086 82.4842 289.727 82.5872C289.369 82.6901 288.976 82.7786 288.584 82.8758C288.533 83.0561 288.481 83.219 288.462 83.3788L288.428 83.3644C289.725 83.2989 291.02 83.2073 292.057 82.8405C292.219 82.7906 292.515 82.7285 292.682 82.7309C293.75 82.7126 294.333 82.5101 294.979 82.2581C295.269 82.1437 295.895 82.0428 296.391 81.9801C297.348 81.8489 298.342 81.7496 299.334 81.6328C299.632 81.5969 299.962 81.558 300.23 81.56C301.201 81.577 302.188 81.4079 303.184 81.3348C303.881 81.28 304.303 81.1362 304.756 80.972C304.676 80.8299 304.396 80.6885 304.55 80.5427C304.672 80.4174 305.262 80.2933 305.618 80.1642C305.708 80.0506 305.341 80.0577 305.105 80.0353C304.259 79.9191 304.118 79.8441 304.729 79.5689C305.178 79.361 305.297 79.2008 305.18 79.0182C305.019 78.7166 304.858 78.4151 304.694 78.0873C305.114 77.9261 305.869 77.7695 306.014 77.5279C306.073 77.4434 306.428 77.2969 306.724 77.2523C307.713 77.1007 308.295 76.8808 308.739 76.6207C308.962 76.495 309.256 76.4243 309.656 76.4142C310.19 76.4007 310.334 76.5193 310.312 76.6443C310.29 76.7693 310.168 76.8946 310.113 77.0227C310.055 77.1245 309.998 77.2264 309.942 77.3457C311.481 77.3636 312.695 77.1212 313.802 76.792C314.388 76.6243 314.905 76.4279 315.489 76.2254C315.594 75.9171 315.594 75.9171 316.762 75.5295C318.743 75.6214 320.79 75.7073 322.937 75.8015C323.3 75.7421 323.793 75.6533 324.321 75.5788C325.541 75.3974 325.843 75.405 326.501 75.6613C326.64 75.7189 326.779 75.7765 326.953 75.8486C328.05 75.7837 329.305 75.6254 329.846 76.0593C330.127 75.8404 330.288 75.7731 330.251 75.7325C329.885 75.3794 329.748 74.9789 328.921 74.7029C328.714 74.6339 328.606 74.5471 328.432 74.4751C327.566 74.1411 327.827 73.7044 328.221 73.2557C328.372 73.075 328.89 72.8873 329.306 72.6825C328.905 72.3236 328.076 72.0215 327.281 71.7337C326.624 71.4949 325.97 71.2822 325.574 70.9756C325.214 70.6921 324.721 70.4121 323.834 70.2118C323.458 70.123 323.112 69.9964 323.032 69.8543C322.833 69.5035 323.567 69.1116 323.7 68.7393C323.78 68.5124 324.461 68.2835 325.213 68.1007C325.344 68.0712 325.406 68.0216 325.503 67.9864C325.963 67.5229 325.263 67.1825 325.094 66.7938C325.01 66.5995 324.465 66.491 323.695 66.4733C322.924 66.4557 322.185 66.4089 321.445 66.362C319.799 66.2661 318.739 66.0112 318.626 65.5032C318.621 65.4422 318.517 65.399 318.511 65.338C318.509 65.3206 318.541 65.3001 318.602 65.2331C319.155 65.0685 319.774 64.8891 320.523 64.6715C319.872 64.5024 319.257 64.3477 318.71 64.213C318.65 63.9198 319.611 63.8322 320.163 63.6589C320.059 63.6157 319.987 63.5607 319.883 63.5175L319.921 63.5668L319.918 63.5319C319.575 63.4314 319.047 63.5146 318.549 63.5512L318.582 63.5395C318.416 63.5546 318.217 63.5727 318.051 63.5878L318.119 63.5992C318.115 63.5556 318.111 63.5033 318.107 63.4598L318.074 63.4715C317.855 63.2631 316.795 63.3772 316.446 63.207C316.468 63.082 316.452 62.9077 317.045 62.8185C317.936 62.6847 318.866 62.6175 319.643 62.7136C319.88 62.7447 320.085 62.7963 320.191 62.857C320.788 63.1716 321.809 63.3772 322.602 63.6388C323.291 63.8659 324.202 63.9673 325.214 64.0597C325.921 64.1182 326.649 64.0431 327.334 63.8489L327.432 63.8225L327.267 63.8463C327.468 63.8543 327.636 63.8653 327.837 63.8733C327.967 63.8264 328.129 63.7765 328.128 63.759C327.793 63.3854 328.626 62.9845 329.126 62.6051L329.193 62.6078C329.023 62.5793 328.82 62.5452 328.65 62.5167L328.684 62.5224C327.879 62.4903 328.46 62.2704 328.381 62.1284C327.81 62.1013 327.044 62.1359 326.827 61.9536C326.693 61.9483 326.558 61.9342 326.424 61.9289C326.49 61.9229 326.588 61.8964 326.589 61.9051C326.658 61.9252 326.727 61.954 326.763 61.9771C327.025 61.9181 327.254 61.8621 327.581 61.7883C327.24 61.714 326.966 61.6423 326.694 61.5881C326.32 61.5167 326.244 61.4182 326.23 61.2701C326.215 61.0958 326.095 60.8784 325.32 60.8172C324.949 60.7807 324.77 60.6477 324.564 60.5874C325.012 60.3621 325.33 60.1838 325.681 60.0025C325.547 60.0058 325.185 60.0652 325.475 59.9422C325.543 59.9623 325.58 59.9941 325.648 60.0142C325.846 59.9786 326.076 59.9401 326.24 59.8988C326.697 59.7868 327.031 59.7741 327.21 59.9071C327.245 59.9302 327.413 59.9325 327.514 59.9409L327.448 59.9556C327.305 59.8545 327.228 59.7385 326.987 59.6638C326.779 59.5774 326.407 59.5322 326.167 59.4662C326.864 59.0426 326.929 59.0278 326.208 58.8124C325.728 58.6804 325.74 58.4422 325.029 58.3488C324.691 58.3006 325.232 58.0053 325.732 57.9861C326.564 57.9542 327.224 57.8589 327.876 57.6765C327.865 57.5545 327.854 57.4326 327.841 57.2932C327.609 57.3143 327.376 57.318 327.178 57.3536C326.455 57.4897 325.732 57.6259 325.148 57.4507C325.242 57.3806 325.369 57.2988 325.526 57.1879C324.756 57.179 324.02 57.167 323.316 57.152C323.427 56.9047 323.947 56.7344 324.433 56.5671L324.401 56.5788C324.422 56.4451 324.41 56.3144 324.498 56.1747C324.555 56.0728 324.258 56.1087 324.09 56.0976C322.976 55.9795 322.782 55.6809 322.653 55.3676C322.606 55.2225 323.521 54.9899 323.994 55.0434C325.142 55.176 326.538 55.084 327.84 55.0707C328.648 55.1289 328.649 55.5066 330.073 55.368C330.107 55.0047 329.618 54.7682 328.343 54.7174C328.779 54.3615 330.589 54.4249 330.787 54.0291C329.818 54.0296 328.921 54.0937 328.041 54.3408C327.715 54.432 327.155 54.5182 326.874 54.3681C327.196 54.2334 327.485 54.1016 327.841 53.9726C328.034 53.8935 328.291 53.7822 328.524 53.7697C330.283 53.6271 331.239 53.1183 332.789 52.8805C333.184 52.8181 333.3 52.623 332.966 52.6184C332.23 52.6151 331.952 52.4999 331.769 52.3233C331.658 52.2104 331.25 52.1334 330.939 52.0211C332.737 51.5762 334.475 51.207 336.496 51.0054C336.86 50.9721 337.292 50.9416 337.595 50.9667C338.641 51.0735 339.814 51.1071 341.019 51.1291C341.421 51.1364 341.793 51.1816 342.099 51.2416C343.151 51.418 344.047 51.3452 344.952 50.9992C345.404 50.8262 345.857 50.662 346.439 50.4421C346.362 50.3349 346.248 50.1871 346.132 50.0045C346.426 49.9337 346.819 49.8452 347.244 49.7362C349.731 50.2563 352.183 50.762 354.637 51.2764C355.283 51.033 355.833 50.8336 356.448 50.6107C357.259 50.7037 357.968 50.7884 358.61 50.8617C358.874 50.8201 359.073 50.8107 359.137 50.7785C359.655 50.5908 360.105 50.3917 360.623 50.2127C361.174 50.0219 362.049 50.0828 362.732 49.8712C363.154 49.7361 364.021 49.7099 364.815 49.62C364.996 49.4102 364.78 49.2366 364.696 49.051C364.614 48.8828 364.333 48.7327 364.283 48.5527C364.22 48.2247 363.993 47.9378 362.88 47.8197C361.859 47.2538 359.763 46.9967 358.189 46.5955C357.881 46.5181 357.642 46.4608 357.664 46.3271C357.7 45.99 357.407 45.7092 356.423 45.5529C356.321 45.5358 356.251 45.4983 356.182 45.4695C355.558 45.2276 355.804 44.9943 356.954 44.7666C357.315 44.6986 357.679 44.6566 358.074 44.5942L358.043 44.6147C357.939 44.5715 357.7 44.5229 357.763 44.482C358.138 44.1931 358.016 43.9495 357.532 43.774C358.302 43.4227 358.975 43.1066 359.714 42.7757C360.742 42.6821 361.772 42.6146 362.879 42.2941C362.942 42.2445 362.897 42.1255 362.423 42.0545C361.949 41.9923 361.54 41.9065 361.099 41.8325C360.489 41.7388 360.24 41.577 360.154 41.3565C360.545 41.2505 360.936 41.1359 361.36 41.0182C361.014 40.8916 360.805 40.8051 360.597 40.7187C360.747 40.5294 361.948 40.1388 362.546 40.0931C362.745 40.075 363.045 40.0653 363.181 40.0967C364.004 40.3205 365.024 40.1484 366.079 39.9821C366.87 39.8573 367.658 39.7064 368.415 39.576C368.886 39.6121 369.357 39.6482 369.761 39.673C370.683 39.5274 371.033 39.3286 371.35 39.1329C371.331 38.9325 370.668 38.9842 370.294 38.9216C369.345 38.7709 368.46 38.5968 367.063 38.6801C366.731 38.7016 366.424 38.6329 366.119 38.5904C365.476 38.4996 364.834 38.4176 364.255 38.3034C363.812 38.212 363.467 38.0941 363.193 38.0224C363.138 37.7815 364.67 37.721 363.885 37.5378C364.181 37.4844 364.311 37.4462 364.444 37.4429C365.442 37.3871 366.278 37.39 367.154 37.4683C368.704 37.6082 370.319 37.7246 372.315 37.6218C374.378 37.5129 376.13 37.6695 377.849 37.8291C378.49 37.8937 379.126 37.8973 379.925 37.8684C380.759 37.8452 381.719 37.7489 382.496 37.8362C383.003 37.8955 383.633 37.8381 384.258 37.7284L384.225 37.7402C384.154 37.6852 383.98 37.6132 384.045 37.5897C384.981 37.2233 385.41 36.7977 386.815 36.4413C387.711 36.3684 388.706 36.2865 389.229 36.5287C389.719 36.7653 389.469 36.955 388.206 37.4038C388.746 37.4601 389.279 37.4466 389.833 37.2907C390.192 37.1878 390.55 37.0848 390.908 36.9732C391.265 36.8616 391.59 36.753 391.882 36.6648C391.864 36.4644 391.883 36.3045 391.835 36.142C391.784 35.9534 391.968 35.7697 392.319 35.5796C392.51 35.4744 392.768 35.3718 392.892 35.2726C393.456 34.8523 393.955 34.4555 393.717 34.0467C393.397 33.4697 392.98 32.9278 392.198 32.4105C391.45 31.9076 391.131 31.3306 390.547 30.7952C390.257 30.5493 389.836 30.3241 389.382 30.1107C388.472 29.6578 387.528 29.2079 386.651 28.7519C385.808 28.3016 384.736 27.9073 383.73 27.4983C382.375 26.9278 380.336 26.5601 378.72 26.066C377.62 25.7271 376.486 25.3911 375.484 25.0343C374.309 24.6055 372.808 24.268 371.211 23.983C369.682 23.7094 368.545 23.3386 367.44 22.9473C367.336 22.9041 367.231 22.8522 367.193 22.8029C366.75 22.3426 366.75 22.3426 365.723 22.0759C365.816 21.9972 365.876 21.9214 366.002 21.8309C366.316 21.6178 366.202 21.4613 365.69 21.3498C365.042 21.2068 364.492 21.0373 364.105 20.8265C363.859 20.6909 363.682 20.584 363.998 20.3795C364.283 20.2042 364.102 20.0538 363.658 19.9536C363.078 19.822 362.53 19.67 361.852 19.5648C360.394 19.3375 358.935 19.1014 357.028 19.0819C356.827 19.0739 356.623 19.0397 356.423 19.0491C354.961 19.1385 354.008 18.9529 352.926 18.8144C351.844 18.6758 350.698 18.5781 349.617 18.4482C348.063 18.2647 346.379 18.1283 345.115 17.8218C343.511 17.8274 342.711 17.4873 341.396 17.3612C340.182 17.2434 339.159 17.0203 338.073 16.8382C336.375 16.5448 334.743 16.2368 333.012 15.9552C331.52 15.7134 329.833 15.5421 328.665 15.1917C328.184 15.051 327.253 15.1094 326.932 14.884C326.716 14.7104 325.939 14.623 325.36 14.5088C324.815 14.3916 324.204 14.2892 323.625 14.175C323.319 14.115 323.012 14.0464 322.641 14.0099C321.021 13.8412 319.953 13.4818 318.397 13.2809C318.33 13.2782 318.262 13.2669 318.227 13.2525C315.951 12.4847 312.252 12.2332 309.134 11.7618C307.168 11.4577 304.975 11.2359 302.878 10.9701C302.391 10.751 301.13 10.857 300.542 10.6383C300.057 10.454 298.918 10.426 298.074 10.3273C297.229 10.2285 296.481 10.0859 295.605 10.0076C294.796 9.94066 294.249 9.79732 293.799 9.62747C292.865 9.2821 291.542 9.06881 290.088 8.88504C288.194 8.64467 286.365 8.37213 284.409 8.19009C284.51 7.8295 284.02 7.58427 283.108 7.47414C281.012 7.21705 279.11 6.88086 277.015 6.63248C276.846 6.61273 276.644 6.59601 276.442 6.57928L276.378 6.61145L276.476 6.58497C274.349 6.35704 272.222 6.1204 270.095 5.89247C268.374 5.70671 266.653 5.52967 264.932 5.35263C264.237 5.42476 264.317 5.19789 263.816 5.19963L263.847 5.17918C263.688 5.27271 263.491 5.30825 263.283 5.23053L263.318 5.24494C263.313 5.19267 263.309 5.14039 263.338 5.0938L263.272 5.10855C260.84 4.8294 258.409 4.55023 256.01 4.26806C253.037 3.92395 250.29 3.48901 246.996 3.28839C246.224 3.24459 245.673 3.07509 244.963 2.9817C244.388 2.90235 243.78 2.83474 243.14 2.77886C242.297 2.70626 241.36 2.68628 240.583 2.59891C238.454 2.34485 236.199 2.17257 233.942 1.98286C231.821 1.80721 229.828 1.5759 227.738 1.38852C226.356 1.25968 224.909 1.15432 223.431 1.06939C222.692 1.03129 221.827 1.07497 221.09 1.05429C220.688 1.04698 220.15 1.00818 220.042 0.930115C219.787 0.69859 218.957 0.756671 218.318 0.718216C217.041 0.641312 216.846 0.694269 216.355 1.18694C216.832 1.28406 217.31 1.3899 217.82 1.49271C218.637 1.65547 219.547 1.73075 220.868 1.55765C221.264 1.50398 221.831 1.48749 222.168 1.51827C223.687 1.68731 225.143 1.88851 226.631 2.07799C226.698 2.08066 226.733 2.10378 226.803 2.1326C226.749 2.27804 226.73 2.42917 226.678 2.60075C226.513 2.61585 226.25 2.66615 226.083 2.66383C223.566 2.55927 221.016 2.44902 218.499 2.33575C216.821 2.26025 215.015 2.25781 213.337 2.1823C212.029 2.12583 210.752 2.05764 209.444 2.00989C208.908 1.98852 208.309 2.01674 207.741 2.02453C207.681 2.10027 207.685 2.14383 207.655 2.1817C207.596 2.26615 207.605 2.37072 207.41 2.42369C207.149 2.50013 206.721 2.57424 206.357 2.60746C206.024 2.62895 205.654 2.6012 205.319 2.58784C203.776 2.5351 202.204 2.52022 200.361 2.83747C200.217 2.72758 200.041 2.62941 199.897 2.5108C197.518 2.44644 195.105 2.37639 192.627 2.3298C192.158 2.31981 191.593 2.35373 191.064 2.41077C190.468 2.48256 189.913 2.62104 189.35 2.68109C188.854 2.73511 188.35 2.71072 187.649 2.72187C187.893 2.83141 187.966 2.90379 188.17 2.93794C188.646 3.02634 188.792 3.16238 188.509 3.3551C188.32 3.48649 188.167 3.64101 188.506 3.69793C189.356 3.84896 189.212 4.108 189.003 4.38181C188.944 4.46627 188.851 4.54504 188.792 4.62949C188.825 4.62647 188.892 4.62913 188.925 4.62611C188.858 4.62344 188.825 4.62647 188.758 4.62379C188.114 4.89331 187.08 4.91724 186.26 5.0973C185.998 5.15631 185.529 5.13761 185.194 5.13296C184.356 5.11263 183.55 5.06314 182.713 5.05152C182.311 5.0442 181.847 5.07777 181.382 5.11134C180.752 5.16873 180.688 5.20092 180.218 5.55117C181.135 5.70486 181.988 5.89945 181.359 6.3345C180.792 6.71995 180.192 7.10842 177.965 7.24109C178.811 7.35726 179.384 7.41045 179.827 7.50189C180.576 7.65325 180.171 7.98004 179.045 8.09144C177.919 8.20285 176.726 8.32029 175.684 8.25709C174.844 8.21062 174.034 8.11757 173.022 8.02521C172.791 8.05507 172.262 8.12082 171.767 8.18356C171.672 8.24489 171.576 8.28881 171.578 8.31494C171.805 8.60177 172.065 8.88557 172.36 9.19249C171.011 9.42959 170.338 9.74569 170.068 10.0952C170.01 10.1884 170.056 10.3248 170.26 10.3589C171.073 10.4781 170.961 10.7255 170.982 10.952C170.594 11.0928 170.271 11.2188 169.915 11.3479C169.948 11.3449 170.015 11.3475 170.048 11.3445C170.014 11.3388 169.947 11.3362 169.914 11.3392C167.046 11.4073 164.206 11.42 161.521 11.3044C160.716 11.2724 159.91 11.2229 159.071 11.1938C158.746 11.2937 158.819 11.3574 159.122 11.3825C159.627 11.4243 160.197 11.4427 160.702 11.4845C161.577 11.5454 162.322 11.6532 162.417 11.9695C162.128 12.1012 161.776 12.2652 161.424 12.4378C161.566 12.5303 161.612 12.6666 161.884 12.7209C162.562 12.826 162.61 12.9885 162.331 13.2248C162.238 13.3036 162.345 13.3817 162.352 13.4601C162.993 13.5247 163.633 13.5805 164.209 13.6599C164.75 13.7335 165.062 13.8545 165.113 14.0519C165.13 14.2348 164.809 14.3783 164.29 14.5573C163.387 14.5517 162.418 14.5522 161.964 14.3388C161.475 14.1023 160.7 14.041 159.672 14.126C158.31 14.2237 157.629 14.0837 157.302 13.7972C156.734 13.7963 156.231 13.7806 155.731 13.7997C155.098 13.8223 154.659 13.7744 154.153 13.7152C153.443 13.6305 152.669 13.5693 151.864 13.5372C149.482 13.438 147.098 13.3301 144.778 13.1725C144.172 13.1311 143.663 13.0457 143.06 13.0216C142.456 12.9976 142.01 12.88 141.216 12.9699C140.985 12.9998 140.616 12.9807 140.478 12.9318C139.346 12.6133 137.542 12.6283 135.993 12.5058C133.67 12.3222 131.317 12.1676 128.993 11.9753C128.286 11.9167 127.739 11.7908 127.129 11.697C126.689 11.6317 126.247 11.549 125.774 11.4955C125.403 11.459 125.001 11.4517 125.152 11.2711C125.181 11.2245 124.674 11.1565 124.34 11.1606C123.17 11.1617 122.033 11.1512 120.834 11.2076C119.603 11.2671 118.5 11.2709 117.424 11.1933C116.683 11.1378 115.937 11.0213 114.916 11.1846L114.914 11.1672C114.956 11.26 115.031 11.3498 115.11 11.4744C113.267 11.8004 111.527 12.1435 109.543 12.008C109.12 12.1344 108.663 12.2638 108.175 12.4049C107.514 12.4915 106.977 12.4614 106.503 12.3991C106.097 12.3483 105.598 12.3674 105.241 12.4878C104.688 12.6524 104.122 12.6863 103.52 12.6797C102.649 12.6537 101.784 12.6973 100.891 12.805C100.342 13.0219 100.226 13.2083 100.507 13.3584C101.033 13.6354 100.796 13.9645 100.358 14.303C100.045 14.5336 100.127 14.6931 100.411 14.8781C100.977 15.2218 100.756 15.365 99.5529 15.7381C99.0983 15.8849 98.6035 15.9564 98.0715 15.9873C97.4724 16.0155 96.9032 16.0059 96.3341 15.9962C95.9663 15.9946 95.6617 15.9521 95.3262 15.9387C93.4831 15.887 93.1303 16.0509 92.4595 16.3931C92.3001 16.4779 92.1067 16.5571 91.9465 16.6332C90.1035 16.9504 88.3449 17.0931 86.6629 16.974C86.3598 16.9489 85.9256 16.9533 85.5949 16.9922C84.3368 17.1244 83.1686 17.143 82.0311 17.1324C80.4588 17.1176 79.0682 17.2618 77.769 17.6789C77.282 17.8375 76.6593 17.9733 75.9316 18.0571C75.1375 18.1471 75.0168 18.2898 75.3988 18.4483C75.9182 18.6469 76.4384 18.8543 76.9902 19.0412C77.4046 19.1879 77.5191 19.3444 77.1742 19.5955C76.9233 19.7764 77.0402 19.9591 76.9573 20.1511C76.824 20.5234 76.112 20.7815 74.7521 20.8967C73.5255 21.0084 72.3282 21.0736 71.1 21.1679C70.5688 21.2075 70.0376 21.2471 69.5427 21.3186C68.4211 21.4823 67.3327 21.6429 66.1676 21.6964C65.7011 21.7125 65.0421 21.8165 64.6846 21.9281C63.4794 22.2751 62.0333 22.5474 61.0334 22.946C60.4201 23.1864 59.7027 23.3835 58.709 23.4828C58.3774 23.513 58.0539 23.6303 57.7263 23.7041C57.0658 24.1596 57.5955 24.4715 58.3557 24.7449C58.7361 24.8859 59.1158 25.0182 59.4963 25.1593C59.8436 25.3033 60.4861 25.3853 61.0615 25.4647C61.7735 25.5755 62.1895 25.7396 62.48 25.9943C60.3931 26.202 58.352 26.5461 56.6549 26.2615C56.1608 26.3416 55.7323 26.407 55.2374 26.4785C55.25 26.6179 55.228 26.7429 55.2714 26.8531C55.3607 27.0997 55.648 27.3195 55.274 27.6172C54.9307 27.8856 55.2819 28.0732 55.8321 28.2427C57.5853 28.777 59.6645 29.2201 61.2874 29.7926C61.7018 29.9393 62.5085 29.9888 63.151 30.0708C63.8275 30.1585 63.7438 30.3418 62.889 30.4988C62.3957 30.5876 61.867 30.6534 61.4052 30.7218C59.4177 30.5515 58.7261 29.9293 56.381 29.8706C55.9651 30.0754 55.5484 30.2715 55.1001 30.4881C54.7639 30.466 54.4631 30.467 54.2595 30.4329C53.0036 30.2223 51.7469 30.0029 50.4903 29.7836C49.8454 29.6754 49.5629 29.5079 49.7728 29.2428C49.8935 29.1001 49.9132 28.9489 49.835 28.8243C49.7584 28.717 49.8507 28.6296 50.0749 28.5213C50.5571 28.3105 50.1466 28.2073 49.7378 28.1216C49.3968 28.0472 48.8979 28.0751 48.5072 28.1898C47.8561 28.3809 47.306 28.5803 46.6249 28.8093C46.9525 29.1045 46.3859 29.4899 46.9132 29.7757C47.0545 29.8595 46.9361 30.0284 46.712 30.1366C45.9101 30.5084 46.1035 30.7982 46.5961 31.0696C46.6309 31.084 46.6001 31.1132 46.6048 31.1654C45.724 31.4038 45.8512 31.6997 45.4447 32.009C45.1819 32.0594 44.8851 32.104 44.6223 32.1543C42.6136 32.4866 42.6135 32.4866 40.9937 32.3179C40.6086 32.4936 41.0152 32.5532 41.3207 32.6044C42.2032 32.7524 43.0201 32.9152 43.9033 33.0719C45.5681 33.3682 47.4278 33.6029 49.1904 33.8728C51.1898 34.1738 53.1237 34.4895 55.0908 34.8022C55.2605 34.8307 55.4033 34.9319 55.3079 34.9845C55.2131 35.0459 54.8193 35.1257 54.5533 35.1411C53.8895 35.1928 53.1902 35.2214 52.5248 35.2556C52.0922 35.2775 51.6257 35.2936 51.1931 35.3155C50.9998 35.3946 50.8712 35.4502 50.7425 35.5059C50.4521 35.6202 50.2319 35.772 49.8704 35.8401C49.2793 35.9554 48.643 35.9431 48.1686 35.8722C47.5585 35.7784 47.0122 35.6525 46.4336 35.5383C45.9576 35.4499 45.5456 35.3293 45.038 35.2613C44.0561 35.1224 42.9124 35.0421 42.0276 34.868C41.1759 34.6908 40.6169 34.4255 39.8623 34.2131C39.4842 34.0982 39.0722 33.9776 38.3058 34.0036C37.4147 34.1287 37.0665 34.3449 37.0184 34.5513C37.0003 34.7199 37.4093 34.8056 37.9492 34.8618C38.6911 34.9348 39.3376 35.0604 39.9509 35.189C40.8705 35.3775 41.693 35.6012 42.9685 35.6607C43.3379 35.6798 43.6143 35.7776 43.9198 35.8288C44.2584 35.877 44.5346 35.9749 44.9348 35.9647C46.1709 35.9575 46.7266 36.188 47.3779 36.3659C47.9257 36.5092 47.9471 36.7445 47.5674 36.9811C47.2202 37.206 46.6385 37.4259 46.1239 37.6485C45.5769 37.8828 44.7173 37.9875 43.9225 38.0687C43.3495 38.3844 43.1721 38.6378 43.6599 38.8569C44.1841 39.1078 44.6419 39.3648 45.979 39.3659C46.6144 39.3696 47.1567 39.4519 47.6966 39.5081C48.8775 39.629 50.1222 39.7176 51.6187 39.634C51.985 39.6182 52.3528 39.6198 52.6883 39.6332C55.0712 39.7411 57.3911 39.8899 59.6462 40.0622C60.891 40.1508 62.0717 40.2716 63.3473 40.3311C66.3357 40.4805 69.0044 40.7908 71.8657 41.0133C73.3805 41.13 74.7011 41.3172 75.7312 41.6186C75.9372 41.6789 76.0462 41.7744 76.2238 41.89C74.4408 42.1315 72.8519 42.3026 71.4611 42.078C70.6125 41.9357 69.7332 41.8225 68.4143 42.0217L68.4467 42.01C68.9542 42.078 69.4294 42.1576 69.9701 42.2226C70.9844 42.3498 72.0303 42.4566 73.0122 42.5955C74.5696 42.8138 75.9982 43.0877 77.6203 43.2825C78.9725 43.4492 79.9655 43.7102 80.9269 43.9915C81.6468 44.1895 82.3668 44.3874 83.3148 44.5207C83.9581 44.6114 83.9589 44.6201 84.2889 44.9414C83.9021 45.0997 83.4664 45.0867 83.0631 45.0619C80.6438 44.9222 78.4487 44.6741 76.4153 44.3674C75.4665 44.2255 74.3219 44.1365 73.696 43.8685C73.5215 43.7878 73.0188 43.7721 72.6162 43.756C71.3391 43.6791 70.159 43.567 69.0744 43.4023C67.5163 43.1753 65.8619 42.9922 63.9525 42.9466C63.595 43.0582 63.8665 43.1037 64.0694 43.1292C65.461 43.3626 66.8187 43.5903 68.2426 43.8119C68.6492 43.8715 69.0879 43.9194 69.526 43.9585C71.0786 44.1245 72.6298 44.2731 73.3387 44.718C73.5155 44.8249 73.9552 44.8815 74.1983 44.9823C74.338 45.0487 74.3475 45.1532 74.3885 45.2373C73.9371 45.419 73.499 45.3799 73.1612 45.3404C72.2148 45.2245 71.2344 45.103 70.385 44.952C69.5696 44.8067 68.6588 44.714 67.65 44.6477C66.9104 44.6009 66.3003 44.5072 65.5599 44.4516C65.2568 44.4266 64.8913 44.4511 64.2906 44.4619C64.683 44.7336 65.5229 44.7801 66.0367 44.9177C66.5845 45.0611 67.2949 45.1545 67.3171 45.3984C66.9959 45.5419 66.6927 45.5168 66.4567 45.4944C65.9515 45.4526 65.4772 45.3816 65.0044 45.328C63.9901 45.2008 63.0081 45.0619 61.802 45.0312C61.199 45.0159 60.6567 44.9335 60.1484 44.8568C58.9644 44.7012 57.8451 44.522 56.5964 44.3898C54.3689 44.1535 52.3995 43.8147 50.2367 43.5549C49.7631 43.4926 49.3857 43.3865 48.6887 43.4412C48.4235 43.4653 47.9926 43.5046 47.8639 43.5603C47.6713 43.6481 47.5823 43.7704 47.6565 43.8515C47.7307 43.9326 48.0054 44.013 48.2761 44.0498C50.3694 44.2807 51.7824 44.7494 53.6169 45.0742C54.2965 45.1967 55.0092 45.3163 55.4623 45.521C55.8096 45.665 56.4198 45.7588 56.9629 45.8499C57.7775 45.9865 58.626 46.1288 59.5377 46.2302C60.4502 46.3403 60.8047 46.5628 60.9973 46.8439C60.5404 46.9646 60.1165 47.0823 59.7574 47.1765C59.4898 47.1745 59.324 47.1896 59.1898 47.1843C56.1469 46.8027 53.1033 46.4123 50.0604 46.0307C49.7565 45.9969 49.4526 45.9631 49.1164 45.941C48.1408 45.8718 47.8771 45.9134 46.7461 46.3415C48.6185 46.7155 50.6225 47.0688 51.3899 47.7895C51.0915 47.8167 50.8279 47.8583 50.5943 47.862C48.6913 47.8861 47.2996 47.6527 45.7154 47.5071C44.8393 47.4288 43.93 47.3535 43.0215 47.287L43.0539 47.2752C43.2457 47.5477 44.2505 47.5703 44.9301 47.6929C46.4259 47.9695 47.9533 48.2256 48.9606 48.6434C49.3079 48.7874 49.8194 48.899 50.3617 48.9813C51.4802 49.1517 52.302 49.3668 52.175 49.8088C52.1245 49.9891 52.306 50.1482 52.3882 50.3164C51.4584 50.7525 50.1648 50.8616 48.9256 50.834C47.6532 50.8093 46.3507 50.8226 44.9876 50.9029C44.3222 50.9371 43.6529 50.9278 43.0483 50.8951C41.9061 50.8322 40.8477 50.955 39.8722 51.2547C39.2865 51.4311 38.7348 51.6131 38.1831 51.7952C37.5667 52.0007 36.9835 52.2031 36.3363 52.4378C35.8004 52.4251 35.2991 52.4269 34.8941 52.3847C34.0511 52.3034 33.22 52.3528 32.3344 52.5389L32.3329 52.5214C32.5129 52.6632 32.6921 52.7962 32.9408 52.958C32.2328 53.2597 31.6598 53.5754 31.7908 53.9149C31.8367 54.0513 31.3529 54.2447 31.1675 54.4109C30.8257 54.6968 30.7815 54.9468 31.5977 55.1009C32.0405 55.1923 32.3216 55.3424 32.5687 55.4868C32.886 55.6687 32.3423 55.9379 31.5127 56.0047C30.9152 56.0503 30.3137 56.0524 29.7769 56.031C28.8716 55.9993 27.9978 55.9472 27.1556 55.8746C26.2123 55.7936 25.2132 55.8319 24.1168 55.9054C23.1207 55.9786 22.2596 56.0659 21.7505 56.3494C21.337 56.5804 20.4663 56.5631 19.8815 56.7481C20.1373 56.9884 20.5903 57.1931 21.3378 57.327C22.188 57.4867 22.9079 57.6847 22.8772 58.0828C22.29 58.2417 21.6381 58.4241 21.0185 58.5948C19.5646 58.7799 18.9354 58.4771 17.4633 58.4619C18.0459 58.6196 18.4232 58.7258 18.8684 58.8434C18.87 58.8608 18.9395 58.8896 18.9095 58.9275C18.6191 59.4107 18.3263 59.4989 16.7666 59.6234C16.4683 59.6506 16.1699 59.6778 15.8368 59.6906C15.3711 59.7154 14.9386 59.7373 14.439 59.7565C13.9536 59.9324 13.7349 60.1017 13.8857 60.29C13.9994 60.4378 14.2141 60.5939 14.0271 60.7427C13.7485 60.9877 13.8615 61.1268 14.5387 61.2232C14.7755 61.2543 14.7542 61.3881 14.8624 61.4748C15.1498 61.6946 15.4995 61.8648 16.5075 61.9223C17.7506 61.9935 18.772 62.1991 19.8558 62.3552C19.9213 62.3404 19.9536 62.3287 20.0191 62.3139C19.9536 62.3287 19.8873 62.3347 19.8218 62.3495C20.9285 62.3892 21.9696 62.4437 22.8528 62.6004C23.7361 62.7571 24.8783 62.82 25.8587 62.9415C26.5351 63.0292 27.2124 63.1256 27.4358 63.3776C27.6229 63.5977 28.6293 63.6378 29.4013 63.6729C29.8709 63.6916 30.3074 63.7133 30.7131 63.7642C31.3209 63.8318 31.8964 63.9112 32.7583 63.8326C32.9572 63.8145 33.1924 63.8282 33.3937 63.8362C35.2431 63.9576 37.0917 64.0703 38.9087 64.2035C39.3799 64.2396 39.7525 64.2935 40.3169 64.2508C40.5158 64.2327 40.751 64.2464 40.9531 64.2632C43.7907 64.5932 47.0766 64.7067 49.8496 65.0602C50.2214 65.1054 50.5285 65.1741 50.9634 65.1784C51.9343 65.1953 52.6139 65.3179 53.1648 65.4961C53.7506 65.6887 54.5936 65.77 55.6955 65.7575C56.5298 65.743 57.2717 65.8159 57.9837 65.9267C59.1046 66.1233 60.5175 66.223 61.8333 66.3578C62.6771 66.4479 63.2904 66.5765 63.3812 66.8405C62.9937 66.99 62.6251 66.9797 62.2897 66.9663C60.9454 66.8868 59.602 66.8159 58.2893 66.7159C57.2119 66.6296 56.0066 66.6076 55.0231 66.4512C54.5818 66.3772 53.746 66.3743 53.1508 66.4461C52.1918 66.5598 51.5201 66.5244 50.8128 66.4659C50.3077 66.424 49.7686 66.3765 49.2326 66.3639C48.8979 66.3592 48.4654 66.3811 48.1355 66.4287C47.377 66.5417 46.8719 66.4999 46.6919 66.3582C46.2632 66.0546 45.0958 66.0819 44.121 66.0214C42.544 66.3232 41.5422 65.9664 40.1159 66.0876C39.917 66.1057 39.681 66.0833 39.5113 66.0548C36.9357 65.6658 33.8795 65.505 31.1113 65.2038C30.8074 65.17 30.438 65.1509 30.0733 65.1841C27.4205 65.4171 25.526 65.168 23.6324 64.9276C23.3956 64.8965 23.1572 64.8479 22.8912 64.8634C21.6268 64.9259 20.6472 64.8131 19.6361 64.7207C18.1197 64.5865 16.6019 64.4349 15.0208 64.3242C13.9442 64.2466 12.9671 64.16 12.3103 63.9211C12.1722 63.8722 11.8051 63.8793 11.4349 63.8515C11.1792 63.9803 10.989 64.0942 10.7317 64.2055C10.0884 64.4837 9.51154 64.7559 8.32208 64.9082C7.46253 65.0129 7.31331 65.211 7.85954 65.3369C9.87714 65.8383 10.2158 65.8865 13.1813 66.1522C14.9336 66.3088 16.7199 66.4711 18.5361 66.5955C19.5788 66.6674 20.6862 66.7158 21.6966 66.7995C21.9997 66.8246 22.3991 66.8057 22.7669 66.8074C23.2018 66.8117 23.733 66.7721 24.0054 66.8263C25.1618 67.046 26.7309 67.026 28.173 67.0791C28.7097 67.1005 29.2481 67.1393 29.7209 67.1928C30.8694 67.3254 32.0818 67.4258 33.4544 67.45C34.2919 67.4704 35.067 67.5403 35.8405 67.5928C36.1097 67.6122 36.3157 67.6725 36.5825 67.6658C38.9457 67.5559 40.4518 67.9457 42.5285 67.9937C43.5673 68.0221 44.4166 68.1731 45.3598 68.2541C47.1453 68.4076 48.8669 68.5934 50.747 68.6856C53.1979 68.8049 55.3922 69.0443 57.7468 69.2075C58.2172 69.2349 58.6237 69.2945 59.0295 69.3454C60.9231 69.5857 62.8491 69.8144 65.0639 69.9112C66.1713 69.9597 66.8928 70.1751 67.2205 70.4702C67.2939 70.5426 67.2063 70.6824 66.9797 70.7645C66.6577 70.8993 66.2 71.0113 65.8748 71.1112C61.4064 70.8594 57.0391 70.616 52.6717 70.3726C52.1342 70.3426 51.5635 70.3155 51.0915 70.2707C49.5744 70.1278 47.961 70.0288 46.3492 69.9472C44.7374 69.8657 43.2195 69.7141 41.6708 69.5916C41.2327 69.5525 40.7623 69.5251 40.2595 69.5094C37.006 69.3841 33.7855 69.2559 30.7536 68.9962C29.4734 68.8845 28.066 68.8458 26.7541 68.7545C25.1731 68.6438 23.6569 68.5096 22.1074 68.3784C20.524 68.2416 18.9074 68.1078 17.3232 67.9622C16.38 67.8812 15.4684 67.7798 14.5243 67.6901C13.267 68.2 12.81 68.3207 11.3166 68.4392C10.8194 68.4845 10.154 68.5188 9.81533 68.4706C8.36137 68.2868 6.55866 68.3105 5.07472 68.1646C4.23171 68.0832 3.55358 67.9781 3.06653 67.7677C2.68446 67.6093 2.10593 67.4951 1.626 67.3631C-0.0772706 67.7467 -0.348003 68.0788 0.808392 68.2985C1.11466 68.3584 1.55204 68.3889 1.76044 68.4753C2.03831 68.5905 2.44239 68.624 2.97597 68.6105C3.84263 68.5843 4.48441 68.6576 5.12772 68.7483C5.73709 68.8333 6.28249 68.9506 7.18309 68.93C7.75061 68.9222 8.19898 69.0746 8.67496 69.163C9.15093 69.2514 9.56216 69.3633 10.327 69.32C10.593 69.3045 10.9285 69.3179 11.0998 69.3638C11.852 69.55 12.9232 69.5666 13.9627 69.6037C15.6061 69.6648 17.1231 69.8077 18.4453 70.0123C19.2591 70.1402 19.8812 70.3646 20.4353 70.5776C20.609 70.6497 20.7155 70.719 21.0518 70.7411C22.4331 70.8612 23.9983 70.7977 25.5635 70.7341C26.1626 70.7059 26.7609 70.669 27.33 70.6786C28.4682 70.6979 29.7035 70.682 30.6491 70.7891C32.1022 70.9642 33.8088 70.9844 35.389 71.0864C36.397 71.1439 37.4373 71.1897 38.2834 71.3058C39.1967 71.4247 40.2671 71.4326 41.3066 71.4696C42.3793 71.5037 43.291 71.6051 43.9114 71.8121C44.1522 71.8868 44.1964 72.0058 44.3408 72.1244C42.4931 72.3893 41.1765 72.2457 39.8 72.1779C39.3295 72.1505 38.9238 72.0996 38.3295 72.1801C38.3302 72.1888 38.2986 72.2093 38.2994 72.218C38.331 72.1975 38.3633 72.1858 38.3617 72.1684C38.1194 72.0763 37.754 72.1008 37.3578 72.1544L37.4225 72.131C37.4035 72.2908 37.3847 72.4507 37.395 72.5639C38.4732 72.659 39.4479 72.7195 40.2949 72.8444C41.0732 72.9492 42.2264 72.765 42.8769 72.9342C44.2463 72.9236 45.0388 73.1852 46.2141 73.2451C47.4226 73.3019 48.7881 73.2477 49.9958 73.2958C51.07 73.3473 52.0172 73.4718 53.0283 73.5642C53.3993 73.6007 53.7727 73.6633 54.1729 73.6532C55.54 73.6165 56.192 73.803 56.5891 74.127C56.3658 74.244 56.1448 74.3871 55.8575 74.5363C56.2088 74.7239 56.9192 74.8173 57.6935 74.8785C58.0637 74.9063 58.4355 74.9515 58.8065 74.988C59.4813 75.0582 59.5619 75.209 59.2802 75.4192C56.9723 75.77 56.9099 75.8196 55.4291 75.3396C54.3974 75.3897 53.6949 75.3834 52.9585 75.3714ZM70.7984 32.2027L70.8986 32.2024L70.8631 32.1793C70.8291 32.1736 70.7629 32.1796 70.7289 32.1739C70.7629 32.1796 70.7976 32.194 70.7984 32.2027ZM81.2999 76.4437C81.3347 76.4581 81.3686 76.4638 81.4033 76.4782C81.4017 76.4608 81.367 76.4464 81.2999 76.4437ZM355.131 42.3675C355.096 42.3444 355.06 42.3125 355.024 42.2894C355.06 42.3213 355.063 42.3561 355.1 42.3879C355.233 42.3846 355.333 42.3755 355.466 42.3721C355.434 42.3926 355.37 42.4161 355.339 42.4452C355.236 42.4107 355.167 42.3906 355.131 42.3675ZM293.114 78.2903C292.584 78.3386 292.055 78.4044 291.556 78.4322C291.323 78.4447 291.051 78.3904 290.979 78.3355C290.87 78.24 291.266 78.1863 291.532 78.1621C292.228 78.0987 292.863 78.1023 293.244 78.2434C293.346 78.2691 293.415 78.2892 293.518 78.315C293.383 78.301 293.248 78.2956 293.114 78.2903ZM48.9213 30.5415C49.2244 30.5666 49.5922 30.5682 49.8638 30.6137C51.0857 30.8187 52.2421 31.0383 53.4632 31.2346C55.1926 31.5075 56.664 31.8829 58.8781 31.9711C59.6832 32.0031 60.2657 32.1609 60.7496 32.3364C60.9919 32.4286 61.3993 32.4969 61.7726 32.5595C63.5329 32.8032 65.2915 33.0295 67.0517 33.2732C67.3564 33.3158 67.5 33.4257 67.8458 33.5523C67.3485 33.5976 67.0194 33.6539 66.8173 33.6372C66.4471 33.6094 66.0414 33.5585 65.867 33.4778C65.5867 33.3364 65.1802 33.2768 64.6095 33.2498C64.072 33.2197 63.5345 33.1896 63.0285 33.1391C62.0174 33.0467 61.0378 32.9339 60.059 32.8298C59.7953 32.5025 58.5948 32.5328 57.6531 32.4692C57.384 32.4498 57.148 32.4274 56.9112 32.3963C54.4382 32.033 52.1925 31.5963 49.9452 31.1422C49.5363 31.0565 49.1598 30.959 48.9143 30.832C48.7745 30.7657 48.9308 30.646 48.9221 30.5502C48.8558 30.5562 48.7888 30.5536 48.7556 30.5566C48.7225 30.5596 48.7208 30.5422 48.7201 30.5335C48.7856 30.5187 48.8534 30.5301 48.9213 30.5415ZM166.081 12.9271C166.08 12.9184 166.112 12.8979 166.111 12.8892C166.078 12.901 166.047 12.9214 166.048 12.9301C166.651 12.9542 167.256 12.9869 167.891 12.9818C168.391 12.9714 168.858 12.9639 169.363 12.997C171.852 13.1743 174.531 13.2289 177.242 13.2631C177.576 13.2677 177.945 13.2781 178.248 13.3031C178.991 13.3848 179.7 13.4695 180.411 13.5629C181.087 13.6506 181.091 13.6942 180.559 14.0853C180.127 14.1159 179.696 14.1551 179.229 14.1713C178.929 14.181 178.529 14.1912 178.426 14.1567C177.935 13.9027 176.801 13.9357 175.928 13.8922C173.309 13.7619 170.594 13.6755 167.944 13.5656C167.407 13.5442 166.869 13.5054 166.33 13.4666C166.027 13.4415 165.722 13.399 165.451 13.3534C165.145 13.2935 165.235 13.1886 165.56 13.08C165.688 13.0243 165.885 12.9801 166.081 12.9271ZM165.737 79.4505L165.767 79.4127L165.702 79.4361C166.547 79.5349 167.391 79.6336 168.236 79.7324C168.54 79.7662 168.781 79.8409 169.115 79.8455C171.023 79.8737 172.385 80.145 173.875 80.3606C174.383 80.4373 174.893 80.5314 175.529 80.535C177.602 80.5481 179.067 80.8539 180.819 81.0105C181.898 81.1055 182.783 81.2884 183.701 81.4508C183.87 81.4792 183.914 81.5895 183.854 81.6652C183.765 81.7962 183.304 81.8647 182.97 81.8687C181.801 81.8786 180.729 81.8533 179.78 81.7113C178.933 81.5864 177.988 81.488 177.045 81.4071C176.103 81.3348 175.513 81.0986 174.312 81.1202C173.844 81.1277 173.369 81.048 173.094 80.9589C172.508 80.7663 171.637 80.7402 170.7 80.729C170.131 80.7193 169.528 80.7127 169.088 80.6474C167.905 80.5005 166.785 80.3126 165.634 80.1539C165.295 80.1057 164.923 80.0605 164.521 80.0445C162.672 79.9318 160.791 79.8309 158.909 79.7212C157.565 79.6416 156.221 79.562 154.941 79.459C153.898 79.3784 152.757 79.3242 152.005 79.1467C151.118 78.9465 149.976 78.8923 148.963 78.7738C147.274 78.5763 145.488 78.414 143.734 78.24C142.554 78.1279 141.34 78.0188 140.096 77.9389C139.491 77.8974 138.92 77.8704 138.638 77.7028C138.461 77.596 137.962 77.6238 137.559 77.6078C135.546 77.5189 133.277 77.5588 131.707 77.2098C131.503 77.1669 131.234 77.1475 130.998 77.1251C129.347 76.9769 127.696 76.8374 126.045 76.6891C125.607 76.65 125.266 76.5756 124.893 76.5217C125.114 76.3786 125.408 76.3079 125.842 76.2947C127.409 76.2573 128.818 76.3134 130.199 76.4248C132.49 76.6202 134.682 76.8421 137.229 76.9175C139.073 76.9779 140.826 77.1433 142.191 77.4494C143.317 77.6982 144.691 77.7399 146.291 77.6908C146.924 77.6682 147.692 77.6598 148.134 77.7425C148.644 77.8366 149.214 77.8549 149.818 77.879C151.126 77.9354 152.531 77.948 153.647 78.0923C154.798 78.2422 155.851 78.4274 157.034 78.5744C158.487 78.7494 160.035 78.8632 161.487 79.0295C162.806 79.1992 164.288 79.319 165.737 79.4505ZM58.808 74.6364C59.0195 74.3888 59.5443 74.2794 60.0763 74.2485C61.9075 74.1696 63.7087 74.1284 65.0025 74.3883C65.8534 74.5568 66.8282 74.6173 67.9253 74.5525C69.4542 74.4571 70.3723 74.6282 71.355 74.7759C71.5586 74.81 71.6992 74.885 71.7718 74.9487C71.8428 74.9949 71.8176 75.0851 71.7205 75.1203C71.5248 75.1733 71.1309 75.2531 70.9296 75.2451C68.9176 75.1736 66.9712 75.0874 64.9584 75.0073C64.6229 74.9939 64.2875 74.9805 63.9196 74.9789C62.0474 74.9738 60.4293 74.8225 58.808 74.6364ZM71.5327 71.5796C72.5713 71.239 72.6053 71.2446 73.0686 71.1937C75.5194 70.944 77.6024 71.0617 79.6847 71.1707C80.1212 71.1924 80.4322 71.3046 80.7408 71.3907C80.9477 71.4597 80.9572 71.5642 80.5997 71.6759C80.3723 71.7493 80.1442 71.814 79.7851 71.9082C78.4472 71.8983 77.0785 71.9176 75.8038 71.8669C74.3941 71.802 73.0798 71.6846 71.5327 71.5796ZM165.415 14.7974C166.472 14.2883 166.439 14.3 167.908 14.2804C168.943 14.2651 169.915 14.2908 170.823 14.3574C171.934 14.4407 173.076 14.5035 174.186 14.5781C174.824 14.6166 175.104 14.7492 174.884 14.9098C174.697 15.0499 173.94 15.1803 173.27 15.171C173.07 15.1717 172.867 15.1463 172.666 15.1383C171.927 15.1002 171.156 15.0738 170.448 15.0152C169.404 14.9259 168.362 14.8627 167.077 15.0676C166.499 14.9622 165.957 14.8798 165.415 14.7974ZM74.9512 75.3618C75.3104 75.2676 75.5369 75.1855 75.7674 75.1469C77.02 74.9537 78.1582 74.973 79.2332 75.0332C79.7037 75.0606 80.1464 75.152 80.6113 75.1185C81.6074 75.0453 82.2855 75.1504 83.1229 75.1707C83.2571 75.1761 83.3274 75.2136 83.3953 75.225C83.4064 75.347 83.4167 75.4602 83.4301 75.6083C82.966 75.6506 82.5706 75.713 82.269 75.7053C80.9967 75.6807 79.7567 75.6443 78.5166 75.608C77.6792 75.5877 76.8417 75.5673 76.0358 75.5265C75.6664 75.5075 75.3917 75.4271 74.9512 75.3618ZM61.691 26.8744C62.3397 26.6571 62.9892 26.4486 63.5409 26.2666C64.8425 26.2446 65.3935 26.4228 65.5862 26.704C65.7377 26.901 65.52 27.079 64.8301 27.2121C64.2058 27.3305 63.5846 27.4837 62.714 27.4664C62.3635 27.2875 62.0107 27.0824 61.691 26.8744ZM74.0787 31.8863C72.7068 31.8707 71.7739 31.903 71.0588 31.7574C70.4809 31.6519 69.8037 31.5554 68.9079 31.6283C67.2496 31.7706 66.0655 31.6149 64.9139 31.4475C64.7781 31.4247 64.8057 31.3607 64.7331 31.2971C65.0306 31.2612 65.2935 31.2109 65.4608 31.2132C66.6345 31.2556 67.8083 31.298 68.9496 31.3521C69.6213 31.3876 70.2307 31.4726 70.9316 31.4615C71.9664 31.4463 72.7123 31.5628 73.5545 31.6354C73.7235 31.6551 73.7637 31.7305 74.0787 31.8863ZM175.975 81.7681C174.521 81.9533 173.559 82.0322 172.748 81.9391C172.106 81.8571 171.593 81.7282 171.865 81.4135C172.297 81.3829 172.825 81.3172 173.095 81.3453C173.973 81.441 174.788 81.5863 175.975 81.7681ZM274.616 78.4998C273.529 78.6779 272.726 78.6633 272.047 78.5494C271.877 78.521 271.901 78.4134 271.893 78.335C271.885 78.2391 272.112 78.1657 272.479 78.1586C273.513 78.1347 274.159 78.2516 274.616 78.4998ZM281.472 77.4447C281.448 77.5435 280.728 77.7145 280.391 77.6837C280.021 77.656 279.681 77.5991 279.408 77.5361C279.101 77.4674 279.387 77.3008 279.848 77.2237C280.671 77.0872 281.551 77.2091 281.472 77.4447ZM91.703 76.1635C90.7141 76.3151 90.0005 76.1869 89.167 76.2101C88.7336 76.2232 88.1322 76.2253 88.2861 76.0795C88.5023 75.8841 88.9823 76.0161 89.347 75.9829C90.4078 75.8862 91.0842 75.9739 91.703 76.1635ZM301.887 53.4294C301.185 53.4232 300.751 53.4363 300.381 53.4085C300.213 53.3975 300.203 53.2842 300.263 53.2172C300.293 53.1793 300.623 53.123 300.821 53.1049C301.65 53.0293 301.633 53.2066 301.887 53.4294ZM379.718 37.4217C380.107 37.2896 380.298 37.1931 380.594 37.1398C380.792 37.1042 381.193 37.1116 381.33 37.143C381.467 37.1832 381.41 37.2851 381.316 37.3552C381.253 37.3961 380.958 37.4581 380.791 37.4645C380.458 37.4773 380.187 37.4404 379.718 37.4217ZM75.1148 76.0585C74.3847 76.1162 73.6214 76.177 73.203 75.9867C74.3672 75.9245 74.3673 75.9245 75.1148 76.0585ZM87.2717 75.5834C86.4572 75.8157 86.0214 75.8027 85.6781 75.7022C85.5755 75.6764 85.5345 75.5923 85.6315 75.5571C85.7278 75.5132 86.0553 75.4394 86.1895 75.4448C86.5258 75.4669 86.8313 75.5181 87.2717 75.5834ZM124.843 78.9157C124.748 78.9684 124.719 79.0237 124.653 79.0297C124.521 79.0505 124.354 79.0482 124.285 79.0281C124.217 79.0167 124.279 78.9671 124.31 78.9379C124.477 78.9315 124.643 78.9252 124.843 78.9157ZM171.566 11.4961C171.43 11.4646 171.294 11.4419 171.19 11.4074C171.256 11.3926 171.32 11.3604 171.387 11.3631C171.554 11.3654 171.722 11.3765 171.891 11.3875C171.76 11.4257 171.696 11.4492 171.566 11.4961ZM302.975 80.1327C302.807 80.1217 302.639 80.1194 302.638 80.102C302.635 80.0671 302.664 80.0205 302.762 79.994C302.826 79.9706 302.994 79.9816 303.128 79.9782C303.065 80.0278 303.003 80.0774 302.975 80.1327ZM278.662 77.4109C278.561 77.4025 278.46 77.3941 278.358 77.3771C278.324 77.3714 278.353 77.3248 278.386 77.3218C278.486 77.3127 278.618 77.3006 278.719 77.3003C278.722 77.3351 278.692 77.373 278.662 77.4109ZM77.3667 76.1959L77.2341 76.208L77.2964 76.1584L77.3667 76.1959ZM69.1223 45.7698C68.9905 45.7906 68.8595 45.8201 68.7277 45.8409C68.6945 45.8439 68.6258 45.8239 68.5587 45.8212C68.6566 45.7947 68.7529 45.7508 68.8523 45.7417C68.9186 45.7357 69.0213 45.7615 69.1223 45.7698ZM324.985 59.7056L325.049 59.6647L325.118 59.6936L324.985 59.7056Z" fill="url(#paint0_linear_1_10)"/>
<defs>
<linearGradient id="paint0_linear_1_10" x1="345" y1="65" x2="28.9911" y2="36.0971" gradientUnits="userSpaceOnUse">
<stop stop-color="#CE007C"/>
<stop offset="1" stop-color="#F25A23"/>
</linearGradient>
</defs>
</svg>
