<svg width="471" height="25" viewBox="0 0 471 25" fill="none" xmlns="http://www.w3.org/2000/svg">
<path d="M459.528 24.096H10.93C4.84042 24.096 0 18.7939 0 12.1235C0 5.45311 4.84042 0.151001 10.93 0.151001H459.528C465.461 0.151001 470.458 5.45311 470.458 12.1235C470.458 18.6229 465.461 24.096 459.528 24.096Z" fill="#FFFAF8" fill-opacity="0.5"/>
<path d="M248.681 24.096H12.5778C5.57016 24.096 0 18.7939 0 12.1235C0 5.45311 5.57016 0.151001 12.5778 0.151001H248.681C255.688 0.151001 261.259 5.45311 261.259 12.1235C261.259 18.6229 255.509 24.096 248.681 24.096Z" fill="url(#paint0_linear_1_26)"/>
<path opacity="0.22" d="M19.9862 24.096H11.0861L19.9862 0.151001H28.8864L19.9862 24.096Z" fill="white"/>
<path opacity="0.22" d="M39.0357 24.096H30.1356L39.0357 0.151001H47.7797L39.0357 24.096Z" fill="white"/>
<path opacity="0.22" d="M57.9289 24.096H49.1849L57.9289 0.151001H66.829L57.9289 24.096Z" fill="white"/>
<path opacity="0.22" d="M76.9783 24.096H68.0782L76.9783 0.151001H85.8784L76.9783 24.096Z" fill="white"/>
<path opacity="0.22" d="M96.0277 24.096H87.1276L96.0277 0.151001H104.772L96.0277 24.096Z" fill="white"/>
<path opacity="0.22" d="M114.921 24.096H106.177L114.921 0.151001H123.821L114.921 24.096Z" fill="white"/>
<path opacity="0.22" d="M133.97 24.096H125.07L133.97 0.151001H142.87L133.97 24.096Z" fill="white"/>
<path opacity="0.22" d="M153.02 24.096H144.12L153.02 0.151001H161.764L153.02 24.096Z" fill="white"/>
<path opacity="0.22" d="M171.913 24.096H163.169L171.913 0.151001H180.813L171.913 24.096Z" fill="white"/>
<path opacity="0.22" d="M190.962 24.096H182.062L190.962 0.151001H199.863L190.962 24.096Z" fill="white"/>
<path opacity="0.22" d="M210.012 24.096H201.112L210.012 0.151001H218.756L210.012 24.096Z" fill="white"/>
<path opacity="0.22" d="M230.548 24.096H221.648L230.548 0.151001H239.292L230.548 24.096Z" fill="white"/>
<defs>
<linearGradient id="paint0_linear_1_26" x1="-0.0698965" y1="12.0857" x2="261.219" y2="12.0857" gradientUnits="userSpaceOnUse">
<stop stop-color="#EF5329"/>
<stop offset="1" stop-color="#CF0279"/>
</linearGradient>
</defs>
</svg>
