<svg width="508" height="333" viewBox="0 0 508 333" fill="none" xmlns="http://www.w3.org/2000/svg">
<path d="M507 147.4C514.7 226 440.6 314.9 278.6 330.7C116.6 346.5 8.70003 271.7 1.00003 193.1C-6.69997 114.5 35.3 -63.6 241.5 25.1C447.7 113.8 499.3 68.8 507 147.4Z" fill="#34088D"/>
<path d="M315.6 284.2C315.6 284.2 416.8 267.7 420.9 232.5C424.9 197.3 339.9 231.6 339.9 231.6C339.9 231.6 377.6 167.6 361 147.7C344.4 127.8 297 197.9 297 197.9C297 197.9 304.7 123.9 282.3 120.9C259.9 117.9 239.2 275.1 239.2 275.1L315.6 284.2Z" fill="#3D59EF" fill-opacity="0.3"/>
<path d="M342 177.9C348.1 168.6 354.1 159.2 360.2 149.9C360.6 149.3 360.9 148.7 361.3 148.2C361.2 148 361 147.8 360.9 147.7C360.7 147.5 360.6 147.3 360.4 147.1C354.7 156 349 164.9 343.2 173.7C337.2 183 331 192.2 324.8 201.3C318.6 210.3 312.3 219.3 305.7 228.1C299.2 236.8 292.6 245.3 285.6 253.6C278.8 261.8 271.7 269.7 264.3 277.4C264.1 277.6 263.9 277.8 263.7 278L265.4 278.2C271.9 271.5 278.1 264.6 284.1 257.5C291.1 249.3 297.8 240.8 304.3 232.2C310.9 223.4 317.3 214.5 323.6 205.5C329.8 196.3 336 187.2 342 177.9Z" fill="#5F5DD0"/>
<path d="M420.7 227.4C420.6 226.9 420.5 226.5 420.4 226.1C410.5 229.8 400.6 233.5 390.6 237.1C379.4 241.3 368.2 245.4 357 249.6C345.9 253.7 334.7 257.9 323.6 262C312.4 266.2 301.2 270.3 290 274.5C285.4 276.2 280.8 277.9 276.3 279.6L279.3 280C281.6 279.1 284 278.3 286.3 277.4C297.5 273.2 308.7 269.1 319.9 264.9C331 260.8 342.2 256.6 353.3 252.5C364.5 248.3 375.7 244.2 386.9 240C398 235.9 409.2 231.7 420.3 227.6C420.4 227.5 420.6 227.4 420.7 227.4Z" fill="#5F5DD0"/>
<path d="M266.9 271.6C268.7 262.5 270.3 253.5 271.8 244.3C273.4 234.5 274.8 224.6 276.1 214.8C277.5 204.5 278.7 194.2 279.7 183.9C280.8 173.4 281.7 162.9 282.5 152.3C283.3 142 283.9 131.8 284.3 121.5C283.9 121.3 283.4 121.2 283 121.1C282.6 130.2 282.1 139.3 281.4 148.3C280.7 158.8 279.8 169.2 278.7 179.6C277.7 190 276.5 200.3 275.2 210.6C273.9 220.6 272.5 230.5 270.9 240.4C269.4 249.6 267.8 258.7 266.1 267.9C265.9 269 265.7 270.1 265.4 271.2C265.4 272.1 266.7 272.4 266.9 271.6Z" fill="#5F5DD0"/>
<path opacity="0.3" d="M177.3 284.4C177.3 284.4 85.2 260.5 81.1 225.3C77.1 190.1 161.8 227.7 161.8 227.7C161.8 227.7 115.3 167.9 132 148C148.6 128.1 194.2 201 194.2 201C194.2 201 188.2 124.2 210.6 121.3C233 118.3 246.4 271.9 246.4 271.9L177.3 284.4Z" fill="#3D59EF"/>
<path d="M210.5 146.6C211.3 156.2 212.3 165.7 213.4 175.3C214.5 185.2 215.8 195.1 217.1 204.9C218.4 214.5 219.7 224.1 221.1 233.6C222.3 242.2 223.6 250.8 224.9 259.4C225 260.4 225.2 261.3 225.3 262.3C225.4 263.2 226.7 262.8 226.6 261.9C225.4 253.5 224.1 245.1 222.9 236.7C221.5 227.2 220.2 217.8 218.9 208.3C217.6 198.4 216.3 188.5 215.1 178.6C214 169 212.9 159.4 212.1 149.8C211.3 141.1 210.7 132.5 210.3 123.8C210.3 123 210.2 122.1 210.2 121.3C209.7 121.4 209.3 121.5 208.8 121.6C209.3 130 209.8 138.3 210.5 146.6Z" fill="#5F5DD0"/>
<path d="M242.6 298.1C285.292 298.1 319.9 292.996 319.9 286.7C319.9 280.404 285.292 275.3 242.6 275.3C199.908 275.3 165.3 280.404 165.3 286.7C165.3 292.996 199.908 298.1 242.6 298.1Z" fill="#3C20A8"/>
<path d="M202.2 247C208.8 254.7 215.5 262.3 222.5 269.7C223.4 270.6 224.2 271.5 225.1 272.5C225.7 273.1 226.7 272.2 226.1 271.5C219.1 264.2 212.3 256.6 205.7 249C199 241.2 192.5 233.3 186.2 225.3C179.8 217.1 173.6 208.8 167.5 200.4C161.4 191.9 155.5 183.2 149.8 174.5C144 165.7 138.5 156.7 133.1 147.7C133 147.6 132.9 147.4 132.8 147.3C132.5 147.6 132.3 147.8 132 148.1C131.9 148.2 131.9 148.2 131.8 148.3C136.6 156.3 141.5 164.2 146.5 172.1C152.2 180.9 158.1 189.7 164.2 198.2C170.2 206.6 176.4 215 182.7 223.1C189 231.2 195.5 239.2 202.2 247Z" fill="#5F5DD0"/>
<path d="M207.5 269.9C208.6 270.1 209.7 270.3 210.8 270.4C211.7 270.5 212 269.2 211.2 269.1C202.4 267.7 193.6 266 184.9 263.9C176.2 261.8 167.5 259.3 159 256.5C150.4 253.6 141.8 250.4 133.5 246.8C125 243.2 116.7 239.2 108.6 234.9C100.3 230.6 92.3 225.9 84.4 220.9C83.5 220.3 82.5 219.7 81.6 219.1C81.5 219.6 81.4 220 81.3 220.5C89 225.5 97 230.1 105 234.5C113.1 238.9 121.5 242.9 129.9 246.7C138.2 250.3 146.7 253.7 155.3 256.6C163.8 259.6 172.5 262.1 181.3 264.4C189.9 266.6 198.6 268.4 207.5 269.9Z" fill="#5F5DD0"/>
<path d="M347.8 36.7L376.1 30.9L402.5 161.9L372.6 168.1L347.8 36.7Z" fill="#FFC000"/>
<path d="M375.909 167.405C404.629 161.472 421.86 127.374 414.397 91.2455C406.933 55.1166 377.601 30.6377 348.882 36.5704C320.163 42.5031 302.932 76.6009 310.395 112.73C317.858 148.859 347.19 173.338 375.909 167.405Z" fill="#FFC000"/>
<path d="M351.6 76.1L313.8 83.9C313.5 86.3 313.2 88.8 313.1 91.3L353 83.1L351.6 76.1Z" fill="#FF8F00"/>
<path d="M354.7 115.7L353.3 108.7L316 116.4C316.6 118.7 317.3 121 318.1 123.2L354.7 115.7Z" fill="#FF8F00"/>
<path d="M343.1 94.4L313.3 100.6C313.5 103 313.7 105.3 314.1 107.7L344.5 101.4L343.1 94.4Z" fill="#FF8F00"/>
<path d="M360.2 57.9L318.7 66.5C317.6 69 316.7 71.6 316 74.3L361.7 64.9L360.2 57.9Z" fill="#FF8F00"/>
<path d="M324.2 56.1L370.2 46.6L368.8 39.6L331.6 47.3C328.8 49.9 326.4 52.8 324.2 56.1Z" fill="#FF8F00"/>
<path d="M384.2 151.3L345.5 159.3C348.8 161.4 352.2 163.1 355.7 164.5L385.6 158.3L384.2 151.3Z" fill="#FF8F00"/>
<path d="M372.2 137.5L330.9 146C332.7 148.2 334.6 150.2 336.6 152.1L373.7 144.4L372.2 137.5Z" fill="#FF8F00"/>
<path d="M365.2 130.1L363.8 123.1L321.7 131.8C322.8 134.1 324 136.2 325.3 138.3L365.2 130.1Z" fill="#FF8F00"/>
<path d="M402.408 161.92C431.127 155.987 448.358 121.889 440.895 85.7603C433.432 49.6313 404.1 25.1524 375.38 31.0851C346.661 37.0179 329.43 71.1156 336.893 107.245C344.357 143.373 373.688 167.852 402.408 161.92Z" fill="#FFC000"/>
<path d="M343.8 55.6C337.6 66.7 334.5 80.5 335.4 95.1L423.8 150.8C432.7 142.5 438.8 130.7 441.4 117L343.8 55.6Z" fill="#FFD660"/>
<path d="M347.5 49.7L442.3 109.5C442.9 103 442.6 96.1 441.5 89.2L359.8 37.7C355.1 40.9 351 44.9 347.5 49.7Z" fill="#FFD660"/>
<path d="M399.96 150.07C423.433 145.221 437.507 117.307 431.396 87.7224C425.284 58.1377 401.301 38.0855 377.828 42.9345C354.355 47.7834 340.281 75.6974 346.392 105.282C352.504 134.867 376.487 154.919 399.96 150.07Z" fill="#F18800"/>
<path d="M351 65.1C345.4 76.3 343.4 90.6 346.5 105.3C346.6 106 346.8 106.7 347 107.4L409.3 146.7C420.2 140.9 428.1 129.6 431.3 115.7L351 65.1Z" fill="#FFA421"/>
<path d="M367 47.2C362.1 50.1 357.9 54.2 354.5 59.1L432.5 108.3C433.2 101.8 432.9 94.9 431.5 87.8L367 47.2Z" fill="#FFA421"/>
<path d="M378.8 42.8C400.6 41.6 421.6 60.8 427.3 88.2C433.4 117.8 419.3 145.7 395.8 150.5C395.5 150.6 395.2 150.6 394.9 150.7C396.6 150.6 398.3 150.4 400 150C423.5 145.2 437.6 117.3 431.5 87.7C425.4 58.5 402 38.7 378.8 42.8Z" fill="#FF8F00"/>
<path d="M409.8 102.8C410.4 107.6 408.6 112.2 404.4 116.6C400.6 120.5 396.9 122.6 393.4 123L394.5 132.7L390.7 133.1L389.6 123.4C386.9 123.7 384.2 123.7 381.5 123.3C378.4 122.9 375.4 122 372.7 120.7L371.4 108.6L376.1 108.1C376.5 111.8 377.5 114.8 379.1 116.9C380.8 119 384.2 119.7 389.2 119L386.7 95.7C382.3 95.8 378.5 94.4 375.1 91.5C371.7 88.7 369.8 85.1 369.3 80.6C368.8 76.1 369.8 72 372.4 68.5C375 65 378.5 62.8 382.9 61.9L382.5 58.6L386.3 58.2L386.7 61.5C387.7 61.4 388.7 61.4 389.9 61.4C391.1 61.4 392.3 61.5 393.7 61.6C396.1 61.8 398.7 62.3 401.3 63L402.5 74.1L398.7 74.5C398.7 71 397.3 68.3 394.4 66.6C392.1 65.3 389.7 64.9 387.2 65.4L389.5 86.4C392.3 86.1 395.7 86.8 399.5 88.6C405.5 91.4 409 96.1 409.8 102.8ZM385.5 86.1L383.3 65.7C381.1 66 379 67.3 377.1 69.7C375.2 72 374.4 74.5 374.7 77.2C375 79.9 376.2 82.1 378.4 83.8C380.5 85.5 382.8 86.3 385.5 86.1ZM402.8 105.7C402.4 103 401 100.6 398.6 98.6C396.2 96.6 393.5 95.8 390.4 96.1L392.9 118.6C396 118.3 398.6 116.7 400.6 114.1C402.6 111.5 403.4 108.7 402.8 105.7Z" fill="#FF8F00"/>
<path d="M412.5 102.5C413.1 107.3 411.3 111.9 407.1 116.3C403.3 120.2 399.6 122.3 396.1 122.7L397.2 132.4L393.4 132.8L392.3 123.1C389.6 123.4 386.9 123.4 384.2 123C381.1 122.6 378.1 121.7 375.4 120.4L374.1 108.3L378.8 107.8C379.2 111.5 380.2 114.5 381.8 116.6C383.5 118.7 386.9 119.4 391.9 118.7L389.4 95.4C385 95.5 381.2 94.1 377.8 91.2C374.4 88.4 372.5 84.8 372 80.3C371.5 75.8 372.5 71.7 375.1 68.2C377.7 64.7 381.2 62.5 385.6 61.6L385.2 58.3L389 57.9L389.4 61.2C390.4 61.1 391.4 61.1 392.6 61.1C393.8 61.1 395 61.2 396.4 61.3C398.8 61.5 401.4 62 404 62.7L405.2 73.8L401.4 74.2C401.4 70.7 400 68 397.1 66.3C394.8 65 392.4 64.6 389.9 65.1L392.2 86.1C395 85.8 398.4 86.5 402.2 88.3C408.3 91.1 411.7 95.8 412.5 102.5ZM388.2 85.8L386 65.4C383.8 65.7 381.7 67 379.8 69.4C377.9 71.7 377.1 74.2 377.4 76.9C377.7 79.6 378.9 81.8 381.1 83.5C383.2 85.2 385.6 86 388.2 85.8ZM405.6 105.4C405.2 102.7 403.8 100.3 401.4 98.3C399 96.3 396.3 95.5 393.2 95.8L395.7 118.3C398.8 118 401.4 116.4 403.4 113.8C405.4 111.2 406.1 108.4 405.6 105.4Z" fill="#FFC000"/>
<path d="M392.1 86.1L388 83.4L388.3 85.8C385.7 86 383.3 85.2 381.1 83.5C378.9 81.8 377.7 79.6 377.4 76.9C377.4 76.8 377.4 76.8 377.4 76.7L372.5 73.6C371.9 75.7 371.7 78 372 80.4C372.5 84.8 374.4 88.4 377.8 91.3C381.1 94.2 385 95.6 389.4 95.5L391.9 118.8C386.9 119.5 383.5 118.8 381.8 116.7C380.2 114.5 379.2 111.6 378.8 107.9L374.1 108.4L375.4 120.4L375.7 120.6C378.3 121.9 381.1 122.7 384.2 123.1C386.9 123.5 389.6 123.5 392.3 123.2L393.2 131.6L394.9 132.7L397.1 132.5L396 122.8C399.6 122.4 403.2 120.3 407 116.4C411.2 112 413 107.4 412.4 102.6C412.2 101.1 411.9 99.7 411.5 98.4L392.1 86.2C392.2 86.1 392.1 86.1 392.1 86.1ZM405.6 105.4C406.1 108.4 405.4 111.2 403.3 113.8C401.3 116.5 398.7 118 395.6 118.3L393.1 95.8C396.2 95.5 399 96.3 401.3 98.3C403.8 100.3 405.2 102.6 405.6 105.4Z" fill="#FFD660"/>
<path d="M397.5 61.4C397.1 61.4 396.7 61.3 396.3 61.3C394.9 61.2 393.6 61.1 392.5 61.1C391.3 61.1 390.3 61.1 389.3 61.2L389 58L385.2 58.4L385.6 61.7C381.5 62.5 378.2 64.4 375.7 67.5L379.4 69.9C379.5 69.8 379.6 69.6 379.7 69.5C381.7 67.1 383.7 65.8 385.9 65.5L386.9 74.7L391 77.3L389.7 65.2C392.2 64.7 394.6 65.1 396.9 66.4C399.8 68.2 401.3 70.8 401.2 74.3L405 73.9L404.1 65.8L397.5 61.4Z" fill="#FFD660"/>
<path d="M444.2 37.8001L445.9 13.8L449 37.7L463.6 39.7L449.1 42.5L447.4 65.4001L444.3 42.6L429.7 40.7L444.2 37.8001Z" fill="#FFC000"/>
<path d="M468 63.9L469.1 48L471.2 63.8L480.8 65.1L471.3 67L470.1 82.1L468.1 67.1L458.5 65.8L468 63.9Z" fill="#FFC000"/>
<path d="M37 69.0999C37 69.0999 -2.89997 48.1999 2.00003 43.0999C6.90003 37.9999 27.1 48.3 27.1 48.3C27.1 48.3 22 25.5 30.1 25.4C38.2 25.3 37 69.0999 37 69.0999Z" fill="#FFC000"/>
<path d="M54.1 43C54.1 43 44.9 30.1 47.5 29C50.1 27.9 53.1 32.3 53.1 32.3C53.1 32.3 53 26.1 56 27.3C58.9 28.7 54.1 43 54.1 43Z" fill="#FFC000"/>
<path d="M114.9 165.3C153.008 165.3 183.9 134.408 183.9 96.3C183.9 58.1924 153.008 27.3 114.9 27.3C76.7924 27.3 45.9 58.1924 45.9 96.3C45.9 134.408 76.7924 165.3 114.9 165.3Z" fill="#FFC000"/>
<path d="M55.7 102.6C52.2 69.9 75.9 40.5 108.6 37C141.3 33.5 169.6 61.6 173.1 94.3C176.6 127 157 151 124.3 154.5C91.5 158 59.2 135.3 55.7 102.6Z" fill="#FF8F00"/>
<path d="M122.556 149.956C152.19 145.733 172.79 118.285 168.566 88.6508C164.342 59.0164 136.895 38.4168 107.26 42.6405C77.6259 46.8641 57.0264 74.3116 61.2501 103.946C65.4737 133.581 92.9212 154.18 122.556 149.956Z" fill="white"/>
<path d="M115.9 105.7C115.7 105.7 115.5 105.6 115.4 105.5L99.2 92.8001C98.8 92.5001 98.8 92 99.1 91.7C99.4 91.3 99.9 91.3001 100.2 91.6001L115.7 103.8L140.1 73.3001C140.4 72.9001 140.9 72.9 141.2 73.2C141.6 73.5 141.6 74.0001 141.3 74.3001L116.4 105.4C116.3 105.6 116.1 105.7 115.9 105.7Z" fill="#522D34"/>
<path d="M111 60.5001C110.7 60.5001 110.5 60.3001 110.5 60.0001L109.3 49.1001C109.3 48.8001 109.5 48.5001 109.8 48.5001C110.1 48.5001 110.4 48.7001 110.4 49.0001L111.6 59.9001C111.6 60.2001 111.4 60.5001 111 60.5001C111.1 60.5001 111.1 60.5001 111 60.5001Z" fill="#522D34"/>
<path d="M120.1 145.2C119.8 145.2 119.6 145 119.6 144.7L118.4 133.8C118.4 133.5 118.6 133.2 118.9 133.2C119.2 133.2 119.5 133.4 119.5 133.7L120.7 144.6C120.7 144.9 120.5 145.2 120.1 145.2C120.2 145.2 120.1 145.2 120.1 145.2Z" fill="#522D34"/>
<path d="M151.9 93.5001C151.6 93.5001 151.4 93.3001 151.4 93.0001C151.4 92.7001 151.6 92.4001 151.9 92.4001L162.8 91.2001C163.1 91.2001 163.4 91.4001 163.4 91.7001C163.4 92.0001 163.2 92.3001 162.9 92.3001L151.9 93.5001C151.9 93.5001 151.9 93.4001 151.9 93.5001Z" fill="#522D34"/>
<path d="M67.2 102.5C66.9 102.5 66.7 102.3 66.7 102C66.7 101.7 66.9 101.4 67.2 101.4L78.1 100.2C78.4 100.2 78.7 100.4 78.7 100.7C78.7 101 78.5 101.3 78.2 101.3L67.2 102.5Z" fill="#522D34"/>
<path d="M58.9 111.2C60.9 118 63.7 123.2 60.7 124.1C57.7 125 53.6 120.2 51.6 113.3C49.6 106.5 50.5 100.2 53.5 99.3001C56.6 98.4001 57 104.3 58.9 111.2Z" fill="white"/>
<path d="M162.2 138.2C163.7 141.8 155.2 151.2 141.2 157C127.2 162.7 113.1 162.6 111.6 159C110.1 155.4 119.8 154.9 133.7 149.2C147.7 143.4 160.7 134.6 162.2 138.2Z" fill="#FF8F00"/>
<path d="M171.6 71.4001C173.8 70.8001 178.5 75.9001 180.6 83.6001C182.7 91.4001 181.3 98.9001 179.1 99.5001C176.9 100.1 177.5 94.9001 175.4 87.2001C173.3 79.5001 169.4 72.0001 171.6 71.4001Z" fill="#FF8F00"/>
<path d="M236.6 197.9L206.1 284.1C215.6 294 273.9 292.9 278.9 284.1L248.4 197.9H236.6Z" fill="#EB4834"/>
<path d="M267 289.1L247.6 203.6L241.8 203.7L238.9 291C249 291.3 259.3 290.6 267 289.1Z" fill="#F87D6E"/>
<path d="M225.1 290.1L242.3 194.8L216.5 288.6C219.1 289.3 222 289.7 225.1 290.1Z" fill="#F87D6E"/>
<path d="M242.9 216C246.6 216 250.1 214.4 252.9 211.6L248.7 199.3L236.6 198.7L232.4 211C235.3 214.1 238.9 216 242.9 216Z" fill="white" fill-opacity="0.8"/>
<path d="M372.5 203.7H112.6C109.2 203.7 106.4 200.9 106.4 197.5V196.8H378.8V197.5C378.7 200.9 375.9 203.7 372.5 203.7Z" fill="#EB4834"/>
<path d="M242.3 212.8C248.707 212.8 253.9 207.606 253.9 201.2C253.9 194.793 248.707 189.6 242.3 189.6C235.894 189.6 230.7 194.793 230.7 201.2C230.7 207.606 235.894 212.8 242.3 212.8Z" fill="#EB4834"/>
<path d="M242.3 209.4C246.829 209.4 250.5 205.729 250.5 201.2C250.5 196.671 246.829 193 242.3 193C237.771 193 234.1 196.671 234.1 201.2C234.1 205.729 237.771 209.4 242.3 209.4Z" fill="#F87D6E"/>
<path d="M242.3 189.7C235.9 189.7 230.7 194.9 230.7 201.3C230.7 202.1 230.8 202.9 231 203.7C233.9 202.6 237.7 201.8 242.6 201.5C246.9 201.2 250.6 202.1 253.6 203.4C253.7 202.7 253.8 202 253.8 201.3C253.9 194.8 248.7 189.7 242.3 189.7Z" fill="#EB4834"/>
<path d="M242.3 193.1C237.8 193.1 234.1 196.8 234.1 201.3C234.1 201.8 234.1 202.3 234.2 202.7C236.5 202.1 239.3 201.7 242.6 201.5C245.5 201.3 248.1 201.7 250.4 202.3C250.4 202 250.5 201.7 250.5 201.3C250.5 196.7 246.9 193.1 242.3 193.1Z" fill="#F87D6E"/>
<path d="M154.3 193.6H67C58.7 193.6 52 186.9 52 178.6V176.9H169.3V178.6C169.3 186.9 162.6 193.6 154.3 193.6Z" fill="#F87D6E"/>
<path d="M418.1 193.6H330.8C322.5 193.6 315.8 186.9 315.8 178.6V176.9H433V178.6C433 186.9 426.3 193.6 418.1 193.6Z" fill="#F87D6E"/>
<path d="M114.9 193.6H106.3V196.8H114.9V193.6Z" fill="#EB4834"/>
<path d="M378.7 193.6H370.1V196.8H378.7V193.6Z" fill="#EB4834"/>
<path d="M237.2 202.9C237.5 204.2 237.3 205.3 236.9 205.4C236.4 205.5 235.8 204.6 235.6 203.3C235.3 202 235.5 200.9 235.9 200.8C236.3 200.7 236.9 201.7 237.2 202.9Z" fill="#E0D0FF"/>
<path opacity="0.2" d="M171.7 201H130.9C130.3 201 129.9 200.5 129.9 200V199.8C129.9 199.2 130.4 198.8 130.9 198.8H171.7C172.3 198.8 172.7 199.3 172.7 199.8V200C172.8 200.6 172.3 201 171.7 201Z" fill="#E0D0FF"/>
<path opacity="0.2" d="M185.3 201H178.7C178.1 201 177.7 200.5 177.7 200V199.8C177.7 199.2 178.2 198.8 178.7 198.8H185.3C185.9 198.8 186.3 199.3 186.3 199.8V200C186.3 200.6 185.9 201 185.3 201Z" fill="#E0D0FF"/>
<path opacity="0.3" d="M315.6 201H288.2C287.6 201 287.2 200.5 287.2 200V199.8C287.2 199.2 287.7 198.8 288.2 198.8H315.6C316.2 198.8 316.6 199.3 316.6 199.8V200C316.6 200.6 316.1 201 315.6 201Z" fill="#E0D0FF"/>
<path opacity="0.3" d="M324.9 201H321C320.4 201 320 200.5 320 200V199.8C320 199.2 320.5 198.8 321 198.8H324.9C325.5 198.8 325.9 199.3 325.9 199.8V200C325.9 200.6 325.5 201 324.9 201Z" fill="#E0D0FF"/>
</svg>
