<svg width="11" height="8" viewBox="0 0 11 8" fill="none" xmlns="http://www.w3.org/2000/svg">
<path d="M5.33321 8C5.10629 7.99886 4.88246 7.94721 4.67798 7.84881C4.47349 7.75041 4.29348 7.60773 4.15099 7.43111L0.408767 2.89778C0.190095 2.62486 0.0524882 2.296 0.0116269 1.94868C-0.0292343 1.60136 0.0282938 1.24955 0.177656 0.933334C0.298794 0.658512 0.496477 0.424367 0.747095 0.258865C0.997714 0.0933616 1.29068 0.00349605 1.59099 0H9.07543C9.37575 0.00349605 9.66871 0.0933616 9.91933 0.258865C10.1699 0.424367 10.3676 0.658512 10.4888 0.933334C10.6381 1.24955 10.6957 1.60136 10.6548 1.94868C10.6139 2.296 10.4763 2.62486 10.2577 2.89778L6.51543 7.43111C6.37295 7.60773 6.19293 7.75041 5.98845 7.84881C5.78396 7.94721 5.56014 7.99886 5.33321 8Z" fill="#CDC6FF" fill-opacity="0.68"/>
</svg>
